<svg width="56" height="56" viewBox="0 0 56 56" fill="none" xmlns="http://www.w3.org/2000/svg">
<g clip-path="url(#clip0_185_677)">
<path d="M56 28C56 12.5344 43.4656 0 28 0C12.5344 0 0 12.5344 0 28C0 41.9781 10.2375 53.5609 23.625 55.6609V36.0937H16.5156V28H23.625V21.8312C23.625 14.8148 27.8031 10.9375 34.2016 10.9375C37.2641 10.9375 40.4688 11.4844 40.4688 11.4844V18.375H36.9359C33.4578 18.375 32.375 20.5352 32.375 22.75V28H40.1406L38.8992 36.0937H32.375V55.6609C45.7625 53.5609 56 41.9781 56 28Z" fill="#1877F2"/>
<path d="M38.8992 36.0938L40.1406 28H32.375V22.75C32.375 20.5352 33.4578 18.375 36.9359 18.375H40.4688V11.4844C40.4688 11.4844 37.2641 10.9375 34.2016 10.9375C27.8031 10.9375 23.625 14.8148 23.625 21.8313V28H16.5156V36.0938H23.625V55.6609C25.0523 55.8852 26.5125 56 28 56C29.4875 56 30.9477 55.8852 32.375 55.6609V36.0938H38.8992Z" fill="white"/>
</g>
<defs>
<clipPath id="clip0_185_677">
<rect width="56" height="56" fill="white"/>
</clipPath>
</defs>
</svg>
