<svg width="33" height="60" viewBox="0 0 33 60" fill="none" xmlns="http://www.w3.org/2000/svg">
<g clip-path="url(#clip0_176_24199)">
<mask id="mask0_176_24199" style="mask-type:luminance" maskUnits="userSpaceOnUse" x="-38" y="0" width="105" height="60">
<path d="M66.2236 0L-37.5713 0V60H66.2236V0Z" fill="white"/>
</mask>
<g mask="url(#mask0_176_24199)">
<path d="M66.2236 0L-37.5713 0V60H66.2236V0Z" fill="#807F7F"/>
<path d="M-2.5277 3.04744C-2.35093 3.29022 -2.04657 3.92522 -1.81195 4.0591C-1.34055 4.08966 -0.869148 4.12022 -0.398287 4.15133C-0.137719 4.63522 -0.0955529 5.94299 0.0131073 6.59744C0.0368938 6.89188 0.0606804 7.18577 0.0844669 7.48022C0.209886 7.62855 0.641284 7.53577 0.872119 7.57244C1.64734 7.64577 2.42309 7.71966 3.19885 7.79299C3.42536 8.363 3.65242 8.93355 3.87893 9.50355C4.25032 10.3808 4.71145 11.2302 5.16771 12.0236C5.42396 12.4691 5.6229 13.2258 6.04456 13.4952C6.58408 13.1836 7.04305 12.928 7.7269 12.7041C7.59013 12.2852 6.11971 11.6619 5.79427 11.2324C5.40666 10.2519 5.01851 9.27022 4.6309 8.28966C4.51088 7.998 4.39195 7.45522 4.12976 7.31466C3.36536 6.90522 2.11171 7.17633 1.37379 6.74466C1.18837 6.62244 1.30406 5.10633 1.24838 4.73966C1.08944 3.68966 0.948884 2.84688 0.621821 2.01744C0.535866 1.79966 0.469914 1.37633 0.281786 1.26355H-0.309087C-0.76373 1.19299 -1.64869 1.25633 -1.99143 1.06133C-2.24768 0.711883 -2.50446 0.362438 -2.76124 0.0129936C-2.87153 -0.0870064 -4.19383 -0.0281175 -4.46143 -0.0236731C-4.26465 0.313549 -4.06787 0.650771 -3.87055 0.987994C-3.43483 1.7041 -3.00776 2.38855 -2.52825 3.04799L-2.5277 3.04744Z" fill="white"/>
<path d="M2.44737 3.5999C2.62523 4.37434 2.49819 5.36545 2.66199 6.1749C2.85715 6.29712 3.1615 6.29267 3.41342 6.35878C4.00267 6.51323 5.02008 6.73434 5.4358 7.07601C5.7607 7.34267 6.01694 8.86378 6.27697 9.33823C6.28292 9.35656 6.28886 9.3749 6.29481 9.39323C7.08084 9.14101 7.28465 8.0699 8.12041 7.86656C8.20907 7.71545 8.19826 7.21434 8.13825 7.00212C8.00688 6.74878 7.41872 6.60712 7.15382 6.48712C6.43212 6.1599 5.66718 5.8749 4.89899 5.54934C4.51138 5.37156 4.12323 5.19378 3.73562 5.01601C3.55614 4.70378 3.63453 3.28934 3.53884 2.82712C3.39558 2.1349 3.19772 1.47878 2.94797 0.877674C2.8166 0.577118 2.68524 0.276563 2.55441 -0.0234375H1.06885C1.25968 0.350451 1.45051 0.72434 1.64134 1.09823C1.97543 1.87767 2.23762 2.69045 2.44683 3.59934L2.44737 3.5999Z" fill="white"/>
<path d="M13.7229 14.727C13.5337 14.8537 13.3504 15.0381 13.1142 15.1131C13.1082 15.1253 13.1023 15.1376 13.0963 15.1498C13.1412 15.2598 13.8094 15.777 13.9375 15.812C14.5619 15.4764 15.1284 15.0231 15.6912 14.6164C16.1566 14.2803 16.7405 13.9692 17.087 13.5131C17.2541 13.2803 17.4211 13.047 17.5881 12.8142C17.7968 12.557 18.006 12.2992 18.2147 12.042C18.0628 11.8492 16.4961 11.3126 16.1566 11.1776C15.356 11.8876 14.2948 12.1948 13.2217 12.6492C12.8401 12.827 12.4579 13.0048 12.0762 13.1826C11.5513 12.7598 11.0264 12.3364 10.5014 11.9137C9.81272 11.3998 9.02885 11.0348 8.30012 10.5526C8.13903 10.4459 8.09686 10.1559 7.94225 10.0742C7.73466 10.3714 7.38489 10.6653 7.10107 10.8837V10.9203C7.25514 11.1209 7.58707 11.2042 7.81683 11.3248C8.19255 11.5514 8.5688 11.7787 8.94452 12.0053C9.68135 12.537 10.3079 13.1809 11.0026 13.7526C11.3529 14.0409 11.6394 14.4364 12.0405 14.672C12.5946 14.2437 14.3748 12.8776 15.1549 12.8698C15.3338 13.0414 15.5128 13.2131 15.6917 13.3848V13.4398C15.1138 13.9514 14.371 14.2937 13.7229 14.727Z" fill="white"/>
<path d="M16.354 1.94392C16.5643 2.11725 16.9762 2.05392 17.2487 2.16447C17.7634 2.37336 18.231 2.76614 18.6624 3.08392C19.8111 3.93059 20.7102 5.10948 21.6157 6.21059C21.8773 6.14725 22.1195 5.84892 22.2957 5.67725V5.65892C21.4308 4.73614 20.5318 3.73892 19.5219 2.97336C18.9554 2.56892 18.3883 2.16392 17.8217 1.75947C17.5758 1.39281 17.5541 0.82003 17.4103 0.361697L17.339 0.38003C17.2422 0.758364 17.0914 1.09892 16.8557 1.3367H16.7843C16.5459 1.00281 16.3048 0.442808 16.2297 -0.0244141H15.6929C15.7756 0.502253 16.0383 1.68225 16.3551 1.94336L16.354 1.94392Z" fill="white"/>
<path d="M7.06517 2.90059C7.15058 3.22614 7.1868 3.90225 7.42304 4.07781C7.7274 4.17003 8.03176 4.2617 8.33557 4.35392C8.92104 4.5417 9.51354 4.76781 10.0536 4.99781C10.3039 5.10448 10.7272 5.17392 10.8591 5.40225C11.3056 6.17559 11.5992 7.18225 11.897 8.05059C12.0203 8.40948 12.1868 9.03392 12.5414 9.13559C13.1047 8.65781 13.707 8.24892 14.3135 7.81114C14.5546 7.63725 14.8449 7.38059 15.1725 7.31448C15.498 7.24892 15.6418 7.56892 15.9061 7.60892C16.3294 7.2717 16.7532 6.93448 17.1771 6.59725C17.4809 6.3617 17.8079 6.03225 18.1793 5.88003C18.155 5.68559 17.4755 4.97836 17.3025 4.92336C16.8349 5.21281 16.3564 6.11059 15.7456 6.19225C15.0293 5.47781 14.2681 4.66114 13.6875 3.81948C13.4129 3.36559 13.1388 2.91225 12.8642 2.45836C12.4749 1.91059 11.8268 1.56225 11.7543 0.692808L11.7186 0.674475C11.6949 0.821697 11.6711 0.968919 11.6473 1.11614C11.4537 1.23225 10.4774 1.11503 10.2693 1.02392C10.2455 0.674475 10.2217 0.32503 10.1979 -0.0244141H9.46434C9.57084 0.806697 9.54381 1.27614 9.7687 1.92503C10.2082 2.18225 11.1132 1.9067 11.6121 2.09059C12.1127 2.27503 12.409 2.84281 12.6858 3.26781C13.1572 3.91781 13.6286 4.56781 14.0994 5.21725C14.3265 5.52614 14.72 5.94836 14.7617 6.41281C14.147 6.87281 13.5107 7.40836 12.7571 7.70003C12.7214 7.69392 12.6858 7.68781 12.6495 7.6817C12.4614 6.97392 11.4997 4.53781 11.0569 4.22392C10.7407 4.18725 10.4244 4.15059 10.1082 4.11336C9.46975 3.92948 8.8313 3.74559 8.1934 3.5617C7.9112 3.42725 7.84579 2.95003 7.74578 2.62392C7.52846 1.91114 7.10031 0.775586 7.06571 -0.0244141H6.2959V-0.00552517C6.3732 0.343919 6.45105 0.693364 6.52836 1.04281C6.70729 1.6617 6.88623 2.28114 7.06517 2.90059Z" fill="white"/>
<path d="M19.8264 2.42192C20.6368 3.01581 21.2974 3.77303 22.0634 4.40803C22.3132 4.61525 22.7651 5.22914 23.0657 5.30914C23.3284 5.25414 23.5906 5.19858 23.8533 5.14358C24.2166 5.02358 24.3464 4.52803 24.4977 4.18692C24.8453 3.40247 25.2124 2.59303 25.5535 1.75914C25.6135 1.61303 26.0379 0.891917 25.9649 0.710806C25.9595 0.696917 24.9637 0.0141393 24.8913 -0.0247496H23.3344V-0.00586067C23.6025 0.278028 24.4799 0.826362 24.8734 0.950806C25.0183 1.22081 24.6783 1.72581 24.5691 1.96247C24.3431 2.45136 24.1512 2.92747 23.8712 3.36025C23.6149 3.69136 23.3581 4.02247 23.1014 4.35358H23.03C22.1353 3.71414 21.406 2.85081 20.5065 2.20192C19.9994 1.85858 19.4923 1.51525 18.9853 1.17192C18.7933 0.879695 18.9096 0.359695 18.7706 0.0130282C18.6766 -0.0758607 18.2744 -0.0297496 18.1084 -0.0236384C18.2279 0.48525 18.3468 0.994139 18.4663 1.50303C18.9198 1.8097 19.3729 2.11636 19.8264 2.42247V2.42192Z" fill="white"/>
<path d="M11.3601 3.30483C11.5894 3.40539 11.7451 3.77539 11.8791 3.98539C12.337 4.7015 12.6684 5.51817 13.096 6.28428H13.1674C13.3701 6.09428 13.5728 5.90428 13.7761 5.71428V5.65928C13.0484 4.67872 12.3203 3.69705 11.5926 2.7165C11.1136 2.48817 9.5778 2.79594 9.30155 2.44039C8.98746 2.03594 8.88799 1.30872 8.76474 0.729832C8.72311 0.490943 8.68094 0.251499 8.63932 0.0126099C8.54093 -0.0801679 8.11386 -0.0301679 7.94141 -0.0240568C8.12575 1.19817 8.40416 2.27983 8.85394 3.21317C9.68916 3.24372 10.5244 3.27428 11.3596 3.30539L11.3601 3.30483Z" fill="white"/>
<path d="M14.546 4.04101C14.7606 4.15767 14.9758 4.27378 15.1904 4.39045C15.3445 4.50712 15.3931 4.75601 15.5661 4.85045C15.7548 4.89879 16.3656 4.32823 16.604 4.24323C16.6159 4.2249 16.6278 4.20656 16.6397 4.18823C16.2462 4.01045 15.8521 3.83267 15.4585 3.6549C14.9866 3.2999 14.6898 2.73212 14.3487 2.23878C13.8924 1.57878 13.2561 1.09267 13.2388 -0.0234375H12.2544V-0.00510417C12.6436 0.963229 13.1804 1.7749 13.6681 2.6249C13.9394 3.09767 14.1281 3.72212 14.5449 4.04101H14.546Z" fill="white"/>
<path d="M29.0428 2.58823C29.2083 2.52045 29.3634 2.24823 29.4726 2.1099C29.8662 1.73601 30.2603 1.36212 30.6538 0.988229C30.5187 0.818229 30.2019 0.803785 30.0273 0.675451C30.1586 0.448785 30.29 0.221562 30.4208 -0.00510417C29.9554 -0.0112153 29.4899 -0.0173264 29.025 -0.0234375C29.0666 0.0871181 29.1088 0.197118 29.1504 0.307674C28.8342 1.04934 28.5179 1.79156 28.2017 2.53323C28.353 2.60545 28.8552 2.66545 29.0428 2.58823Z" fill="white"/>
<path d="M20.6134 1.55823C21.3589 2.1099 22.105 2.66156 22.8504 3.21379C23.0732 3.04267 23.8538 1.5949 23.8705 1.24601C23.424 0.918229 22.3147 0.499896 22.1347 -0.0228819H21.007C21.2827 0.723785 22.419 1.06267 22.958 1.61379C22.9267 1.84601 22.7656 1.95823 22.6893 2.14712C22.6477 2.15934 22.6055 2.17156 22.5639 2.18378C21.872 1.68101 21.18 1.17823 20.488 0.675451C20.368 0.521563 20.2842 0.226007 20.2734 -0.0234375H19.522V-0.00510416C19.5874 0.301563 19.6533 0.608229 19.7188 0.91434C19.8658 1.20601 20.3502 1.37823 20.6134 1.55823Z" fill="white"/>
<path d="M-9.50764 2.47712C-9.28707 2.64879 -9.06597 2.82045 -8.8454 2.99212C-8.45185 3.33545 -8.05775 3.67879 -7.6642 4.02212C-7.37011 4.25712 -6.99602 4.4949 -6.80519 4.83156C-6.69761 5.10156 -6.59057 5.37101 -6.48299 5.64101C-6.11917 6.3949 -5.75534 7.14934 -5.39152 7.90323C-4.54981 9.38545 -3.59403 10.756 -2.77827 12.2255C-2.56744 12.6055 -2.8426 13.4866 -2.63501 13.8071C-2.5031 14.0105 -2.16253 14.1205 -1.95494 14.2488C-1.43596 14.5799 -0.916988 14.911 -0.398014 15.2421C0.710753 16.001 1.7287 16.8671 2.78773 17.6699C3.15642 17.9493 3.91271 18.416 4.14788 18.7916C4.43115 19.2438 4.58792 19.8688 4.70253 20.4655C4.72632 20.7416 4.7501 21.0171 4.77389 21.2932C4.9085 21.5766 5.41125 21.5243 5.81184 21.4588C6.77843 21.3855 7.74502 21.3116 8.71107 21.2382C8.65539 21.0643 8.47321 20.9666 8.37103 20.8338C7.94504 20.2788 7.43904 19.7971 7.01089 19.2521C6.03727 18.0121 4.77227 16.891 3.43158 16.0332C2.80503 15.6838 2.17848 15.3343 1.55247 14.9849C0.884286 14.6171 0.216105 14.2493 -0.452073 13.8816C-0.579114 13.6532 -0.482348 13.1593 -0.469914 12.8699C-0.441803 12.2066 -0.635335 10.6621 -0.971046 10.4605C-1.28135 10.4666 -1.59165 10.4727 -1.90196 10.4788C-2.43012 9.69379 -3.20264 8.9849 -3.5843 8.08768C-3.90974 7.32323 -4.03786 6.11767 -4.49683 5.49434C-4.81146 5.06767 -5.38774 4.73601 -5.80346 4.40934C-6.81708 3.61267 -7.86151 2.7199 -8.63133 1.66878C-8.95839 1.22212 -9.43303 0.713785 -9.4725 -0.00510417C-9.70495 -0.0112153 -9.93795 -0.0173264 -10.1704 -0.0234375C-9.99742 0.602118 -9.82443 1.22712 -9.65143 1.85267C-9.60386 2.06101 -9.55575 2.26934 -9.50818 2.47823L-9.50764 2.47712Z" fill="white"/>
<path d="M33.6607 2.99267C33.4342 3.29934 33.2072 3.60601 32.9807 3.91212C32.9331 3.96712 32.885 4.02267 32.8374 4.07767C34.0754 3.99378 35.3539 4.01934 36.6497 4.02267C36.8822 3.73434 37.1152 3.44656 37.3476 3.15823L37.3833 3.0849C36.3929 3.1399 35.4025 3.19545 34.4122 3.25045L34.3943 3.17712C34.6868 2.72323 34.9792 2.2699 35.2712 1.81601C35.4858 1.41767 35.7009 1.01878 35.9156 0.620451C36.0367 0.418229 36.2448 0.226562 36.3091 -0.0234375H34.7879C34.8592 0.152674 35.0047 0.274896 35.1279 0.39934C35.1306 0.665451 34.8441 1.02212 34.7165 1.24545C34.3657 1.85712 34.051 2.43156 33.6607 2.99267Z" fill="white"/>
<path d="M8.44312 58.022C8.26418 58.0948 7.63979 59.6843 7.51221 59.9715C7.76845 60.1154 8.93398 60.0126 9.31997 60.0082C9.29726 59.7954 9.17509 59.6748 9.10535 59.5115C8.88478 59.0148 8.66368 58.5182 8.44312 58.0215V58.022Z" fill="white"/>
<path d="M27.7004 53.1301C27.7631 52.6879 28.3383 51.984 28.5594 51.6034C29.1979 50.5001 29.8363 49.3962 30.4742 48.2929C31.9295 45.7979 33.3859 43.3023 34.8412 40.8073C35.1812 39.7651 35.5212 38.7229 35.8613 37.6807C36.2667 36.5712 36.6727 35.4612 37.0782 34.3518C36.4397 34.0207 35.8013 33.6896 35.1634 33.3584C33.6886 32.4612 32.2798 31.5518 30.9218 30.5629C30.3672 30.1646 29.812 29.7657 29.2573 29.3673H29.2038C28.8578 29.999 28.5118 30.6301 28.1659 31.2618C27.8388 31.8312 27.4631 32.4284 27.2171 33.064L28.5416 34.4251C29.2492 35.3268 30.0904 36.1018 30.8326 36.9634C31.5581 37.8062 32.4209 38.5568 33.1058 39.4279C33.5832 39.9429 34.0605 40.4579 34.5379 40.9729C34.5071 41.259 34.2708 41.4968 34.1443 41.7084C33.6789 42.5301 33.2134 43.3518 32.7485 44.1729C32.7188 44.179 32.689 44.1851 32.6588 44.1912C29.6406 40.7951 26.6214 37.3979 23.6027 34.0018C25.0882 31.519 26.5738 29.0357 28.0588 26.5529C27.7939 26.2412 27.2652 26.0729 26.9133 25.854C26.3835 25.524 25.7991 25.2673 25.2488 24.9346C25.0044 24.7934 24.7595 24.6523 24.5152 24.5118C24.3644 24.2918 25.2007 22.6007 25.392 22.2862C26.1392 21.0601 26.663 19.6729 27.3966 18.4607C27.8772 17.6662 28.3156 16.8601 29.4546 16.7501H29.4725C29.5671 16.9979 28.9005 18.0379 28.7746 18.3318C28.2675 19.4412 27.7604 20.5512 27.2533 21.6607C27.0593 22.114 26.7441 22.5929 26.6446 23.1134C27.0738 23.3034 27.5036 23.4934 27.9334 23.6834C28.5513 24.0073 29.1043 24.4373 29.6693 24.8423C29.9363 25.034 30.5396 25.6312 30.8861 25.6518C32.4614 22.9651 34.0178 19.9862 35.2174 16.9707C35.2709 16.5907 35.325 16.2107 35.3785 15.8301C35.4921 15.3579 35.605 14.8857 35.7186 14.414C36.0705 13.3229 36.4224 12.2312 36.7743 11.1401V11.1218C36.2024 10.959 34.0908 10.7351 33.4632 10.9379H33.3378V10.8829C33.6573 10.4512 34.2411 10.169 34.4833 9.669C34.8222 8.96955 34.633 8.02455 35.1277 7.42511C35.5672 6.89233 37.6307 6.32011 38.4389 6.064C38.847 4.53733 39.3357 3.32122 40.0314 2.12789C40.2439 1.764 40.6229 1.044 40.944 0.821775L41.0337 0.71122V0.692886C40.2645 0.84622 39.4946 0.999553 38.7248 1.15289C38.2534 1.23844 37.782 1.32455 37.3112 1.41011C37.3782 0.868997 37.8993 0.495109 38.0091 -0.0243359H37.0782C36.7798 0.588442 36.4813 1.20177 36.1835 1.81511C36.0759 1.99289 35.9689 2.17066 35.8613 2.34844C36.9171 2.23789 37.9734 2.12789 39.0292 2.01733C39.0595 2.42677 38.3475 3.36122 38.1345 3.69122C37.848 4.14511 37.562 4.59844 37.2755 5.05233C37.1338 5.30177 37.0636 5.709 36.8457 5.88011C35.9813 6.56066 34.6757 6.759 33.8211 7.44344C33.1772 7.959 33.3832 9.03566 33.0334 9.87122C32.6074 10.8896 31.6349 11.5679 31.1364 12.5196V12.5379C32.0911 12.5434 32.908 12.709 33.6243 12.924C33.7497 13.1462 33.6059 13.5746 33.5529 13.8068C33.4572 14.2234 33.3621 14.6407 33.2664 15.0573C33.1832 15.2962 33.0994 15.5357 33.0161 15.7746C33.1588 15.8584 33.4026 15.939 33.4816 16.0873C33.5432 16.3534 32.9247 17.5212 32.8015 17.8162C32.3641 18.8634 31.9138 19.8773 31.3694 20.8323C31.0808 21.3396 30.6683 21.8873 30.4926 22.469C30.2466 22.4273 28.8443 21.779 28.7389 21.6229C29.1562 20.7707 29.5741 19.9184 29.9915 19.0662C30.3553 18.2384 30.7191 17.4107 31.0829 16.5834C31.2673 16.2807 31.5127 15.9218 31.7808 15.7007C31.9965 15.5223 32.3414 15.2846 32.4609 15.0201L32.4788 14.9279C32.0652 14.5601 30.744 14.044 30.0088 14.0451C30.0028 14.0573 29.9969 14.0696 29.9909 14.0818C30.3818 14.7218 30.8467 15.379 31.53 15.7184V15.7734C31.1959 16.2223 30.7688 16.6768 30.6175 17.3001C30.5937 17.3062 30.5699 17.3123 30.5461 17.3184C29.6357 16.8146 29.3476 16.3401 28.7562 15.5346C28.5237 15.2157 28.2907 14.8968 28.0583 14.5779C28.2134 14.3573 28.3686 14.1362 28.5237 13.9157C28.8935 13.2996 29.2054 12.6634 29.6336 12.1134C30.3137 11.4451 30.9937 10.7768 31.6738 10.1084C32.1576 9.43511 32.0387 8.18955 32.5328 7.53344C33.374 6.41622 35.2131 6.56677 35.8797 5.16066V5.05011C35.2834 5.01344 34.6866 4.97678 34.0897 4.93955C33.1653 4.90289 32.2403 4.86622 31.3159 4.829L31.2981 4.75566C31.5646 4.28177 31.9944 3.92066 32.3182 3.50511C32.915 2.739 33.5394 2.04844 33.9827 1.114C33.9551 0.810109 33.2648 0.198442 33.0518 0.0106641C32.9458 -0.0860025 31.73 -0.030447 31.477 -0.0260025V-0.00544698C31.6797 0.190664 31.8825 0.386775 32.0857 0.582886C32.3782 0.907886 32.6707 1.23289 32.9626 1.55789C32.9685 1.58844 32.9745 1.619 32.9804 1.65011C32.6999 1.99344 32.4198 2.33678 32.1393 2.68011C31.8587 2.97455 31.5787 3.26844 31.2981 3.56289C31.0851 3.83455 30.7732 4.27789 30.4748 4.44566C29.6844 4.88955 27.6107 4.85733 26.4657 4.70289L26.4478 4.64789C26.5424 4.404 26.6273 4.17511 26.7344 3.96733C27.635 3.99789 28.5362 4.02844 29.4368 4.05955C30.038 3.92344 31.4327 2.76844 31.6738 2.25733C31.7441 2.03177 31.4462 1.66289 31.3694 1.46622C31.3397 1.46011 31.31 1.454 31.2797 1.44789C31.0927 1.75289 29.7839 3.11844 29.4898 3.25011C29.1476 3.404 28.3772 3.32733 27.9864 3.26844C27.6642 3.25011 27.342 3.23178 27.0198 3.21344L26.9663 3.19511C27.0052 2.76289 27.2836 2.35566 27.4317 1.99955C27.6399 1.49955 27.7696 0.819553 28.094 0.417886C28.0507 0.215664 27.7999 0.115109 27.6826 -0.0237803H26.3938V-0.00544698C26.6024 0.184553 26.8117 0.374553 27.0203 0.564553C26.9009 0.883442 26.7819 1.20233 26.6625 1.52122C26.304 2.45955 25.9478 3.36677 25.571 4.26178C25.4645 4.51511 25.1915 5.37066 25.0163 5.494C24.772 5.57955 24.5271 5.66566 24.2827 5.75122C23.8665 5.91844 23.4778 6.12622 23.1194 6.35844C22.7318 6.60955 22.0463 7.38177 21.6516 7.48011C21.3192 7.14844 21.064 6.734 20.7748 6.35844C20.0661 5.43733 19.0216 4.24289 18.1259 3.52622C17.7837 3.25233 17.402 2.92789 16.9982 2.73511C16.7717 2.64955 16.5446 2.56344 16.3181 2.47789C15.6932 2.08066 14.9769 0.994553 14.958 -0.0232248H14.1525C14.3309 1.099 14.8601 1.70344 15.405 2.42289C15.6175 2.70344 15.8808 3.08122 16.1749 3.269C16.3538 3.30566 16.5327 3.34233 16.7117 3.37955C16.949 3.45455 17.1723 3.63844 17.3561 3.784C18.4886 4.68289 19.5601 6.13622 20.3093 7.444C20.4526 7.69511 20.5959 7.94677 20.7391 8.19789C20.8856 8.28455 22.0079 8.46011 22.2247 8.36344C22.6539 8.05066 23.0837 7.73789 23.5135 7.42566C24.0979 7.08844 24.6828 6.75122 25.2672 6.414C25.5418 6.16289 25.8159 5.91122 26.0905 5.66011C26.9198 5.70289 27.7491 5.74622 28.5783 5.789C28.787 5.77066 28.9962 5.75233 29.2049 5.734C29.646 5.62955 30.1542 5.35344 30.7618 5.45789C31.8527 5.64566 32.9307 5.909 34.1087 5.91789L34.1265 5.95455C33.8519 6.07122 33.5778 6.18733 33.3032 6.304C32.5928 6.62066 31.8192 7.07177 31.3705 7.66511C31.1619 7.94122 30.9618 8.26844 30.8515 8.64011C30.6834 9.20677 30.7553 9.83511 30.3504 10.1484C29.8552 10.4673 29.36 10.7862 28.8648 11.1051C28.6692 11.2279 28.4091 11.3262 28.274 11.5096C28.0513 11.8112 27.9107 12.1473 27.7193 12.4846C27.3696 13.1001 27.0749 13.7418 26.7884 14.434C26.7117 14.619 26.4505 14.9107 26.5197 15.1879C26.6808 15.8346 27.2587 16.4079 27.6296 16.8801C27.7539 17.039 28.0167 17.1462 28.0772 17.3584C27.7328 17.8157 27.2268 18.2418 27.0393 18.8484L27.0036 18.8668C26.3473 18.2907 25.691 17.714 25.0347 17.1379C24.8287 16.9718 24.4552 16.7957 24.3368 16.5496C24.2336 16.1957 25.0585 14.9212 25.2315 14.6184C25.6369 13.7907 26.0429 12.9629 26.4484 12.1357C26.6165 11.8379 26.7338 11.4623 26.9852 11.2529C27.5209 10.8068 28.8632 10.3857 29.2222 9.89178C29.4309 9.35233 29.6401 8.81289 29.8487 8.27344C30.1596 7.54733 31.0618 6.72622 31.7998 6.45233L31.8176 6.41566V6.39733C31.1532 6.25066 30.245 6.089 29.473 6.25011C29.0438 6.36066 28.614 6.47066 28.1842 6.58122C27.5458 6.57511 26.9073 6.569 26.2694 6.56289C25.8153 6.73677 25.5396 7.26178 25.0347 7.42733L24.999 7.48233C25.2634 7.69011 26.8798 7.82066 27.3793 7.79511C27.4323 7.97122 27.082 8.30455 26.9679 8.45733C26.51 9.07066 25.964 9.34789 25.2142 9.67122C25.0293 9.75122 24.7293 9.98344 24.4628 9.92844C24.0811 9.79955 23.6989 9.67066 23.3172 9.54233C22.828 9.41344 22.3388 9.28455 21.8495 9.15622C21.2111 9.02122 20.5726 8.88622 19.9347 8.75177C19.7628 8.66844 18.967 7.22844 18.8968 6.96789H18.8432C18.5286 7.19733 18.1264 7.36622 17.8053 7.61177C17.9545 7.84455 18.1037 8.07789 18.2529 8.31066C18.4081 8.63566 18.5632 8.96066 18.7184 9.28566C18.9341 9.47344 19.832 9.54677 20.1682 9.63511C21.3154 9.93622 22.4512 10.284 23.5151 10.5918C23.5556 10.7251 23.3167 10.9384 23.2286 11.0701C22.9361 11.5112 22.6436 11.9529 22.3517 12.3946C21.7062 13.4518 21.0489 14.7357 20.1147 15.5029C19.2319 16.269 18.3486 17.0357 17.4658 17.8018C17.7161 17.9734 17.9669 18.1451 18.2172 18.3168C18.8449 18.7701 19.4163 19.2896 20.0071 19.7696C20.2331 19.9534 20.5213 20.1334 20.6872 20.3768C20.6213 20.9229 19.6076 21.9468 19.2914 22.3629C18.3605 23.5862 17.1577 24.5879 16.0878 25.6734C15.5213 26.2618 14.9542 26.8507 14.3876 27.439C13.8568 27.1201 13.3259 26.8012 12.795 26.4823C12.7831 26.4518 12.7712 26.4212 12.7593 26.3901C12.9145 26.2551 13.0697 26.1201 13.2248 25.9857C13.6757 25.6134 14.0871 25.1968 14.5493 24.8268C14.8715 24.5201 15.1937 24.2134 15.5159 23.9073C16.2035 23.339 16.9128 22.6629 17.4669 21.9579C17.8188 21.5718 18.1707 21.1851 18.5227 20.799C18.2361 20.5784 17.9502 20.3573 17.6637 20.1368C16.9966 19.6023 15.991 18.6062 15.1937 18.2973L15.1401 18.224C15.3856 17.8112 16.0035 17.4896 16.3749 17.194C17.2101 16.4951 18.0453 15.7962 18.8805 15.0973C20.0888 14.1068 20.8694 12.4718 21.7441 11.1429C21.57 10.9868 21.2478 10.9507 21.0105 10.8668C20.0142 10.5479 19.0179 10.229 18.0215 9.91011C17.8702 9.814 17.6053 9.01066 17.4847 8.80678C17.3593 8.629 17.2339 8.45122 17.109 8.27344H17.0733C16.8274 8.46344 16.4338 9.06066 16.1424 9.11955C15.8921 8.92344 15.6413 8.72733 15.391 8.53122C15.2693 8.49233 14.7585 8.95677 14.6574 9.02789C13.9038 9.55455 13.1897 10.1851 12.3663 10.6279C12.0982 10.5829 12.0036 10.3307 11.8295 10.1862C11.5976 9.994 11.1635 9.68011 11.0419 9.39511C10.9883 9.05177 10.9343 8.70844 10.8808 8.36511C10.7224 7.65733 10.4267 6.42233 10.0396 5.93733C9.87526 5.73122 9.39629 5.64233 9.14491 5.53289C8.62593 5.30622 8.10696 5.079 7.58799 4.85233C7.17281 4.68511 6.69059 4.60678 6.33542 4.374C6.1527 3.55789 6.09324 2.63844 5.81645 1.90955C5.56021 1.26566 5.30342 0.621775 5.04663 -0.0215581H3.91895C4.31737 0.902886 4.60713 1.89622 4.84986 3.03177C4.91527 3.614 4.98122 4.19677 5.04663 4.779C5.47046 5.03955 6.02674 5.11733 6.51436 5.31233C7.09875 5.55122 7.68367 5.79066 8.26806 6.02955C8.61134 6.179 9.12599 6.28289 9.32385 6.58122C9.72767 7.19066 9.50711 9.03511 9.50279 9.91011C10.1948 10.4029 10.891 10.8268 11.543 11.3446C11.8111 11.5579 12.1247 11.9623 12.4739 12.0618C12.6739 12.104 13.3199 11.6934 13.494 11.5834C14.239 11.114 14.9893 10.3473 15.9462 10.149C16.3824 10.0584 16.8046 10.3946 17.1095 10.5168C18.0783 10.9062 19.0984 11.1923 20.0266 11.6201C19.9536 12.0296 19.2292 12.7068 18.9887 13.0546C18.0523 14.4062 16.8003 15.1701 15.4807 16.1262C14.932 16.5246 14.3828 16.9234 13.8341 17.3218C13.6232 17.3973 12.6993 16.6634 12.5096 16.5307C11.2132 15.6268 9.95581 14.634 8.80487 13.5696C8.42429 13.6201 8.07507 13.9257 7.78477 14.1029C7.3431 14.354 6.90197 14.6057 6.4603 14.8568C6.2992 14.9673 6.1381 15.0773 5.97701 15.1879C5.7905 15.2273 4.99311 14.3468 4.83148 14.2129C4.08761 13.5973 3.73676 12.459 3.32807 11.509C2.97614 10.7979 2.62422 10.0868 2.27229 9.37566C2.11389 9.05622 2.01766 8.56289 1.77115 8.32733C1.15433 8.21233 -0.828049 8.12566 -1.16376 7.849C-1.59948 6.899 -2.03466 5.94844 -2.47038 4.99844C-2.7023 4.59622 -3.03639 4.28622 -3.31156 3.93177C-3.99812 3.04733 -4.72522 2.25455 -5.31609 1.26511C-5.53774 0.893997 -5.93832 0.428997 -6.03185 -0.0221136H-7.33847C-6.97411 2.02066 -5.74911 3.37233 -4.43924 4.44733C-3.93378 4.86233 -3.33534 5.32622 -2.95368 5.86344C-2.72555 6.18455 -2.67149 6.65233 -2.54228 7.07733C-2.40227 7.53677 -1.82221 8.70733 -1.50434 8.93511C-0.806423 9.02733 -0.108509 9.119 0.589403 9.21122C0.685089 9.49344 0.780233 9.77511 0.875919 10.0573C1.08621 10.6746 1.28029 11.2957 1.43057 12.0068C1.47815 12.5218 1.52626 13.0368 1.57383 13.5518C1.656 13.7101 2.35824 13.9218 2.55826 14.0118C3.24969 14.3223 3.9157 14.7412 4.50928 15.1707C5.38613 15.8051 6.20243 16.5268 7.03279 17.2123C7.45608 17.6412 7.87991 18.0707 8.30374 18.4996L9.44927 19.6768C9.86985 20.2123 10.4029 20.6601 10.8273 21.2034C10.9402 21.3479 11.0905 21.4379 11.1673 21.6262C10.931 21.8996 10.4223 22.0246 10.0937 22.1962C9.10112 22.7151 7.97668 23.144 6.92575 23.594C6.66627 23.7051 5.8451 23.9223 5.70887 24.109C5.47046 24.8446 5.23152 25.5807 4.99311 26.3162C4.93851 26.4762 4.76012 26.8318 4.83202 26.9968C5.52993 27.7568 6.22784 28.5173 6.92575 29.2773C7.91018 30.344 8.89461 31.4112 9.87904 32.4779C10.3326 33.0784 10.7856 33.6796 11.2392 34.2801C11.2078 34.5051 10.9581 34.6246 10.8278 34.7584C10.5672 35.0262 9.68497 36.0679 9.41413 36.1746C9.23519 35.8373 9.05625 35.5001 8.87732 35.1629C8.59512 34.6718 8.21454 34.2701 7.87504 33.8384C7.62475 33.569 7.37391 33.299 7.12361 33.029C6.1127 31.7334 4.92879 30.5973 3.92003 29.2951C3.57405 28.8723 3.22806 28.449 2.88208 28.0262C2.74477 27.8546 2.60746 27.6829 2.47068 27.5112C2.41014 27.2401 2.79342 26.3857 2.88208 26.0951C3.13832 25.2796 3.39511 24.464 3.65189 23.649C3.80704 23.2012 3.96219 22.754 4.11734 22.3062C3.69406 22.049 3.27023 21.7912 2.8464 21.534C2.57826 21.1184 2.60962 20.3123 2.61394 19.6579C2.01225 19.0151 1.17974 18.5246 0.483986 17.984C-1.1324 16.7279 -2.72068 15.5651 -4.7063 14.6551C-4.91119 14.7962 -5.01282 15.2029 -5.11769 15.4462C-5.36799 15.9246 -5.61883 16.4029 -5.86913 16.8807V16.9357C-5.28258 17.1407 -4.70846 17.2134 -4.16894 17.4323C-2.45417 18.1284 -1.26809 19.0051 0.0547504 20.0623C0.757528 20.624 1.65654 21.4684 1.88035 22.4901C1.97928 22.9429 1.69601 23.8568 1.61167 24.2557C1.39165 25.299 1.22623 26.2173 0.94944 27.1801C0.812128 27.7134 0.674818 28.2468 0.538046 28.7801C0.520206 28.7923 0.502367 28.8046 0.484528 28.8168C0.246124 28.4796 0.00717545 28.1423 -0.231228 27.8051C-0.0344505 26.5729 0.162331 25.3407 0.35965 24.1084H0.341808C0.256393 24.8773 0.00771904 25.5612 -0.249065 26.1684C-0.399351 26.524 -0.730738 26.9023 -0.732361 27.364C0.266666 28.5162 1.14892 29.8073 2.05983 31.0423C2.28958 31.354 3.13129 32.2618 3.20536 32.5873C3.03939 32.9118 2.7226 33.1196 2.50744 33.3968C1.75601 34.2612 1.00404 35.1257 0.252609 35.9901C0.0358276 36.2673 -0.700466 37.1962 -0.964279 37.3329C-1.27404 37.4501 -2.33902 37.054 -2.62878 36.9651C-3.95216 36.5579 -5.19446 36.2823 -6.69138 35.9901C-6.98438 35.9329 -7.99746 35.7796 -8.3202 35.9168C-8.98838 36.5051 -9.65656 37.094 -10.3247 37.6823H-10.3604C-10.9929 36.5112 -11.6254 35.3401 -12.2574 34.1696C-12.7823 34.4701 -13.3072 34.7707 -13.8321 35.0707C-15.2874 35.8246 -16.7438 36.579 -18.1991 37.3329C-18.205 37.5957 -18.0029 37.9884 -17.9126 38.2523C-17.6742 39.0245 -17.4352 39.7973 -17.1968 40.5695C-16.5454 42.7251 -16.0675 45.054 -15.6042 47.3379C-15.5804 47.3501 -15.5566 47.3623 -15.5329 47.3745C-15.0317 46.8046 -14.5306 46.234 -14.0295 45.664C-13.3494 44.9773 -12.6693 44.2907 -11.9892 43.604C-12.2066 43.7079 -12.3785 43.9362 -12.5439 44.1007C-13.2591 44.8096 -14.0489 45.4129 -14.6738 46.2157C-14.9171 46.5284 -15.3177 46.8307 -15.4615 47.2273C-15.4793 47.2334 -15.4972 47.2395 -15.515 47.2457H-15.5329C-15.7534 46.2401 -15.9745 45.2346 -16.1951 44.2295C-14.9485 43.6168 -13.7013 43.0034 -12.4547 42.3901C-11.5303 41.9362 -10.6053 41.4829 -9.68088 41.029C-9.19272 40.8073 -8.74943 40.5101 -8.21316 40.3301C-8.01584 40.4423 -7.91421 40.6334 -7.7477 40.7718C-7.04655 41.3529 -6.46541 42.104 -5.86858 42.7951C-5.91724 43.1062 -6.32377 43.3657 -6.49514 43.5862C-7.0352 44.2812 -7.69419 44.8684 -8.231 45.554C-9.72251 47.2645 -11.214 48.9751 -12.7055 50.6857C-13.3261 51.4029 -13.9462 52.1201 -14.5668 52.8373C-14.6939 53.1945 -14.4252 54.2401 -14.3522 54.5662C-14.0111 56.0873 -13.6662 56.9751 -13.0099 58.1346C-12.8164 58.4762 -12.1839 59.609 -12.1687 60.0107H-7.8196C-7.8834 59.4145 -8.23803 58.8229 -8.44616 58.3184C-8.97702 57.029 -9.52303 55.8201 -10.075 54.6034C-10.0371 54.1318 -9.30733 53.2807 -9.05487 52.9112C-8.20559 51.6684 -7.36983 50.4462 -6.5492 49.1773C-6.2216 48.6712 -5.63721 48.0657 -5.56477 47.3562C-5.53504 47.344 -5.5053 47.3318 -5.47503 47.3195C-5.00255 47.6034 -4.21814 48.5051 -3.86405 48.9562C-3.67267 49.2007 -3.33642 49.4207 -3.25533 49.7657C-3.19857 50.0357 -3.72079 50.8529 -3.84621 51.0901C-4.5052 52.3384 -5.33123 53.4557 -5.95832 54.6951C-5.77344 55.1979 -5.58856 55.7007 -5.40367 56.2034C-5.34475 56.3595 -5.32528 56.6607 -5.18905 56.7368C-4.89064 56.3996 -4.59223 56.0623 -4.29436 55.7251C-3.717 54.9895 -3.02828 54.339 -2.43308 53.6101C-2.28388 53.5057 -2.13467 53.4018 -1.98547 53.2973C-1.68111 53.0401 -1.37675 52.7823 -1.07294 52.5251C-0.263121 51.8268 0.58724 50.6029 1.2538 49.7295C1.76088 49.0918 2.26796 48.4546 2.77504 47.8168C3.0794 47.4979 3.38375 47.179 3.68757 46.8601C4.12708 46.3007 4.68876 45.6568 5.26233 45.2418C5.24125 44.8934 4.53847 43.8968 4.3498 43.5862C3.59513 42.3462 2.8091 41.1968 1.95171 40.0734C1.43868 39.4912 0.925655 38.9084 0.412626 38.3262C0.818075 37.9279 1.22407 37.529 1.62951 37.1307H1.68303C2.02901 37.4984 2.375 37.8662 2.72098 38.234C2.92371 38.4423 3.12643 38.6507 3.3297 38.8596C3.85462 39.5157 4.37954 40.1718 4.90446 40.8273C5.46127 41.6118 5.88024 42.4646 6.37218 43.3284C6.68465 43.8773 6.95224 44.4607 7.21335 45.0757C7.28795 45.2512 7.50852 45.5396 7.46365 45.7929C7.41716 46.0551 7.19876 46.3296 7.0701 46.5284C6.49598 47.4162 5.73157 48.0829 5.10123 48.9012C3.96814 50.3723 2.85991 51.9101 1.86197 53.5179C1.34137 54.3562 0.667248 55.619 -0.0349903 56.2401V56.2951C0.870512 56.8812 1.16622 57.899 1.39706 59.2012C1.43382 59.4073 1.4922 59.7801 1.43274 59.9923V60.0107H4.31412C4.57037 59.4407 4.82715 58.8701 5.08393 58.3001C5.54344 57.3623 6.00295 56.424 6.46192 55.4862C6.65275 55.1734 6.84358 54.8607 7.03441 54.5484C7.1101 54.3357 6.81115 53.574 6.7479 53.3345C6.54626 52.5684 6.13108 50.8279 6.46138 49.9873C6.79007 49.1518 7.59772 48.9601 8.26914 48.479C8.28103 48.4851 8.29293 48.4912 8.30482 48.4973C7.93721 49.6745 8.72379 51.3479 9.05625 52.1573C9.78282 53.9262 10.4267 55.6873 11.1684 57.4173C11.556 58.2818 11.9441 59.1462 12.3317 60.0107H15.5353C15.1715 59.2629 14.8077 58.5146 14.4439 57.7668C13.6832 55.9951 12.9129 54.2768 12.1528 52.4512C11.9144 51.8257 11.6754 51.2007 11.437 50.5751C11.3241 50.2829 11.1354 49.9651 11.1327 49.5818C12.7912 47.9207 14.4498 46.2584 16.1084 44.5973V44.4868C15.3856 43.6623 14.772 42.7123 14.1395 41.8012C13.674 41.1451 13.2086 40.489 12.7437 39.8334C12.3263 39.1407 11.9084 38.4479 11.4911 37.7551C11.5538 37.2834 11.9187 37.014 12.1533 36.7068C12.768 35.9034 13.3821 35.1007 13.9968 34.2973C14.0838 34.0507 13.8519 33.7507 13.7643 33.5984C13.4259 33.0101 13.0507 32.5301 12.6545 32.0168C12.0474 31.2301 11.3376 30.4946 10.5786 29.8651C10.2088 29.4973 9.83904 29.1296 9.46873 28.7618C8.50755 27.9673 7.64421 27.0507 6.76628 26.1684V26.0951C7.34472 25.7762 7.9237 25.4573 8.50214 25.1384C9.63145 24.4612 10.83 23.9162 11.8668 23.1334C12.4631 22.6062 13.0599 22.079 13.6567 21.5518C13.6627 21.5212 13.6686 21.4907 13.6746 21.4596C12.8799 20.6129 11.896 19.8679 10.99 19.1423C10.3753 18.5846 9.76119 18.0262 9.14653 17.4684C8.58593 17.0146 8.02479 16.5612 7.46419 16.1073C7.61448 15.9112 8.45781 15.3546 8.77081 15.3534C10.158 16.6284 11.5841 17.8757 13.1199 18.9951C13.7422 19.4484 14.359 19.8868 14.9455 20.3746C15.1699 20.5612 15.2926 20.8496 15.4823 21.0734L15.8937 21.4962C15.9267 21.6973 14.8125 22.7051 14.6049 22.8757C13.107 24.1057 11.5706 25.4107 9.95148 26.499V26.554C10.7245 27.0418 11.3787 27.6873 12.0814 28.2462C12.8394 28.849 13.927 29.6679 14.5152 30.4168C15.1596 31.1462 15.804 31.8762 16.4478 32.6057C16.416 32.9473 15.9045 33.5579 15.7321 33.8562C15.3175 34.5734 15.0099 35.3668 14.6763 36.1551C14.5568 36.4251 14.4379 36.6945 14.3184 36.9646C15.7986 38.6129 17.1631 40.4046 18.4886 42.2062C19.0789 42.9601 19.6698 43.7146 20.2607 44.4684C18.7632 46.1173 17.2658 47.7668 15.7683 49.4162C15.5207 49.7312 14.3374 50.7696 14.2828 51.0718C14.7185 51.8845 15.0515 52.7795 15.464 53.6284C16.0543 54.8362 16.6452 56.044 17.236 57.2518C17.5345 57.8523 17.8329 58.4534 18.1307 59.054C18.2859 59.3729 18.441 59.6918 18.5962 60.0107H22.4977C22.4409 59.5984 21.7527 58.584 21.5311 58.2084C20.7737 56.774 20.0158 55.339 19.2579 53.9046C18.9876 53.4384 18.7643 52.9318 18.4881 52.4518C18.4097 52.3157 18.2778 52.1973 18.2556 52.0101C20.3256 49.5823 22.396 47.154 24.466 44.7268C24.4719 44.7023 24.4779 44.6779 24.4838 44.6534C22.6047 42.4712 20.7251 40.2879 18.8459 38.1057C18.3032 37.5112 17.7599 36.9162 17.2171 36.3218C17.2555 36.0529 17.4442 35.8612 17.5393 35.6412C17.8556 35.0095 18.1718 34.3784 18.4881 33.7468C19.4109 31.8851 20.4877 30.209 21.6203 28.5784C22.0047 28.0251 22.4215 27.5223 22.8193 26.9968C22.9507 26.8251 23.0821 26.6534 23.2129 26.4818C23.8946 26.5479 24.3903 27.1523 24.985 27.3462C25.0163 27.3979 25.0255 27.3929 25.0385 27.4751C23.807 29.2018 22.7026 31.0301 21.5841 32.864C21.2694 33.3801 20.9732 33.9168 20.6532 34.4457C20.5402 34.6323 20.3331 34.8468 20.2953 35.0896C20.558 35.3345 20.8202 35.5801 21.0829 35.8251C21.6495 36.4073 22.2166 36.9901 22.7831 37.5723C23.4189 38.3818 24.2454 39.0301 24.8769 39.8346C25.3661 40.3557 25.8553 40.8768 26.3446 41.3979C27.142 42.4129 28.1361 43.2896 29.0292 44.2118C28.9973 44.5373 28.6405 44.834 28.4745 45.0579C28.0869 45.5912 27.6988 46.1245 27.3112 46.6579C25.8678 48.7051 24.4238 50.7534 22.9799 52.8012C23.9584 54.6279 24.9369 56.4551 25.9148 58.2823C26.1181 58.6351 26.7981 59.6362 26.8457 60.0112H32.2506V59.9562C31.1878 58.3651 30.1585 56.7445 29.0827 55.174C28.6232 54.4934 28.1637 53.8129 27.7047 53.1323L27.7004 53.1301ZM1.65979 43.4923C1.86251 43.8784 2.06524 44.2651 2.2685 44.6512C2.21444 45.1112 1.59924 45.6734 1.35597 46.0123C0.716444 46.9023 -0.0690479 47.644 -0.737768 48.4951C-1.06591 48.8262 -1.39405 49.1573 -1.72219 49.4884H-1.77571C-2.35199 48.7751 -3.23695 47.6323 -3.97703 47.134V47.0973C-2.90935 46.0979 -1.84113 45.0984 -0.773445 44.0995C-0.816694 43.7795 -1.17727 43.5446 -1.34594 43.3273C-1.5584 43.0546 -2.11521 42.3857 -2.45579 42.2973C-3.67862 42.3157 -4.90199 42.334 -6.12483 42.3523C-6.59515 41.8712 -8.15532 40.5229 -7.35956 39.4279C-7.17846 39.1784 -6.966 39.2568 -6.6438 39.1334C-5.12689 39.1346 -3.85432 39.3662 -2.59905 39.6484C-2.03899 39.7746 -1.25674 39.7684 -0.845346 40.0712C-0.612888 40.3412 -0.37989 40.6107 -0.147432 40.8807C0.493717 41.7129 1.11649 42.5495 1.66033 43.4923H1.65979ZM11.9328 44.1362C12.0182 44.3023 12.3215 44.6868 12.2728 44.8718C12.169 45.0307 10.9516 45.4057 10.698 45.4973C10.5905 45.5362 10.2812 45.6746 10.1969 45.6262C9.66604 44.6023 9.13518 43.5784 8.60431 42.5546C7.98965 41.4979 7.38472 40.3951 6.67167 39.4279C6.20027 38.9129 5.72887 38.3979 5.25801 37.8829C4.80715 37.2973 3.99841 36.1934 3.39673 35.8229V35.7495C3.79569 35.2212 4.3325 34.8007 4.70335 34.2412H4.79309C5.48614 34.9234 6.21541 35.5801 6.79763 36.3745C7.06631 36.8034 7.33445 37.2329 7.60312 37.6618C8.02641 38.0662 8.45024 38.4712 8.87407 38.8757C9.61361 39.8357 10.1672 40.9618 10.7889 42.039C11.183 42.7223 11.5646 43.4173 11.9344 44.1357L11.9328 44.1362ZM22.5815 23.9968C22.0328 24.789 21.3781 25.4857 20.7916 26.2407C20.2601 26.9251 19.6509 27.5212 19.1449 28.2457C19.0135 28.4334 18.8103 28.5951 18.7513 28.8529C18.5465 29.7451 19.2579 31.0518 19.4493 31.7034C19.3 31.9729 19.1508 32.2429 19.0016 32.5129L18.9119 32.5312C18.041 31.3601 17.1695 30.189 16.2986 29.0184C16.2738 28.8112 16.6976 28.5073 16.7998 28.3745C17.2296 27.8157 17.7042 27.2946 18.1242 26.7379C19.3919 25.0568 20.8645 23.6162 21.9722 21.7534C22.262 21.2657 22.8518 20.4329 22.9923 19.859V19.804C22.7058 19.5773 22.4198 19.3501 22.1333 19.1234C21.3981 18.5657 20.6591 17.964 19.7887 17.5418V17.4684C20.0093 17.2662 20.2304 17.064 20.451 16.8612C21.0959 16.3268 21.9382 15.4368 22.3836 14.7096C22.8312 13.8879 23.2783 13.0662 23.7259 12.2451C24.0016 11.6918 24.306 11.0851 24.7639 10.7184C25.471 10.1523 26.5857 9.99177 27.2517 9.37566C27.808 8.86066 27.9848 7.90733 28.4864 7.334C28.7821 6.99622 29.167 6.98455 29.6141 6.78233H29.8466L29.8644 6.819C29.7449 6.96622 29.626 7.11344 29.5065 7.26066C29.2681 7.65289 29.0292 8.04566 28.7908 8.43789C28.594 8.78344 28.4972 9.31678 28.1999 9.55955C27.382 10.229 26.2229 10.4718 25.605 11.3434C24.6736 12.6568 24.0649 14.2812 23.1891 15.629C22.8691 16.1218 22.5274 16.6501 22.0436 16.9718V17.0268C22.4955 17.2407 22.9399 17.4301 23.3502 17.689C23.9762 18.084 24.5033 18.569 25.158 18.9579C25.0866 19.1173 25.0147 19.2768 24.9434 19.4362C24.6747 20.0884 24.4455 20.7018 24.12 21.2757C23.5929 22.2057 23.1702 23.1468 22.5809 23.9979L22.5815 23.9968Z" fill="white"/>
<path d="M25.3559 8.823C25.4575 8.74967 25.5586 8.67578 25.6603 8.60245C25.5846 8.51689 24.1682 8.05411 23.9958 8.05078C23.7698 8.24634 23.4206 8.44911 23.1011 8.52911C23.18 8.67523 23.6 8.70856 23.7633 8.768C24.4764 9.028 24.718 9.28523 25.3559 8.823Z" fill="white"/>
<path d="M59.7192 54.7305C58.9256 54.1849 58.132 53.6393 57.3389 53.0938C55.1095 51.4966 52.846 49.8977 50.5382 48.4038C49.8641 47.956 49.1899 47.5088 48.5158 47.061C48.1428 46.821 47.6103 46.6305 47.3346 46.2888C47.7698 44.8055 48.2055 43.3216 48.6412 41.8377C49.6565 38.5371 50.6074 35.2166 51.5945 31.8505C51.7913 31.1271 51.9881 30.4038 52.1854 29.6799C52.2449 29.0299 52.3049 28.3799 52.3643 27.7305C52.4119 27.1849 52.46 26.6393 52.5076 26.0938C52.3995 25.9127 50.6139 25.1193 50.2884 24.9721C48.6083 24.211 46.8762 23.4438 45.0982 22.7282C44.2629 22.446 43.4277 22.1643 42.5925 21.8821C42.5746 21.8638 42.5568 21.8455 42.539 21.8271C43.225 20.871 43.911 19.9143 44.597 18.9577C46.0107 16.996 47.4249 15.0338 48.8386 13.0721C49.3208 12.3982 49.7468 11.6649 50.2344 10.9755C50.4787 10.6505 50.7236 10.3255 50.968 10.0005C51.215 9.46878 50.7463 8.81823 50.6279 8.41878C50.3993 7.64878 50.4533 6.45156 50.6458 5.67823C50.8193 4.98045 51.0739 4.28323 51.3972 3.71045C51.5464 3.44045 51.6956 3.17101 51.8448 2.90101C51.9221 2.42267 52 1.94434 52.0773 1.46656C52.1789 1.11101 52.28 0.755451 52.3816 0.399896C52.3281 0.258785 52.2741 0.117674 52.2205 -0.0228819H50.6993C50.6582 0.247674 50.6193 0.583785 50.6993 0.859896C50.7528 1.04378 50.8674 1.14656 50.8782 1.3749C50.7528 1.53434 50.6274 1.69378 50.5025 1.85323V1.90823C50.735 1.84101 50.968 1.77323 51.2004 1.70601H51.2183C51.3577 2.21156 51.6016 2.2699 51.7551 2.64378C51.6372 2.78545 51.415 2.82212 51.2539 2.9199C50.9734 3.12212 50.6933 3.32434 50.4128 3.52712C49.564 4.21767 48.9818 5.35656 48.6229 6.54323C48.2974 7.62045 48.4299 9.24767 48.1396 10.3321C48.0585 10.6355 48.0136 11.136 47.7995 11.3071C47.4714 11.3193 47.1432 11.3316 46.8151 11.3438C45.8485 11.496 44.3413 11.5521 43.558 11.1966C43.379 11.806 43.1877 12.4382 43.0925 13.036V13.0543C43.2152 13.1143 43.3963 13.0799 43.558 13.0727L43.5758 13.1093C42.7893 15.3966 42.1508 17.7027 41.1599 19.7488C40.6707 20.7421 40.1814 21.7355 39.6922 22.7282C39.4484 23.1582 38.998 23.8882 38.9045 24.4021V24.4205C39.4116 24.6043 39.9187 24.7882 40.4258 24.9721C41.6308 25.3827 42.8363 25.7938 44.0407 26.2043C44.8457 26.4643 45.6842 26.6821 46.3318 27.1055C45.9501 28.3255 45.5679 29.5455 45.1863 30.7655C43.3347 29.7905 41.2642 28.9266 39.2446 28.0988C38.3358 27.726 37.4519 27.3743 36.5778 26.9955C36.1242 26.8055 35.6712 26.6154 35.2176 26.4255C35.282 25.8727 35.8745 24.8855 36.1123 24.4021C36.6951 23.2188 37.2433 22.0627 37.8844 20.9443C38.4996 19.8705 38.9624 18.6938 39.4592 17.5232C39.7095 16.9655 39.9603 16.4071 40.2106 15.8493C40.2047 15.5732 40.1987 15.2977 40.1928 15.0216C40.2522 14.7088 40.3122 14.396 40.3717 14.0838C40.6988 12.7488 41.2021 11.5538 41.6605 10.3499C41.8751 9.68156 42.0903 9.01323 42.3049 8.3449C42.746 7.19045 43.472 6.10545 44.3451 5.38378C44.7305 5.06545 45.0668 4.65101 45.562 4.44601C45.7015 4.22878 45.529 3.94878 45.4544 3.72878C45.2863 3.23212 44.9998 2.57212 45.1144 1.87101C45.1922 1.39434 45.303 1.00045 45.5079 0.657118C45.6393 0.473229 45.7707 0.28934 45.9015 0.105451L46.0091 -0.00510417C45.8063 -0.0112153 45.6036 -0.0173264 45.4004 -0.0234375C44.4094 0.677118 44.1316 2.04823 43.8969 3.5449C43.8791 3.85156 43.8613 4.15823 43.8434 4.46434C43.898 4.74545 44.0294 4.95934 44.0402 5.31045C43.3331 5.9699 41.9086 6.38767 41.3734 7.1499C41.2442 7.33378 41.2653 7.6649 41.1945 7.90378C41.0685 8.32878 40.6669 9.24101 40.3712 9.48545C40.1668 9.51323 39.9176 9.40323 39.6911 9.3749C38.9818 10.9682 38.452 12.7588 37.9374 14.5249C37.812 15.1193 37.6866 15.7143 37.5617 16.3088C37.2692 17.0443 36.9767 17.7805 36.6848 18.516C35.7193 20.7821 34.6565 22.9982 33.5888 25.1927C33.2726 25.8671 32.9563 26.5416 32.6401 27.216C32.5325 27.461 32.4255 27.7066 32.3179 27.9516C33.0217 28.3743 33.7256 28.7977 34.43 29.2205C35.8328 30.0849 37.3362 30.8271 38.8326 31.6116C39.5127 31.9671 40.1928 32.3227 40.8728 32.6782C40.955 32.876 40.5312 33.8738 40.4431 34.131C40.0073 35.4671 39.5722 36.8043 39.1364 38.1405C38.665 39.5688 38.1936 40.9977 37.7228 42.426C37.4363 43.0021 37.1503 43.5788 36.8638 44.1549C35.3966 47.2816 33.9283 50.4088 32.4611 53.5349C32.4752 53.8216 33.4245 54.9399 33.6245 55.2088C34.4538 56.3243 35.283 57.4405 36.1123 58.556C36.3302 58.8482 37.1189 59.6966 37.186 60.0088H39.7095L39.7273 59.9721C38.8029 58.9177 37.8779 57.8632 36.9535 56.8088C36.7373 56.5316 36.1091 55.9793 36.0226 55.6499C35.895 55.1632 36.5881 53.7666 36.7383 53.406C37.5319 51.4932 38.3255 49.5805 39.1186 47.6677C39.5722 46.4721 40.0252 45.2766 40.4787 44.081C40.6815 43.6027 40.8842 43.1243 41.0875 42.6466C41.6918 40.9005 42.0476 39.0738 42.573 37.2577C42.8114 36.3443 43.0504 35.4305 43.2888 34.5171C43.3963 34.0882 43.5034 33.6588 43.611 33.2299C43.3666 32.3349 43.1217 31.4393 42.8774 30.5443C42.6292 30.0966 42.0167 29.7627 41.8573 29.2571C43.2336 29.7338 44.5651 30.4549 45.7231 31.1882C46.3675 31.6171 47.0119 32.0466 47.6563 32.4755C47.7844 32.6993 47.6141 33.281 47.5487 33.5605C47.3189 34.5421 47.0589 35.526 46.7973 36.4666C46.1529 38.9616 45.5085 41.4571 44.8646 43.9521C44.5689 44.8188 44.0867 45.7099 43.7191 46.5821C43.6099 46.841 43.3731 47.146 43.3612 47.4649C43.6358 47.6793 43.9099 47.8943 44.1845 48.1088C44.9419 48.6943 45.6782 49.3021 46.4572 49.8743C48.4374 51.3882 50.4187 52.9032 52.3989 54.4171C53.1206 54.9566 53.8429 55.496 54.5646 56.0354C54.7792 56.1921 55.3652 56.501 55.4771 56.716C55.5403 56.9566 55.3133 57.4216 55.2446 57.6538C55.0419 58.4382 54.8392 59.2232 54.6359 60.0082H59.3608C59.7424 58.4388 60.1246 56.8693 60.5063 55.2999C60.3565 55.0443 59.956 54.901 59.7186 54.7299L59.7192 54.7305Z" fill="white"/>
</g>
</g>
<defs>
<clipPath id="clip0_176_24199">
<rect width="33" height="60" rx="4" fill="white"/>
</clipPath>
</defs>
</svg>
