<svg width="182" height="322" viewBox="0 0 182 322" fill="none" xmlns="http://www.w3.org/2000/svg">
<g clip-path="url(#clip0_174_5044)">
<rect x="182" y="7.95547e-06" width="322" height="182" rx="5" transform="rotate(90 182 7.95547e-06)" fill="#C0BABA"/>
<g clip-path="url(#clip1_174_5044)">
<g clip-path="url(#clip2_174_5044)">
<path d="M252 7.95547e-06H-70.0005V322H252V7.95547e-06Z" fill="#0003B0"/>
<mask id="mask0_174_5044" style="mask-type:luminance" maskUnits="userSpaceOnUse" x="-71" y="0" width="323" height="322">
<path d="M252 7.95547e-06H-70.0005V322H252V7.95547e-06Z" fill="white"/>
</mask>
<g mask="url(#mask0_174_5044)">
<path d="M126.806 24.7759C123.293 37.8827 134.938 50.208 136.308 63.7086C138.06 80.9649 122.263 95.6627 105.588 100.437C92.1106 104.297 76.7687 103.401 65.1519 95.5529C53.535 87.7049 46.8403 72.1479 51.5137 58.9284C56.2983 45.3941 70.9918 37.1743 75.5554 23.564C78.6275 14.4031 76.2477 3.63511 69.5998 -3.3801C68.1303 -4.93009 66.4691 -6.28103 64.6688 -7.41827C69.1959 -6.21516 73.4902 -4.31829 77.3 -1.5608C86.6058 5.17339 92.1062 17.8792 88.0885 28.6384C85.3339 36.0181 78.7607 41.4555 75.9096 48.7985C71.8055 59.3762 77.3893 72.7114 87.806 77.2062C98.2227 81.7011 111.756 76.6149 116.635 66.3724C123.996 50.9179 112.056 32.4351 115.874 15.7482C118.193 5.61541 126.188 -2.47265 135.349 -7.38315C144.512 -12.2936 154.841 -14.492 165.013 -16.6348L195.209 -19.0439C176.439 -12.6303 158.526 -3.71381 142.094 7.39665C135.557 11.8168 128.848 17.1562 126.805 24.7788L126.806 24.7759Z" fill="#0103A7"/>
<path d="M85.3838 -15.8908C94.8843 -3.37966 97.5481 14.0157 92.2248 28.7969C89.962 35.0788 86.3337 41.0402 85.8902 47.7012C85.4467 54.3637 89.9781 62.0961 96.6479 61.7888C100.603 61.6058 103.994 58.5819 105.68 54.9989C107.365 51.416 107.638 47.347 107.691 43.3879C107.843 32.1311 106.451 20.845 107.501 9.63646C108.55 -1.57207 112.464 -13.1348 121.157 -20.2861L85.3838 -15.8908Z" fill="#0103A7"/>
<path d="M25.4537 -13.897C33.6559 -13.0393 42.0675 -12.1216 49.4325 -8.41126C56.7975 -4.70094 63.0077 2.46795 63.1438 10.7141C63.3165 21.1205 54.4147 29.1296 46.2784 35.6193C38.142 42.1091 29.2489 50.1342 29.448 60.5406C29.5812 67.5163 33.8901 73.6504 35.8514 80.3466C37.8127 87.0427 35.8675 96.2519 29.025 97.6116C23.5232 98.705 18.5863 93.8998 15.9752 88.9352C7.09387 72.0522 12.8913 50.3289 25.3923 35.9194C29.1245 31.6177 33.4027 27.7786 36.7706 23.1857C40.1384 18.5928 42.5885 12.9739 41.924 7.31698C40.6975 -3.1246 29.6207 -9.58217 19.2655 -11.3985L25.4523 -13.8984L25.4537 -13.897Z" fill="#0103A7"/>
<path d="M-83.3021 48.5928C-75.6605 45.1679 -67.6442 42.0357 -59.2707 41.9142C-50.8972 41.7928 -42.0203 45.244 -37.7011 52.4188C-27.7864 68.8891 -46.5136 92.0921 -36.539 108.527C-33.4551 113.61 -27.7762 117.021 -21.8397 117.356C-15.9031 117.691 -9.87736 114.942 -6.24022 110.238C-4.55119 108.053 -2.76848 105.17 -0.0124512 105.356C1.98249 105.49 3.48272 107.342 4.04475 109.262C5.61231 114.615 1.55219 120.291 -3.52956 122.59C-8.60984 124.889 -14.4117 124.706 -19.9882 124.671C-25.5646 124.636 -31.4543 124.88 -36.173 127.852C-40.8918 130.823 -43.7518 137.456 -40.7952 142.184C-35.1163 151.267 -17.2365 143.82 -12.1606 153.253C-9.36801 158.445 -13.655 165.297 -19.3325 166.882C-25.0099 168.468 -31.0854 166.136 -35.9828 162.857C-49.8873 153.55 -57.7031 135.907 -55.2515 119.355C-53.9635 110.663 -50.1391 102.54 -48.3681 93.9319C-46.5956 85.3242 -47.3464 75.3217 -53.7338 69.2872C-61.5862 61.868 -74.715 63.6624 -83.7573 69.5726L-83.3007 48.5899L-83.3021 48.5928Z" fill="#0103A7"/>
<path d="M-6.98496 39.3149C-11.6393 44.1991 -19.5839 46.5584 -25.3141 42.9974C-28.9512 40.7361 -31.0881 36.5852 -34.7121 34.3019C-39.0284 31.584 -44.5141 32.0216 -49.6148 31.9352C-58.1376 31.7903 -66.6281 29.8949 -74.403 26.3998C-80.6922 23.572 -87.3166 18.019 -86.1018 11.2306C-85.3993 7.3081 -82.2071 4.34424 -78.9827 2.00096C-75.3983 -0.604317 -71.5372 -2.82904 -67.4902 -4.63517C-58.5723 -6.93308 -49.5358 -8.73921 -40.3617 -8.57674C-28.0306 -8.36013 -15.1945 -4.07899 -7.38893 5.46977C0.415176 15.0185 1.52316 30.3867 -6.98496 39.3149Z" fill="#0103A7"/>
<path d="M22.2423 21.8066C19.7015 24.7499 16.5898 27.1474 13.9816 30.0307C6.83611 37.9271 4.02593 48.7741 2.32811 59.2859C0.630297 69.7992 -0.246424 80.6228 -4.44852 90.4072C-7.36848 97.2043 -13.4543 104.054 -20.7695 102.958C-27.8272 101.898 -31.8273 93.4062 -30.3373 86.4261C-28.8459 79.4475 -22.782 74.7448 -17.8174 69.6192C-6.18586 57.613 8.07289 27.9817 10.3327 16.4541C10.8626 13.7507 11.3266 10.9786 12.6233 8.55042C13.9216 6.12078 16.2502 4.04681 18.9989 3.86825C22.8776 3.61796 26.1649 7.39268 26.4708 11.2684C26.7738 15.1426 24.7832 18.8647 22.2438 21.8066H22.2423Z" fill="#0103A7"/>
<path d="M260.998 18.2354C246.684 28.2818 227.528 27.1035 210.236 24.4939C192.944 21.8827 174.698 18.3481 158.435 24.7807C149.757 28.213 141.608 35.6014 141.358 44.9306C141.163 52.1522 145.672 58.6054 150.434 64.0384C155.193 69.4714 160.572 74.7625 162.785 81.6386C165.834 91.1113 162.191 101.392 157.651 110.247C154.463 116.464 150.761 122.569 149.339 129.409C147.916 136.25 149.299 144.215 154.776 148.552C160.4 153.006 169.016 152.262 174.793 148.009C180.57 143.757 183.768 136.705 184.866 129.615C185.963 122.527 185.198 115.296 184.431 108.164C182.998 94.8523 181.214 80.6829 172.609 70.4272C169.44 66.6495 165.486 63.6022 162.216 59.9124C158.946 56.2226 156.301 51.5609 156.617 46.6416C157.168 38.0969 166.595 32.4546 175.156 32.5995C188.771 32.8293 201.049 45.1209 201.266 58.7371C201.376 65.663 198.857 73.0237 201.866 79.2646C204.85 85.4573 212.262 88.143 219.097 88.869C238.47 90.9269 258.621 81.0927 268.918 64.5551L260.998 18.2354ZM236.14 74.4566C234.793 75.6977 232.902 76.1163 231.103 76.4617C227.594 77.1365 223.939 77.7146 220.477 76.8189C219.677 76.611 218.873 76.3125 218.261 75.7548C217.65 75.1972 217.263 74.3336 217.459 73.5301C217.625 72.8466 218.165 72.3211 218.72 71.8879C220.425 70.5545 227.425 67.8761 233.965 68.4835C234.956 68.5757 235.986 68.8684 236.69 69.5724C237.985 70.8663 237.486 73.2154 236.14 74.4566Z" fill="#0103A7"/>
<path d="M248.639 -7.3662C235.894 -3.02945 222.12 -3.35145 208.663 -2.97822C195.206 -2.60353 181.193 -1.30821 169.708 5.71724C168.64 6.37003 167.469 7.33456 167.614 8.57865C167.724 9.52124 168.567 10.1901 169.379 10.679C174.26 13.6165 180.292 13.9414 185.956 13.3296C191.62 12.7178 197.181 11.2542 202.868 10.9088C209.223 10.5224 215.568 11.5425 221.881 12.3695C228.194 13.1964 234.635 13.8316 240.9 12.6871C247.164 11.5425 253.313 8.39716 256.789 3.06221L248.641 -7.3662H248.639Z" fill="#0103A7"/>
<path d="M268.411 106.104C259.435 103.773 250.056 101.428 240.993 103.395C231.93 105.362 223.391 113.092 223.825 122.355C224.076 127.751 227.217 133.269 225.184 138.275C223.116 143.367 216.119 145.093 211.155 142.735C206.191 140.375 203.198 135.071 201.999 129.707C200.8 124.343 201.086 118.778 200.897 113.285C200.263 94.7699 188.634 57.9653 188.634 57.9653C186.902 53.7486 184.331 49.5597 180.233 47.5647C176.134 45.5683 170.283 46.7202 168.458 50.8989C166.94 54.375 168.668 58.5054 171.292 61.2439C173.916 63.9823 177.34 65.8031 180.246 68.2415C188.062 74.7986 191.503 85.2797 192.575 95.4242C193.646 105.57 192.722 115.837 193.625 126C194.529 136.162 197.593 146.697 205.075 153.632C212.558 160.568 225.319 162.438 232.866 155.572C241.078 148.102 240.036 134.442 247.028 125.818C252.174 119.473 261.592 117.011 269.184 120.029L268.413 106.103L268.411 106.104Z" fill="#0103A7"/>
<path d="M24.5152 252.339C-4.67702 255.649 -33.4829 262.004 -61.7559 269.988C-65.6229 271.081 -69.6098 272.224 -73.5997 271.743C-77.591 271.263 -81.6277 268.71 -82.5249 264.792C-83.4631 260.697 -80.65 256.486 -76.9851 254.428C-73.3216 252.372 -68.9892 251.972 -64.8047 251.597C-42.7433 249.626 -20.7273 247.157 1.22289 244.194C7.55312 243.339 15.0264 241.566 17.2307 235.569C19.6003 229.122 13.6096 222.159 6.94863 220.477C0.287628 218.794 -6.67489 220.627 -13.4749 221.606C-22.4734 222.903 -31.6884 222.686 -40.6152 220.965C-45.2578 220.071 -49.9488 218.711 -53.6869 215.819C-57.425 212.927 -60.0537 208.221 -59.3687 203.543C-58.4554 197.308 -52.3682 193.305 -46.6556 190.644C-37.4801 186.373 -27.6971 183.408 -17.6931 181.868C-11.1639 180.863 -4.48969 180.45 1.79956 178.426C8.08881 176.402 14.1409 172.441 16.8004 166.392C19.4598 160.344 17.5776 152.11 11.6367 149.216C7.41554 147.161 2.39965 148.106 -2.22984 147.329C-6.86078 146.551 -11.8049 142.205 -9.9754 137.88C-8.61275 134.66 -4.39455 133.818 -0.922806 134.231C0.593521 134.411 2.1201 134.742 3.64082 134.981C8.51619 135.748 13.4062 133.4 15.7451 129.056C16.6218 127.427 17.0755 125.657 16.8911 123.946C16.6072 121.326 15.3192 118.933 14.5918 116.401C13.8643 113.869 13.8219 110.828 15.6587 108.938C17.2775 107.274 19.9999 107.027 22.1324 107.946C24.2635 108.865 25.85 110.757 26.9039 112.826C29.9643 118.824 28.7027 126.734 23.9283 131.483C18.6211 136.76 10.5389 137.662 3.19294 139.099C1.77614 139.376 0.126625 139.888 -0.305145 141.267C-0.924263 143.244 1.49073 144.802 3.52665 145.189C8.09905 146.059 12.9042 144.87 17.4502 145.863C31.7119 148.976 29.7228 163.242 24.2986 170.491C20.1594 176.022 14.258 180.044 7.70533 182.238C1.1541 184.431 -5.75866 185.264 -12.5499 186.527C-21.484 188.188 -30.276 190.613 -38.7988 193.766C-42.8882 195.279 -47.4503 197.564 -48.3666 201.829C-49.1569 205.512 -46.6673 209.291 -43.3727 211.118C-40.078 212.943 -36.1642 213.218 -32.3968 213.246C-22.4178 213.319 -12.4811 211.942 -2.505 211.678C7.47261 211.416 17.743 212.345 26.7092 216.729C35.6754 221.111 43.7825 226.347 43.7825 236.327C43.7825 246.98 36.337 251 24.5152 252.339Z" fill="#0103A7"/>
<path d="M136.093 112.749C126.901 126.319 109.973 134.232 93.6651 132.579C85.3882 131.741 76.3722 128.793 69.2268 133.055C61.8134 137.477 60.3161 148.309 64.1392 156.049C67.9607 163.789 75.677 168.853 83.5543 172.383C91.4301 175.913 99.8416 178.314 107.281 182.69C111.937 185.43 116.287 189.093 118.502 194.018C120.717 198.945 120.331 205.305 116.507 209.117C113.02 212.593 107.473 213.271 102.699 212.072C97.9228 210.875 93.7236 208.093 89.6298 205.357C81.2798 199.779 72.9298 194.201 64.5797 188.623C54.0752 181.605 42.893 173.727 38.9236 161.732C34.963 149.76 39.3261 136.486 46.132 125.869C50.0399 119.774 55.1583 113.915 62.0915 111.826C70.8982 109.176 80.1513 113.177 89.2551 114.493C97.5232 115.689 109.608 120.753 127.408 100.681C129.031 98.8513 131.516 97.5794 133.953 97.7917C136.999 98.0566 139.156 101.237 139.232 104.293C139.309 107.349 137.807 110.218 136.093 112.749Z" fill="#0103A7"/>
<path d="M258.516 200.714C252.5 203.091 245.712 201.519 239.519 199.653C233.325 197.786 226.863 195.622 220.525 196.91C210.144 199.022 203.809 209.407 194.833 215.032C182.991 222.454 166.034 220.286 156.439 210.124C146.302 199.387 144.447 181.974 132.467 173.338C120.386 164.631 103.351 168.589 89.3339 163.561C85.6236 162.231 81.7815 159.795 81.0058 155.931C80.0676 151.264 84.2712 146.882 88.8567 145.604C93.4423 144.328 98.306 145.218 103.054 145.578C106.406 145.832 109.778 145.812 113.127 145.524C115.77 145.297 118.371 144.74 120.913 143.976C122.741 143.428 124.634 143.059 126.525 142.895C133.037 142.327 139.525 144.168 143.292 149.349C147.167 154.674 147.06 161.792 148.548 168.208C150.037 174.624 154.947 181.557 161.477 180.699C165.677 180.146 168.777 176.49 170.755 172.743C172.733 168.996 174.083 164.832 176.893 161.66C179.702 158.487 184.691 156.628 188.22 158.973C192.112 161.559 191.887 167.522 189.709 171.655C187.531 175.789 183.942 179.091 182.042 183.359C180.142 187.626 180.798 193.752 185.123 195.52C189.243 197.203 193.558 194.005 197.238 191.501C212.6 181.05 232.448 180.706 251.028 180.731C256.027 180.739 261.794 181.112 264.768 185.131C268.616 190.33 264.533 198.336 258.517 200.713L258.516 200.714Z" fill="#0103A7"/>
<path d="M109.213 245.913C107.663 250.225 103.25 253 98.742 253.841C94.2369 254.684 89.6016 253.917 85.095 253.076C77.5793 251.675 69.3434 249.576 65.0945 243.22C61.0095 237.112 61.9154 228.945 59.1477 222.139C54.5768 210.894 41.2957 205.993 29.2266 204.688C17.1589 203.381 4.48381 204.291 -6.59152 199.322C-7.85903 198.754 -9.28169 197.818 -9.23778 196.427C-9.18509 194.713 -7.05842 193.993 -5.35914 193.743C-3.9965 193.542 -2.63385 193.353 -1.26828 193.172C26.3681 189.52 54.4026 197.427 75.6956 215.416C78.9068 218.131 82.4503 220.444 86.2499 222.256C91.7561 224.882 97.7906 226.543 102.713 230.146C107.637 233.748 111.277 240.172 109.213 245.913Z" fill="#0103A7"/>
<path d="M94.4057 331.717C104.726 329.868 115.21 327.967 124.586 323.278C133.962 318.587 142.248 310.632 144.81 300.467C147.817 288.547 142.821 274.912 148.809 264.178C152.878 256.881 161.941 252.754 170.117 254.474C178.291 256.193 184.924 263.621 185.709 271.939C186.463 279.92 182.366 288.077 184.529 295.796C187.155 305.165 197.646 309.713 207.104 312C229.195 317.343 252.587 317.223 274.622 311.654L274.557 306.755C254.595 308.284 233.867 309.711 215.156 302.591C209.246 300.341 203.277 296.88 200.667 291.119C196.064 280.958 203.823 269.267 202.5 258.191C201.351 248.58 193.428 241.001 184.708 236.799C174.876 232.061 163.325 230.616 152.85 233.677C142.375 236.737 133.182 244.502 129.22 254.671C123.534 269.267 128.795 286.476 122.767 300.934C116.366 316.282 99.3982 323.966 83.6758 329.38L94.4072 331.718L94.4057 331.717Z" fill="#0103A7"/>
<path d="M140.411 330.003C149.634 324.502 155.657 314 155.748 303.26C155.788 298.614 154.8 294.017 154.661 289.374C154.522 284.732 155.379 279.771 158.516 276.346C161.752 272.815 167.245 271.571 171.687 273.365C176.128 275.158 179.218 279.869 179.093 284.657C178.961 289.731 175.68 294.08 173.16 298.485C170.639 302.891 168.84 308.586 171.579 312.86C173.83 316.371 178.395 317.612 182.565 317.726C186.919 317.845 191.249 317.053 195.604 316.945C199.959 316.835 204.555 317.504 208.009 320.158C211.464 322.811 213.319 327.888 211.245 331.719L140.411 330.005V330.003Z" fill="#0103A7"/>
<path d="M-78.6095 279.484C-61.4806 284.837 -42.8295 281.46 -25.7649 275.904C-8.70039 270.348 7.73918 262.642 25.3394 259.131C30.2689 258.147 35.4034 257.506 40.2905 258.683C45.1775 259.86 49.8055 263.178 51.3233 267.97C53.3607 274.401 49.2962 281.341 43.9803 285.495C38.6644 289.648 32.1512 291.963 26.4942 295.637C20.8358 299.31 15.7541 305.159 16.06 311.899C16.2019 315.018 17.487 317.966 18.0183 321.041C18.5511 324.118 18.1017 327.734 15.5901 329.59C13.5337 331.109 10.5596 330.966 8.34367 329.693C6.12772 328.419 4.5909 326.196 3.60148 323.84C0.360985 316.116 2.60036 306.879 7.62063 300.174C12.6409 293.469 20.0527 288.952 27.6856 285.504C30.7461 284.122 33.9719 282.815 36.264 280.362C38.556 277.909 39.5981 273.899 37.6398 271.172C35.2936 267.907 30.2631 268.255 26.5923 269.894C12.3379 276.263 6.12772 295.429 -8.97555 299.385C-17.2539 301.553 -25.8601 298.419 -34.0901 296.074C-54.8854 290.153 -77.0742 289.188 -98.3057 293.283L-78.6051 279.484H-78.6095Z" fill="#0103A7"/>
<path d="M46.5726 332.749C42.0499 327.902 37.5273 323.054 33.0046 318.205C31.8147 316.93 30.5633 315.524 30.3818 313.789C30.0627 310.749 33.0632 308.479 35.8119 307.143C41.0181 304.612 46.6296 302.985 51.7963 300.377C56.9629 297.767 61.8427 293.916 63.9488 288.524C65.613 284.263 65.4344 279.332 67.7821 275.405C69.8663 271.918 73.6045 269.8 77.2635 268.033C81.3529 266.057 85.6502 264.298 90.1787 263.974C94.7072 263.651 99.5459 264.958 102.603 268.316C106.596 272.702 106.653 279.621 104.272 285.054C101.891 290.487 97.5144 294.755 93.1689 298.791C88.8233 302.828 84.3139 306.896 81.5301 312.134C78.4857 317.864 77.5709 324.869 73.0366 329.51C69.1726 333.465 63.2931 334.905 57.7738 334.571C52.2544 334.238 46.9648 332.344 41.7645 330.469L46.5726 332.749Z" fill="#0103A7"/>
<path d="M161.475 225.784C159.929 227.347 157.374 226.913 155.192 226.653C151.186 226.173 147.065 226.685 143.298 228.13C138.639 229.915 134.566 233.078 129.795 234.54C125.025 236.003 118.844 235.069 116.622 230.6C114.886 227.105 116.254 222.805 118.517 219.625C120.779 216.444 123.859 213.912 126.094 210.714C128.709 206.973 130.033 202.365 129.891 197.809C129.778 194.198 133.729 191.834 136.76 193.799C136.833 193.847 136.906 193.897 136.978 193.948C140.478 196.455 140.27 201.584 141.439 205.726C142.869 210.796 146.989 215.02 152.021 216.577C154.599 217.375 157.428 217.537 159.717 218.964C162.006 220.392 163.37 223.865 161.475 225.784Z" fill="#0103A7"/>
</g>
</g>
</g>
</g>
<defs>
<clipPath id="clip0_174_5044">
<rect x="182" y="7.95547e-06" width="322" height="182" rx="5" transform="rotate(90 182 7.95547e-06)" fill="white"/>
</clipPath>
<clipPath id="clip1_174_5044">
<rect width="182" height="322" fill="white"/>
</clipPath>
<clipPath id="clip2_174_5044">
<rect width="182" height="322" fill="white" transform="translate(-0.000488281 7.95547e-06)"/>
</clipPath>
</defs>
</svg>
