<svg width="182" height="322" viewBox="0 0 182 322" fill="none" xmlns="http://www.w3.org/2000/svg">
<g clip-path="url(#clip0_174_5082)">
<rect x="182" y="7.95547e-06" width="322" height="182" rx="5" transform="rotate(90 182 7.95547e-06)" fill="#C0BABA"/>
<g clip-path="url(#clip1_174_5082)">
<g clip-path="url(#clip2_174_5082)">
<path d="M252 7.95547e-06H-70V322H252V7.95547e-06Z" fill="#3F3F3F"/>
<mask id="mask0_174_5082" style="mask-type:luminance" maskUnits="userSpaceOnUse" x="-70" y="0" width="322" height="322">
<path d="M252 7.95547e-06H-70V322H252V7.95547e-06Z" fill="white"/>
</mask>
<g mask="url(#mask0_174_5082)">
<path d="M126.807 24.7759C123.294 37.8827 134.939 50.208 136.308 63.7086C138.06 80.9649 122.263 95.6627 105.588 100.437C92.1111 104.297 76.7692 103.401 65.1523 95.5529C53.5355 87.7049 46.8408 72.1479 51.5142 58.9284C56.2988 45.3941 70.9922 37.1743 75.5559 23.564C78.628 14.4031 76.2482 3.63511 69.6003 -3.3801C68.1308 -4.93009 66.4696 -6.28103 64.6693 -7.41827C69.1964 -6.21516 73.4907 -4.31829 77.3005 -1.5608C86.6063 5.17339 92.1067 17.8792 88.089 28.6384C85.3344 36.0181 78.7612 41.4555 75.9101 48.7985C71.806 59.3762 77.3898 72.7114 87.8065 77.2062C98.2232 81.7011 111.756 76.6149 116.636 66.3724C123.996 50.9179 112.056 32.4351 115.875 15.7482C118.193 5.61541 126.189 -2.47265 135.35 -7.38315C144.512 -12.2936 154.841 -14.492 165.013 -16.6348L195.21 -19.0439C176.44 -12.6303 158.526 -3.71381 142.094 7.39665C135.558 11.8168 128.848 17.1562 126.805 24.7788L126.807 24.7759Z" fill="#3D3D3D"/>
<path d="M85.3843 -15.8908C94.8847 -3.37966 97.5486 14.0157 92.2253 28.7969C89.9625 35.0788 86.3342 41.0402 85.8907 47.7012C85.4472 54.3637 89.9786 62.0961 96.6484 61.7888C100.603 61.6058 103.994 58.5819 105.681 54.9989C107.365 51.416 107.639 47.347 107.692 43.3879C107.844 32.1311 106.452 20.845 107.501 9.63646C108.551 -1.57207 112.464 -13.1348 121.157 -20.2861L85.3843 -15.8908Z" fill="#3D3D3D"/>
<path d="M25.4542 -13.897C33.6564 -13.0393 42.068 -12.1216 49.433 -8.41126C56.798 -4.70094 63.0082 2.46795 63.1443 10.7141C63.317 21.1205 54.4152 29.1296 46.2788 35.6193C38.1425 42.1091 29.2494 50.1342 29.4485 60.5406C29.5817 67.5163 33.8906 73.6504 35.8519 80.3466C37.8132 87.0427 35.868 96.2519 29.0255 97.6116C23.5237 98.705 18.5868 93.8998 15.9757 88.9352C7.09436 72.0522 12.8918 50.3289 25.3927 35.9194C29.125 31.6177 33.4032 27.7786 36.7711 23.1857C40.1389 18.5928 42.589 12.9739 41.9245 7.31698C40.698 -3.1246 29.6212 -9.58217 19.266 -11.3985L25.4528 -13.8984L25.4542 -13.897Z" fill="#3D3D3D"/>
<path d="M-83.3016 48.5928C-75.66 45.1679 -67.6437 42.0357 -59.2702 41.9142C-50.8967 41.7928 -42.0198 45.244 -37.7006 52.4188C-27.7859 68.8891 -46.5131 92.0921 -36.5385 108.527C-33.4546 113.61 -27.7757 117.021 -21.8392 117.356C-15.9027 117.691 -9.87687 114.942 -6.23973 110.238C-4.5507 108.053 -2.76799 105.17 -0.0119629 105.356C1.98298 105.49 3.48321 107.342 4.04524 109.262C5.6128 114.615 1.55267 120.291 -3.52908 122.59C-8.60935 124.889 -14.4112 124.706 -19.9877 124.671C-25.5641 124.636 -31.4538 124.88 -36.1726 127.852C-40.8913 130.823 -43.7513 137.456 -40.7947 142.184C-35.1158 151.267 -17.236 143.82 -12.1601 153.253C-9.36752 158.445 -13.6545 165.297 -19.332 166.882C-25.0094 168.468 -31.085 166.136 -35.9823 162.857C-49.8868 153.55 -57.7026 135.907 -55.2511 119.355C-53.9631 110.663 -50.1386 102.54 -48.3676 93.9319C-46.5951 85.3242 -47.346 75.3217 -53.7333 69.2872C-61.5857 61.868 -74.7145 63.6624 -83.7568 69.5726L-83.3002 48.5899L-83.3016 48.5928Z" fill="#3D3D3D"/>
<path d="M-6.98447 39.3149C-11.6388 44.1991 -19.5835 46.5584 -25.3136 42.9974C-28.9507 40.7361 -31.0876 36.5852 -34.7116 34.3019C-39.0279 31.584 -44.5136 32.0216 -49.6143 31.9352C-58.1371 31.7903 -66.6277 29.8949 -74.4025 26.3998C-80.6917 23.572 -87.3162 18.019 -86.1013 11.2306C-85.3988 7.3081 -82.2066 4.34424 -78.9822 2.00096C-75.3978 -0.604317 -71.5367 -2.82904 -67.4897 -4.63517C-58.5718 -6.93308 -49.5353 -8.73921 -40.3612 -8.57674C-28.0301 -8.36013 -15.194 -4.07899 -7.38844 5.46977C0.415665 15.0185 1.52364 30.3867 -6.98447 39.3149Z" fill="#3D3D3D"/>
<path d="M22.2428 21.8066C19.702 24.7499 16.5903 27.1474 13.9821 30.0307C6.8366 37.9271 4.02642 48.7741 2.3286 59.2859C0.630785 69.7992 -0.245935 80.6228 -4.44804 90.4072C-7.36799 97.2043 -13.4538 104.054 -20.769 102.958C-27.8267 101.898 -31.8268 93.4062 -30.3368 86.4261C-28.8454 79.4475 -22.7815 74.7448 -17.8169 69.6192C-6.18537 57.613 8.07338 27.9817 10.3332 16.4541C10.8631 13.7507 11.327 10.9786 12.6238 8.55042C13.9221 6.12078 16.2507 4.04681 18.9994 3.86825C22.8781 3.61796 26.1654 7.39268 26.4713 11.2684C26.7743 15.1426 24.7837 18.8647 22.2443 21.8066H22.2428Z" fill="#3D3D3D"/>
<path d="M260.999 18.2354C246.684 28.2818 227.528 27.1035 210.237 24.4939C192.944 21.8827 174.698 18.3481 158.436 24.7807C149.758 28.213 141.608 35.6014 141.358 44.9306C141.163 52.1522 145.673 58.6054 150.434 64.0384C155.194 69.4714 160.573 74.7625 162.786 81.6386C165.835 91.1113 162.192 101.392 157.651 110.247C154.464 116.464 150.762 122.569 149.339 129.409C147.917 136.25 149.3 144.215 154.777 148.552C160.4 153.006 169.016 152.262 174.793 148.009C180.57 143.757 183.768 136.705 184.866 129.615C185.964 122.527 185.198 115.296 184.431 108.164C182.999 94.8523 181.214 80.6829 172.61 70.4272C169.441 66.6495 165.486 63.6022 162.216 59.9124C158.947 56.2226 156.302 51.5609 156.618 46.6416C157.168 38.0969 166.596 32.4546 175.156 32.5995C188.771 32.8293 201.05 45.1209 201.266 58.7371C201.376 65.663 198.857 73.0237 201.866 79.2646C204.851 85.4573 212.263 88.143 219.098 88.869C238.47 90.9269 258.622 81.0927 268.918 64.5551L260.999 18.2354ZM236.14 74.4566C234.794 75.6977 232.903 76.1163 231.104 76.4617C227.594 77.1365 223.939 77.7146 220.478 76.8189C219.677 76.611 218.874 76.3125 218.262 75.7548C217.65 75.1972 217.264 74.3336 217.46 73.5301C217.625 72.8466 218.165 72.3211 218.72 71.8879C220.425 70.5545 227.426 67.8761 233.965 68.4835C234.956 68.5757 235.987 68.8684 236.691 69.5724C237.986 70.8663 237.487 73.2154 236.14 74.4566Z" fill="#3D3D3D"/>
<path d="M248.64 -7.3662C235.894 -3.02945 222.12 -3.35145 208.663 -2.97822C195.207 -2.60353 181.194 -1.30821 169.709 5.71724C168.64 6.37003 167.469 7.33456 167.614 8.57865C167.724 9.52124 168.567 10.1901 169.379 10.679C174.261 13.6165 180.292 13.9414 185.957 13.3296C191.621 12.7178 197.181 11.2542 202.869 10.9088C209.224 10.5224 215.569 11.5425 221.882 12.3695C228.194 13.1964 234.636 13.8316 240.9 12.6871C247.164 11.5425 253.313 8.39716 256.789 3.06221L248.641 -7.3662H248.64Z" fill="#3D3D3D"/>
<path d="M268.412 106.104C259.435 103.773 250.056 101.428 240.994 103.395C231.931 105.362 223.392 113.092 223.825 122.355C224.077 127.751 227.218 133.269 225.185 138.275C223.117 143.367 216.119 145.093 211.156 142.735C206.191 140.375 203.198 135.071 201.999 129.707C200.801 124.343 201.086 118.778 200.897 113.285C200.264 94.7699 188.635 57.9653 188.635 57.9653C186.902 53.7486 184.332 49.5597 180.234 47.5647C176.134 45.5683 170.284 46.7202 168.459 50.8989C166.941 54.375 168.668 58.5054 171.292 61.2439C173.917 63.9823 177.34 65.8031 180.247 68.2415C188.063 74.7986 191.504 85.2797 192.575 95.4242C193.646 105.57 192.723 115.837 193.626 126C194.529 136.162 197.594 146.697 205.076 153.632C212.558 160.568 225.32 162.438 232.866 155.572C241.079 148.102 240.036 134.442 247.028 125.818C252.174 119.473 261.593 117.011 269.185 120.029L268.413 106.103L268.412 106.104Z" fill="#3D3D3D"/>
<path d="M24.5157 252.339C-4.67654 255.649 -33.4824 262.004 -61.7554 269.988C-65.6224 271.081 -69.6093 272.224 -73.5992 271.743C-77.5905 271.263 -81.6272 268.71 -82.5244 264.792C-83.4626 260.697 -80.6495 256.486 -76.9846 254.428C-73.3211 252.372 -68.9887 251.972 -64.8042 251.597C-42.7428 249.626 -20.7268 247.157 1.22338 244.194C7.5536 243.339 15.0269 241.566 17.2312 235.569C19.6008 229.122 13.6101 222.159 6.94912 220.477C0.288116 218.794 -6.6744 220.627 -13.4745 221.606C-22.4729 222.903 -31.688 222.686 -40.6147 220.965C-45.2573 220.071 -49.9483 218.711 -53.6864 215.819C-57.4245 212.927 -60.0532 208.221 -59.3682 203.543C-58.4549 197.308 -52.3677 193.305 -46.6551 190.644C-37.4796 186.373 -27.6966 183.408 -17.6927 181.868C-11.1634 180.863 -4.4892 180.45 1.80005 178.426C8.08929 176.402 14.1414 172.441 16.8009 166.392C19.4603 160.344 17.5781 152.11 11.6372 149.216C7.41603 147.161 2.40014 148.106 -2.22935 147.329C-6.86029 146.551 -11.8045 142.205 -9.97491 137.88C-8.61226 134.66 -4.39407 133.818 -0.922318 134.231C0.594009 134.411 2.12059 134.742 3.64131 134.981C8.51668 135.748 13.4067 133.4 15.7456 129.056C16.6223 127.427 17.076 125.657 16.8916 123.946C16.6077 121.326 15.3197 118.933 14.5922 116.401C13.8648 113.869 13.8224 110.828 15.6592 108.938C17.278 107.274 20.0004 107.027 22.1329 107.946C24.2639 108.865 25.8505 110.757 26.9043 112.826C29.9648 118.824 28.7032 126.734 23.9288 131.483C18.6216 136.76 10.5394 137.662 3.19343 139.099C1.77663 139.376 0.127113 139.888 -0.304657 141.267C-0.923775 143.244 1.49122 144.802 3.52714 145.189C8.09954 146.059 12.9047 144.87 17.4507 145.863C31.7124 148.976 29.7233 163.242 24.2991 170.491C20.1599 176.022 14.2585 180.044 7.70582 182.238C1.15459 184.431 -5.75817 185.264 -12.5494 186.527C-21.4835 188.188 -30.2755 190.613 -38.7983 193.766C-42.8877 195.279 -47.4499 197.564 -48.3661 201.829C-49.1565 205.512 -46.6668 209.291 -43.3722 211.118C-40.0775 212.943 -36.1637 213.218 -32.3964 213.246C-22.4173 213.319 -12.4807 211.942 -2.50451 211.678C7.4731 211.416 17.7434 212.345 26.7097 216.729C35.6759 221.111 43.783 226.347 43.783 236.327C43.783 246.98 36.3375 251 24.5157 252.339Z" fill="#3D3D3D"/>
<path d="M136.093 112.749C126.902 126.319 109.973 134.232 93.6656 132.579C85.3887 131.741 76.3727 128.793 69.2272 133.055C61.8139 137.477 60.3166 148.309 64.1396 156.049C67.9612 163.789 75.6775 168.853 83.5548 172.383C91.4306 175.913 99.8421 178.314 107.282 182.69C111.938 185.43 116.288 189.093 118.502 194.018C120.718 198.945 120.332 205.305 116.507 209.117C113.021 212.593 107.474 213.271 102.699 212.072C97.9233 210.875 93.7241 208.093 89.6303 205.357C81.2803 199.779 72.9302 194.201 64.5802 188.623C54.0757 181.605 42.8935 173.727 38.9241 161.732C34.9635 149.76 39.3266 136.486 46.1325 125.869C50.0404 119.774 55.1588 113.915 62.092 111.826C70.8987 109.176 80.1518 113.177 89.2556 114.493C97.5237 115.689 109.609 120.753 127.408 100.681C129.031 98.8513 131.517 97.5794 133.954 97.7917C136.999 98.0566 139.157 101.237 139.233 104.293C139.309 107.349 137.807 110.218 136.093 112.749Z" fill="#3D3D3D"/>
<path d="M258.516 200.714C252.501 203.091 245.712 201.519 239.52 199.653C233.325 197.786 226.864 195.622 220.526 196.91C210.144 199.022 203.81 209.407 194.833 215.032C182.991 222.454 166.035 220.286 156.439 210.124C146.302 199.387 144.448 181.974 132.468 173.338C120.387 164.631 103.352 168.589 89.3344 163.561C85.6241 162.231 81.782 159.795 81.0063 155.931C80.0681 151.264 84.2717 146.882 88.8572 145.604C93.4428 144.328 98.3065 145.218 103.055 145.578C106.406 145.832 109.778 145.812 113.127 145.524C115.771 145.297 118.371 144.74 120.914 143.976C122.742 143.428 124.634 143.059 126.525 142.895C133.037 142.327 139.525 144.168 143.293 149.349C147.167 154.674 147.06 161.792 148.549 168.208C150.037 174.624 154.948 181.557 161.477 180.699C165.678 180.146 168.778 176.49 170.755 172.743C172.734 168.996 174.083 164.832 176.893 161.66C179.702 158.487 184.692 156.628 188.221 158.973C192.112 161.559 191.887 167.522 189.709 171.655C187.531 175.789 183.942 179.091 182.043 183.359C180.143 187.626 180.798 193.752 185.124 195.52C189.244 197.203 193.558 194.005 197.238 191.501C212.6 181.05 232.449 180.706 251.028 180.731C256.028 180.739 261.795 181.112 264.769 185.131C268.617 190.33 264.533 198.336 258.518 200.713L258.516 200.714Z" fill="#3D3D3D"/>
<path d="M109.213 245.913C107.663 250.225 103.25 253 98.7425 253.841C94.2374 254.684 89.6021 253.917 85.0955 253.076C77.5798 251.675 69.3439 249.576 65.0949 243.22C61.0099 237.112 61.9159 228.945 59.1482 222.139C54.5773 210.894 41.2962 205.993 29.2271 204.688C17.1594 203.381 4.4843 204.291 -6.59103 199.322C-7.85854 198.754 -9.2812 197.818 -9.23729 196.427C-9.1846 194.713 -7.05794 193.993 -5.35865 193.743C-3.99601 193.542 -2.63336 193.353 -1.26779 193.172C26.3686 189.52 54.4031 197.427 75.6961 215.416C78.9073 218.131 82.4507 220.444 86.2503 222.256C91.7565 224.882 97.7911 226.543 102.713 230.146C107.637 233.748 111.277 240.172 109.213 245.913Z" fill="#3D3D3D"/>
<path d="M94.4062 331.717C104.726 329.868 115.21 327.967 124.586 323.278C133.962 318.587 142.248 310.632 144.811 300.467C147.817 288.547 142.822 274.912 148.81 264.178C152.878 256.881 161.941 252.754 170.117 254.474C178.292 256.193 184.925 263.621 185.709 271.939C186.463 279.92 182.366 288.077 184.53 295.796C187.155 305.165 197.647 309.713 207.105 312C229.195 317.343 252.587 317.223 274.622 311.654L274.558 306.755C254.595 308.284 233.867 309.711 215.156 302.591C209.246 300.341 203.277 296.88 200.668 291.119C196.065 280.958 203.823 269.267 202.5 258.191C201.351 248.58 193.429 241.001 184.708 236.799C174.877 232.061 163.326 230.616 152.851 233.677C142.375 236.737 133.182 244.502 129.22 254.671C123.534 269.267 128.796 286.476 122.767 300.934C116.367 316.282 99.3987 323.966 83.6763 329.38L94.4077 331.718L94.4062 331.717Z" fill="#3D3D3D"/>
<path d="M140.411 330.003C149.635 324.502 155.658 314 155.749 303.26C155.788 298.614 154.8 294.017 154.661 289.374C154.522 284.732 155.38 279.771 158.516 276.346C161.752 272.815 167.245 271.571 171.688 273.365C176.128 275.158 179.218 279.869 179.094 284.657C178.962 289.731 175.68 294.08 173.16 298.485C170.64 302.891 168.841 308.586 171.579 312.86C173.83 316.371 178.395 317.612 182.565 317.726C186.92 317.845 191.249 317.053 195.605 316.945C199.959 316.835 204.555 317.504 208.009 320.158C211.465 322.811 213.319 327.888 211.245 331.719L140.411 330.005V330.003Z" fill="#3D3D3D"/>
<path d="M-78.609 279.484C-61.4801 284.837 -42.829 281.46 -25.7644 275.904C-8.6999 270.348 7.73967 262.642 25.3399 259.131C30.2694 258.147 35.4039 257.506 40.2909 258.683C45.178 259.86 49.806 263.178 51.3238 267.97C53.3612 274.401 49.2967 281.341 43.9808 285.495C38.6648 289.648 32.1517 291.963 26.4947 295.637C20.8363 299.31 15.7545 305.159 16.0604 311.899C16.2024 315.018 17.4875 317.966 18.0188 321.041C18.5516 324.118 18.1022 327.734 15.5906 329.59C13.5342 331.109 10.5601 330.966 8.34415 329.693C6.1282 328.419 4.59138 326.196 3.60197 323.84C0.361473 316.116 2.60085 306.879 7.62112 300.174C12.6414 293.469 20.0532 288.952 27.6861 285.504C30.7466 284.122 33.9724 282.815 36.2645 280.362C38.5565 277.909 39.5986 273.899 37.6403 271.172C35.2941 267.907 30.2636 268.255 26.5928 269.894C12.3384 276.263 6.1282 295.429 -8.97506 299.385C-17.2534 301.553 -25.8596 298.419 -34.0896 296.074C-54.8849 290.153 -77.0737 289.188 -98.3052 293.283L-78.6046 279.484H-78.609Z" fill="#3D3D3D"/>
<path d="M46.573 332.749C42.0504 327.902 37.5278 323.054 33.0051 318.205C31.8152 316.93 30.5638 315.524 30.3823 313.789C30.0632 310.749 33.0637 308.479 35.8124 307.143C41.0185 304.612 46.6301 302.985 51.7968 300.377C56.9634 297.767 61.8432 293.916 63.9493 288.524C65.6135 284.263 65.4349 279.332 67.7826 275.405C69.8668 271.918 73.6049 269.8 77.264 268.033C81.3534 266.057 85.6507 264.298 90.1792 263.974C94.7076 263.651 99.5464 264.958 102.604 268.316C106.597 272.702 106.654 279.621 104.273 285.054C101.891 290.487 97.5149 294.755 93.1694 298.791C88.8238 302.828 84.3144 306.896 81.5305 312.134C78.4862 317.864 77.5714 324.869 73.0371 329.51C69.1731 333.465 63.2936 334.905 57.7743 334.571C52.2549 334.238 46.9653 332.344 41.765 330.469L46.573 332.749Z" fill="#3D3D3D"/>
<path d="M161.475 225.784C159.93 227.347 157.374 226.913 155.192 226.653C151.186 226.173 147.066 226.685 143.299 228.13C138.64 229.915 134.566 233.078 129.795 234.54C125.025 236.003 118.844 235.069 116.622 230.6C114.886 227.105 116.255 222.805 118.518 219.625C120.779 216.444 123.86 213.912 126.095 210.714C128.709 206.973 130.034 202.365 129.892 197.809C129.779 194.198 133.729 191.834 136.76 193.799C136.834 193.847 136.907 193.897 136.979 193.948C140.478 196.455 140.27 201.584 141.44 205.726C142.87 210.796 146.99 215.02 152.022 216.577C154.599 217.375 157.428 217.537 159.718 218.964C162.007 220.392 163.371 223.865 161.475 225.784Z" fill="#3D3D3D"/>
</g>
</g>
</g>
</g>
<defs>
<clipPath id="clip0_174_5082">
<rect x="182" y="7.95547e-06" width="322" height="182" rx="5" transform="rotate(90 182 7.95547e-06)" fill="white"/>
</clipPath>
<clipPath id="clip1_174_5082">
<rect width="182" height="322" fill="white"/>
</clipPath>
<clipPath id="clip2_174_5082">
<rect width="182" height="322" fill="white"/>
</clipPath>
</defs>
</svg>
