<svg width="182" height="322" viewBox="0 0 182 322" fill="none" xmlns="http://www.w3.org/2000/svg">
<g clip-path="url(#clip0_173_4743)">
<rect x="182" y="7.95547e-06" width="322" height="182" rx="5" transform="rotate(90 182 7.95547e-06)" fill="#C0BABA"/>
<g clip-path="url(#clip1_173_4743)">
<mask id="mask0_173_4743" style="mask-type:luminance" maskUnits="userSpaceOnUse" x="-208" y="0" width="574" height="322">
<path d="M365.361 7.95547e-06H-207.083V322H365.361V7.95547e-06Z" fill="white"/>
</mask>
<g mask="url(#mask0_173_4743)">
<path d="M365.361 7.95547e-06H-207.083V322H365.361V7.95547e-06Z" fill="#010390"/>
<path d="M-13.8118 16.3535C-12.8369 17.6564 -11.1583 21.0642 -9.86432 21.7828C-7.26447 21.9467 -4.66461 22.1107 -2.06774 22.2777C-0.630663 24.8746 -0.398111 31.893 0.201166 35.4052C0.332352 36.9853 0.463539 38.5625 0.594725 40.1427C1.28643 40.9388 3.66565 40.4409 4.93875 40.6377C9.21419 41.0312 13.4926 41.4277 17.771 41.8213C19.0203 44.8803 20.2725 47.9423 21.5217 51.0013C23.57 55.709 26.1132 60.2677 28.6296 64.5253C30.0428 66.9164 31.14 70.9772 33.4656 72.4232C36.4411 70.7506 38.9724 69.3791 42.7439 68.1776C41.9896 65.9296 33.88 62.5843 32.0851 60.2797C29.9474 55.0173 27.8067 49.7491 25.669 44.4867C25.0071 42.9215 24.3512 40.0086 22.9052 39.2542C18.6893 37.0569 11.7753 38.5119 7.70555 36.1952C6.6829 35.5393 7.32096 27.4029 7.01386 25.4351C6.13731 19.8001 5.36211 15.2772 3.55832 10.8258C3.08426 9.65708 2.72053 7.38519 1.68297 6.77995H-1.57578C-4.08321 6.4013 -8.96391 6.74119 -10.8542 5.69469C-12.2674 3.81934 -13.6836 1.94399 -15.0998 0.0686335C-15.708 -0.468033 -23.0007 -0.151996 -24.4766 -0.128144C-23.3913 1.68162 -22.306 3.49137 -21.2178 5.30113C-18.8147 9.14426 -16.4594 12.8174 -13.8148 16.3565L-13.8118 16.3535Z" fill="#0003B1"/>
<path d="M13.6267 19.3173C14.6076 23.4735 13.907 28.7925 14.8103 33.1365C15.8867 33.7924 17.5652 33.7685 18.9546 34.1233C22.2044 34.9522 27.8156 36.1388 30.1083 37.9724C31.9002 39.4035 33.3134 47.5668 34.7475 50.113C34.7803 50.2114 34.8131 50.3098 34.8459 50.4082C39.181 49.0546 40.305 43.3063 44.9144 42.2151C45.4033 41.4041 45.3437 38.7148 45.0127 37.5759C44.2882 36.2163 41.0444 35.4561 39.5835 34.8121C35.6032 33.056 31.3844 31.5265 27.1477 29.7793C25.01 28.8252 22.8693 27.8712 20.7316 26.9171C19.7417 25.2415 20.174 17.6507 19.6463 15.1701C18.8562 11.4551 17.765 7.934 16.3876 4.70804C15.6631 3.09506 14.9385 1.48208 14.217 -0.127922H6.02393C7.07639 1.87862 8.12884 3.88515 9.1813 5.89169C11.0239 10.0747 12.4699 14.4366 13.6237 19.3143L13.6267 19.3173Z" fill="#0003B1"/>
<path d="M75.8117 79.0334C74.7682 79.7132 73.7574 80.703 72.4545 81.1055C72.4217 81.1711 72.3889 81.2367 72.3561 81.3023C72.6036 81.8926 76.2887 84.6684 76.9953 84.8562C80.4389 83.0554 83.5635 80.6225 86.6673 78.4401C89.2343 76.6363 92.4543 74.9667 94.3654 72.5189C95.2867 71.2696 96.208 70.0174 97.1293 68.7681C98.2801 67.3877 99.434 66.0043 100.585 64.6239C99.747 63.5893 91.1067 60.7092 89.2343 59.9847C84.8187 63.795 78.9661 65.4438 73.0479 67.8826C70.9429 68.8367 68.835 69.7908 66.7301 70.7449C63.8351 68.476 60.9401 66.2041 58.045 63.9352C54.2466 61.1773 49.9235 59.2185 45.9044 56.6305C45.016 56.0581 44.7834 54.5018 43.9307 54.0635C42.7858 55.6586 40.8568 57.2358 39.2915 58.4075V58.6043C40.1412 59.6806 41.9719 60.1278 43.239 60.7748C45.3111 61.9912 47.3862 63.2107 49.4584 64.4271C53.5221 67.2804 56.9777 70.7359 60.8089 73.8039C62.7409 75.3513 64.321 77.4741 66.5333 78.7382C69.5893 76.4395 79.4074 69.108 83.7096 69.0663C84.6965 69.9876 85.6834 70.9089 86.6702 71.8301V72.1253C83.483 74.8712 79.3865 76.7078 75.8117 79.0334Z" fill="#0003B1"/>
<path d="M90.3226 10.4325C91.4824 11.3628 93.7543 11.0229 95.257 11.6162C98.0953 12.7372 100.674 14.8451 103.054 16.5505C109.389 21.0943 114.347 27.421 119.341 33.3303C120.784 32.9904 122.12 31.3894 123.092 30.4681V30.3697C118.322 25.4175 113.363 20.0657 107.794 15.9572C104.669 13.7867 101.542 11.6132 98.4173 9.44269C97.0608 7.47491 96.9415 4.401 96.1484 1.94128L95.7549 2.03967C95.2212 4.07006 94.3893 5.8977 93.0894 7.17378H92.6959C91.381 5.38191 90.0513 2.37657 89.6369 -0.130851H86.6763C87.1324 2.69559 88.5814 9.02826 90.3286 10.4296L90.3226 10.4325Z" fill="#0003B1"/>
<path d="M39.0947 15.5666C39.5658 17.3138 39.7655 20.9423 41.0684 21.8844C42.747 22.3793 44.4256 22.8713 46.1012 23.3662C49.3301 24.3739 52.5978 25.5874 55.5763 26.8217C56.9567 27.3942 59.2912 27.7669 60.0187 28.9923C62.4814 33.1425 64.1004 38.5449 65.7432 43.205C66.423 45.131 67.3412 48.4822 69.2971 49.0278C72.4038 46.4637 75.7252 44.2694 79.0704 41.92C80.4001 40.9868 82.0012 39.6093 83.808 39.2545C85.6028 38.9027 86.3959 40.62 87.8538 40.8347C90.1883 39.0249 92.5258 37.2152 94.8633 35.4054C96.5389 34.1413 98.3427 32.3733 100.391 31.5563C100.257 30.5128 96.5091 26.7174 95.555 26.4222C92.976 27.9756 90.3374 32.7936 86.9683 33.2319C83.0179 29.3977 78.82 25.015 75.6178 20.498C74.1032 18.0621 72.5916 15.6293 71.0771 13.1934C68.9304 10.2536 65.3556 8.38426 64.9561 3.71824L64.7593 3.61985C64.6281 4.40994 64.4969 5.20004 64.3657 5.99013C63.2984 6.61326 57.9138 5.98417 56.7659 5.4952C56.6348 3.61985 56.5036 1.7445 56.3724 -0.130851H52.3265C52.9139 4.32945 52.7648 6.8488 54.0051 10.3312C56.429 11.7116 61.42 10.2328 64.1719 11.2196C66.9328 12.2095 68.5666 15.2566 70.0931 17.5374C72.693 21.0257 75.2929 24.5141 77.8897 27.9994C79.142 29.6571 81.3125 31.9231 81.542 34.4156C78.1521 36.8842 74.6429 39.7584 70.4867 41.3237C70.2899 41.2909 70.0932 41.2581 69.8934 41.2253C68.8558 37.4269 63.5518 24.3531 61.11 22.6685C59.3658 22.4718 57.6216 22.275 55.8774 22.0752C52.3563 21.0884 48.8352 20.1015 45.317 19.1146C43.7607 18.3931 43.4 15.832 42.8484 14.0819C41.6498 10.2566 39.2885 4.16248 39.0977 -0.130851H34.8521V-0.029481C35.2784 1.84587 35.7077 3.72122 36.1341 5.59658C37.121 8.91795 38.1078 12.2423 39.0947 15.5666Z" fill="#0003B1"/>
<path d="M109.473 12.999C113.942 16.1862 117.585 20.25 121.81 23.6578C123.188 24.7699 125.68 28.0644 127.338 28.4938C128.787 28.1986 130.233 27.9004 131.682 27.6053C133.685 26.9613 134.401 24.3018 135.236 22.4712C137.153 18.2613 139.177 13.9173 141.059 9.44209C141.389 8.65796 143.73 4.788 143.327 3.81603C143.298 3.7415 137.806 0.0772562 137.406 -0.131448H128.82V-0.0300771C130.298 1.49346 135.137 4.43618 137.308 5.10403C138.107 6.55303 136.232 9.2632 135.629 10.5333C134.383 13.157 133.325 15.7121 131.78 18.0347C130.367 19.8117 128.951 21.5886 127.535 23.3656H127.141C122.207 19.9339 118.185 15.3007 113.223 11.8183C110.427 9.97577 107.63 8.13322 104.834 6.29066C103.775 4.7224 104.416 1.93174 103.65 0.0712932C103.131 -0.405744 100.913 -0.158281 99.9976 -0.125485C100.656 2.60555 101.312 5.33659 101.971 8.06763C104.473 9.7134 106.971 11.3592 109.473 13.002V12.999Z" fill="#0003B1"/>
<path d="M62.7826 17.737C64.0468 18.2767 64.9054 20.2624 65.6448 21.3894C68.1702 25.2325 69.9978 29.6153 72.3562 33.7267H72.7497C73.8678 32.7071 74.9858 31.6874 76.1069 30.6677V30.3726C72.0938 25.1103 68.0777 19.842 64.0647 14.5797C61.4231 13.3543 52.9527 15.006 51.4291 13.0979C49.6969 10.9273 49.1483 7.02458 48.4685 3.91788C48.239 2.63584 48.0064 1.35083 47.7768 0.0687879C47.2342 -0.429119 44.8788 -0.160786 43.9277 -0.12799C44.9444 6.43127 46.4799 12.2362 48.9605 17.2451C53.5669 17.4091 58.1732 17.5731 62.7796 17.74L62.7826 17.737Z" fill="#0003B1"/>
<path d="M80.3524 21.6846C81.536 22.3107 82.7226 22.9338 83.9063 23.5599C84.756 24.1861 85.0244 25.5218 85.9784 26.0286C87.019 26.288 90.388 23.226 91.7029 22.7699C91.7685 22.6715 91.8341 22.5731 91.8996 22.4747C89.7291 21.5206 87.5556 20.5665 85.3851 19.6125C82.7823 17.7073 81.1454 14.6602 79.2641 12.0127C76.7478 8.47067 73.2386 5.86187 73.1432 -0.127922H67.7139V-0.0295328C69.8605 5.16719 72.8212 9.52313 75.5104 14.0848C77.0072 16.622 78.0477 19.9732 80.3464 21.6846H80.3524Z" fill="#0003B1"/>
<path d="M160.304 13.888C161.216 13.5243 162.072 12.0634 162.674 11.321C164.845 9.31443 167.018 7.30789 169.189 5.30136C168.443 4.38902 166.696 4.3115 165.733 3.62278C166.457 2.40634 167.182 1.18691 167.904 -0.0295328C165.336 -0.0623291 162.769 -0.0951254 160.205 -0.127922C160.435 0.465393 160.667 1.05573 160.897 1.64904C159.153 5.62932 157.409 9.61258 155.665 13.5929C156.499 13.9804 159.269 14.3024 160.304 13.888Z" fill="#0003B1"/>
<path d="M113.814 8.36036C117.925 11.321 122.039 14.2816 126.151 17.2452C127.379 16.3269 131.685 8.55713 131.777 6.68476C129.314 4.92569 123.196 2.68063 122.203 -0.12494H115.984C117.505 3.88217 123.772 5.70088 126.744 8.65851C126.571 9.90477 125.683 10.507 125.262 11.5207C125.033 11.5863 124.8 11.6519 124.571 11.7175C120.754 9.01926 116.938 6.32102 113.122 3.62278C112.46 2.79691 111.998 1.21076 111.938 -0.127922H107.794V-0.0295328C108.155 1.61625 108.518 3.26202 108.879 4.90482C109.69 6.4701 112.362 7.39436 113.814 8.36036Z" fill="#0003B1"/>
<path d="M-52.3086 13.2947C-51.0921 14.2159 -49.8727 15.1372 -48.6563 16.0585C-46.4857 17.901 -44.3122 19.7436 -42.1417 21.5862C-40.5198 22.8473 -38.4566 24.1234 -37.4041 25.9302C-36.8108 27.3792 -36.2205 28.8252 -35.6272 30.2742C-33.6206 34.3201 -31.6141 38.3689 -29.6076 42.4148C-24.9654 50.3694 -19.6941 57.7247 -15.1951 65.6107C-14.0323 67.6501 -15.5499 72.3787 -14.405 74.099C-13.6775 75.1902 -11.7992 75.7806 -10.6543 76.4693C-7.79206 78.2462 -4.92984 80.0232 -2.06762 81.8002C4.0474 85.8729 9.66153 90.521 15.5023 94.8292C17.5356 96.3289 21.7067 98.8334 23.0036 100.849C24.5659 103.276 25.4306 106.63 26.0627 109.832C26.1938 111.314 26.325 112.793 26.4562 114.274C27.1986 115.795 29.9714 115.515 32.1807 115.163C37.5115 114.769 42.8424 114.373 48.1703 113.979C47.8633 113.046 46.8585 112.521 46.295 111.809C43.9456 108.83 41.1549 106.245 38.7936 103.321C33.4239 96.6658 26.4473 90.6492 19.0532 86.0458C15.5976 84.1704 12.1421 82.2951 8.68957 80.4197C5.00446 78.446 1.31934 76.4723 -2.36577 74.4985C-3.06641 73.2731 -2.53273 70.6226 -2.46416 69.0692C-2.30912 65.5093 -3.37648 57.2208 -5.22798 56.1386C-6.93935 56.1713 -8.65073 56.2041 -10.3621 56.2369C-13.275 52.0241 -17.5355 48.2197 -19.6405 43.4046C-21.4353 39.3021 -22.1419 32.8323 -24.6732 29.4871C-26.4084 27.1973 -29.5867 25.4174 -31.8794 23.6643C-37.4697 19.3888 -43.2299 14.5976 -47.4756 8.9566C-49.2794 6.55949 -51.8971 3.83143 -52.1148 -0.0266031C-53.3968 -0.0593995 -54.6818 -0.0921957 -55.9639 -0.124992C-55.0098 3.23216 -54.0557 6.58632 -53.1016 9.94347C-52.8393 11.0615 -52.5739 12.1796 -52.3116 13.3006L-52.3086 13.2947Z" fill="#0003B1"/>
<path d="M185.772 16.0585C184.523 17.7043 183.27 19.3501 182.021 20.9929C181.759 21.2881 181.493 21.5862 181.231 21.8814C188.059 21.4312 195.11 21.5683 202.256 21.5862C203.538 20.0388 204.823 18.4944 206.105 16.947L206.302 16.5535C200.84 16.8486 195.378 17.1468 189.916 17.4419L189.818 17.0484C191.431 14.6125 193.044 12.1796 194.654 9.74376C195.837 7.60604 197.024 5.46534 198.207 3.32762C198.875 2.24236 200.023 1.21374 200.378 -0.127922H191.988C192.382 0.817208 193.184 1.47313 193.863 2.14099C193.878 3.56912 192.298 5.48323 191.595 6.68178C189.66 9.96439 187.924 13.0472 185.772 16.0585Z" fill="#0003B1"/>
<path d="M46.6946 311.386C45.7078 311.776 42.2642 320.306 41.5605 321.848C42.9738 322.62 49.4018 322.068 51.5306 322.045C51.4054 320.903 50.7316 320.256 50.347 319.379C49.1305 316.714 47.9111 314.048 46.6946 311.383V311.386Z" fill="#0003B1"/>
<path d="M152.901 285.131C153.247 282.758 156.419 278.98 157.638 276.938C161.159 271.017 164.681 265.092 168.199 259.171C176.225 245.781 184.257 232.388 192.283 218.999C194.158 213.405 196.034 207.812 197.909 202.219C200.145 196.265 202.384 190.308 204.62 184.354C201.099 182.577 197.578 180.8 194.06 179.023C185.927 174.208 178.157 169.327 170.667 164.02C167.608 161.882 164.546 159.742 161.487 157.604H161.192C159.284 160.994 157.376 164.381 155.468 167.771C153.664 170.827 151.592 174.032 150.235 177.443L157.54 184.747C161.443 189.586 166.082 193.745 170.175 198.37C174.177 202.893 178.935 206.921 182.713 211.596C185.345 214.359 187.978 217.123 190.611 219.887C190.441 221.423 189.138 222.699 188.44 223.835C185.873 228.244 183.306 232.654 180.742 237.06C180.578 237.093 180.414 237.126 180.247 237.159C163.601 218.933 146.95 200.701 130.301 182.475C138.494 169.151 146.687 155.824 154.877 142.5C153.417 140.827 150.501 139.924 148.56 138.749C145.638 136.978 142.415 135.601 139.38 133.815C138.032 133.057 136.681 132.3 135.334 131.546C134.502 130.365 139.114 121.289 140.17 119.602C144.29 113.022 147.179 105.577 151.225 99.0715C153.876 94.808 156.294 90.4818 162.576 89.8915H162.674C163.196 91.2213 159.52 96.8026 158.825 98.3798C156.028 104.334 153.232 110.291 150.435 116.245C149.365 118.678 147.626 121.248 147.078 124.041C149.445 125.061 151.815 126.081 154.186 127.1C157.594 128.839 160.644 131.146 163.759 133.32C165.232 134.348 168.559 137.553 170.471 137.664C179.159 123.245 187.742 107.259 194.358 91.0752C194.653 89.0358 194.952 86.9965 195.247 84.9542C195.873 82.4199 196.496 79.8857 197.122 77.3544C199.063 71.4988 201.004 65.6401 202.945 59.7845V59.6861C199.79 58.8125 188.145 57.611 184.683 58.6993H183.992V58.4041C185.754 56.0875 188.974 54.5729 190.309 51.8895C192.179 48.1359 191.135 43.0644 193.863 39.8473C196.287 36.9881 207.668 33.9172 212.125 32.5427C214.376 24.3496 217.071 17.8231 220.908 11.4189C222.08 9.46604 224.17 5.60205 225.941 4.40945L226.436 3.81614V3.71775C222.193 4.54064 217.948 5.36353 213.702 6.18642C211.102 6.64556 208.502 7.10769 205.906 7.56684C206.275 4.66288 209.149 2.65634 209.755 -0.131343H204.62C202.975 3.15723 201.329 6.44879 199.686 9.74034C199.093 10.6944 198.502 11.6485 197.909 12.6026C203.732 12.0092 209.558 11.4189 215.381 10.8256C215.548 13.023 211.621 18.0378 210.446 19.8088C208.866 22.2447 207.289 24.6776 205.709 27.1134C204.928 28.4521 204.54 30.6375 203.338 31.5558C198.571 35.2082 191.371 36.2725 186.657 39.9457C183.106 42.7125 184.242 48.4907 182.313 52.9748C179.964 58.4399 174.6 62.0803 171.851 67.1875V67.2859C177.116 67.3157 181.621 68.2042 185.572 69.358C186.263 70.5506 185.47 72.8494 185.178 74.0956C184.651 76.3317 184.126 78.5708 183.598 80.8069C183.139 82.089 182.677 83.374 182.218 84.656C183.005 85.1062 184.349 85.5386 184.785 86.3346C185.125 87.7627 181.714 94.0298 181.034 95.613C178.622 101.233 176.138 106.674 173.136 111.799C171.544 114.522 169.269 117.461 168.3 120.583C166.944 120.359 159.21 116.88 158.628 116.042C160.93 111.468 163.235 106.895 165.536 102.321C167.543 97.8789 169.549 93.4365 171.556 88.9971C172.573 87.3722 173.926 85.4461 175.405 84.2595C176.595 83.3024 178.497 82.0264 179.156 80.6072L179.254 80.1123C176.973 78.1385 169.686 75.3687 165.632 75.3747C165.599 75.4403 165.566 75.5059 165.533 75.5715C167.689 79.0061 170.253 82.5332 174.022 84.3549V84.6501C172.179 87.0591 169.824 89.498 168.989 92.8432C168.858 92.876 168.726 92.9088 168.595 92.9416C163.574 90.2374 161.985 87.6912 158.724 83.368C157.442 81.6567 156.156 79.9453 154.874 78.2339C155.73 77.0503 156.586 75.8636 157.441 74.68C159.481 71.3735 161.201 67.9597 163.562 65.0081C167.313 61.4213 171.064 57.8346 174.815 54.2479C177.483 50.6343 176.827 43.9499 179.552 40.4287C184.191 34.433 194.334 35.241 198.011 27.6948V27.1015C194.722 26.9047 191.43 26.708 188.139 26.5082C183.04 26.3114 177.939 26.1146 172.841 25.9149L172.742 25.5213C174.212 22.9781 176.583 21.0402 178.368 18.81C181.66 14.6985 185.104 10.9926 187.548 5.97771C187.396 4.34684 183.589 1.06423 182.414 0.0564901C181.83 -0.462288 175.125 -0.16414 173.729 -0.140288V-0.0299729C174.847 1.02249 175.965 2.07495 177.086 3.12742C178.699 4.87158 180.312 6.61575 181.922 8.35992C181.955 8.5239 181.988 8.68788 182.021 8.85484C180.473 10.6974 178.929 12.54 177.382 14.3825C175.834 15.9627 174.29 17.5399 172.742 19.1201C171.568 20.578 169.847 22.9572 168.202 23.8577C163.843 26.2399 152.406 26.0669 146.091 25.2381L145.993 24.9429C146.514 23.634 146.982 22.4057 147.573 21.2906C152.54 21.4546 157.51 21.6186 162.477 21.7855C165.793 21.0551 173.485 14.8566 174.815 12.1136C175.202 10.9031 173.559 8.92342 173.136 7.86797C172.972 7.83518 172.808 7.80238 172.641 7.76958C171.609 9.40642 164.391 16.7349 162.769 17.4415C160.882 18.2674 156.634 17.8559 154.478 17.5399C152.701 17.4415 150.924 17.3431 149.147 17.2447L148.852 17.1463C149.067 14.8267 150.602 12.6413 151.419 10.7302C152.567 8.04686 153.282 4.39753 155.071 2.24192C154.833 1.15666 153.449 0.617009 152.802 -0.128362H145.694V-0.0299729C146.845 0.989694 147.999 2.00936 149.15 3.02903C148.491 4.7404 147.835 6.45177 147.176 8.16314C145.2 13.1989 143.235 18.0676 141.157 22.8708C140.569 24.2303 139.064 28.8218 138.098 29.4837C136.75 29.9429 135.399 30.405 134.052 30.8641C131.756 31.7616 129.612 32.8766 127.636 34.1229C125.498 35.4705 121.717 39.6148 119.541 40.1425C117.707 38.3626 116.3 36.1384 114.705 34.1229C110.796 29.1796 105.036 22.7694 100.096 18.9233C98.2084 17.4534 96.1035 15.7122 93.8763 14.6777C92.6271 14.2185 91.3748 13.7564 90.1256 13.2972C86.679 11.1655 82.7286 5.33669 82.6242 -0.12538H78.1818C79.1657 5.89721 82.0846 9.14106 85.0899 13.0021C86.2616 14.5077 87.7136 16.5351 89.3355 17.5429C90.3224 17.7397 91.3093 17.9364 92.2961 18.1362C93.605 18.5387 94.8364 19.5256 95.8501 20.3067C102.096 25.1307 108.006 32.9303 112.138 39.9487C112.928 41.2963 113.718 42.647 114.508 43.9946C115.316 44.4597 121.506 45.4018 122.701 44.8831C125.069 43.2045 127.439 41.5259 129.809 39.8503C133.032 38.0406 136.258 36.2308 139.481 34.421C140.996 33.0734 142.507 31.7228 144.022 30.3752C148.595 30.6047 153.169 30.8373 157.743 31.0669C158.893 30.9685 160.047 30.8701 161.198 30.7717C163.631 30.2112 166.434 28.7294 169.785 29.2899C175.801 30.2977 181.747 31.7109 188.243 31.7586L188.342 31.9554C186.827 32.5815 185.315 33.2046 183.801 33.8307C179.883 35.5302 175.617 37.9511 173.142 41.1353C171.991 42.6171 170.888 44.3732 170.28 46.3678C169.353 49.409 169.749 52.781 167.516 54.4626C164.785 56.1739 162.054 57.8853 159.323 59.5967C158.243 60.2556 156.809 60.7833 156.064 61.7672C154.836 63.3861 154.061 65.1899 153.005 66.9997C151.076 70.3032 149.451 73.7468 147.871 77.4617C147.448 78.4545 146.008 80.0198 146.389 81.5076C147.278 84.978 150.465 88.0549 152.51 90.5892C153.196 91.4419 154.645 92.0173 154.979 93.1562C153.08 95.61 150.289 97.8968 149.254 101.153L149.058 101.251C145.438 98.1592 141.819 95.0644 138.199 91.9726C137.063 91.0811 135.003 90.136 134.35 88.8152C133.78 86.916 138.33 80.0765 139.284 78.4516C141.52 74.0092 143.759 69.5667 145.996 65.1273C146.923 63.5293 147.57 61.5138 148.956 60.3898C151.911 57.9956 159.314 55.7357 161.294 53.0851C162.444 50.1901 163.598 47.2951 164.749 44.4001C166.463 40.5033 171.44 36.0966 175.509 34.6268L175.608 34.43V34.3316C171.943 33.5445 166.935 32.6769 162.677 33.5415C160.31 34.1348 157.939 34.7252 155.569 35.3185C152.048 35.2857 148.527 35.2529 145.009 35.2201C142.504 36.1533 140.984 38.9708 138.199 39.8593L138.002 40.1544C139.46 41.2695 148.375 41.9702 151.13 41.833C151.422 42.7781 149.49 44.567 148.861 45.3869C146.335 48.6785 143.324 50.1663 139.189 51.9015C138.169 52.3308 136.514 53.5771 135.045 53.2819C132.94 52.5902 130.832 51.8985 128.727 51.2098C126.029 50.5181 123.33 49.8264 120.632 49.1376C117.111 48.4131 113.59 47.6886 110.072 46.9671C109.124 46.5199 104.735 38.7919 104.347 37.3936H104.052C102.317 38.6249 100.099 39.5313 98.3277 40.8491C99.1506 42.0984 99.9735 43.3506 100.796 44.5998C101.652 46.344 102.508 48.0882 103.363 49.8323C104.553 50.8401 109.505 51.2336 111.36 51.7077C117.686 53.3236 123.951 55.19 129.818 56.8418C130.042 57.5573 128.724 58.7022 128.238 59.4088C126.625 61.7761 125.012 64.1464 123.402 66.5167C119.842 72.1905 116.217 79.0807 111.065 83.1981C106.196 87.3095 101.324 91.424 96.4553 95.5355C97.8357 96.4567 99.2191 97.378 100.6 98.2993C104.061 100.732 107.212 103.52 110.471 106.096C111.717 107.083 113.307 108.049 114.222 109.355C113.858 112.285 108.268 117.78 106.524 120.013C101.39 126.579 94.7559 131.954 88.8555 137.78C85.7309 140.937 82.6033 144.098 79.4788 147.255C76.5509 145.544 73.6231 143.832 70.6953 142.121C70.6297 141.957 70.5641 141.793 70.4985 141.626C71.3542 140.902 72.2099 140.177 73.0656 139.456C75.5521 137.458 77.821 135.222 80.3702 133.236C82.1472 131.591 83.9241 129.945 85.7011 128.302C89.4935 125.252 93.4052 121.623 96.4613 117.84C98.4022 115.768 100.343 113.693 102.284 111.621C100.704 110.437 99.1267 109.25 97.5465 108.067C93.8674 105.198 88.3218 99.8526 83.9241 98.1949L83.629 97.8014C84.9826 95.5861 88.3904 93.8599 90.4387 92.2737C95.0451 88.523 99.6515 84.7723 104.258 81.0216C110.921 75.7056 115.227 66.9311 120.051 59.7994C119.091 58.9616 117.314 58.7678 116.005 58.3176C110.51 56.6063 105.015 54.8949 99.5203 53.1835C98.6855 52.6677 97.2245 48.3565 96.5597 47.2623C95.868 46.3082 95.1762 45.3541 94.4875 44.4001H94.2908C92.9342 45.4197 90.7637 48.6248 89.1566 48.9409C87.7762 47.8884 86.3928 46.8359 85.0124 45.7835C84.3416 45.5748 81.524 48.0673 80.9665 48.4489C76.8103 51.2754 72.8718 54.6593 68.331 57.0356C66.8522 56.7941 66.3304 55.4405 65.3704 54.6653C64.0913 53.6337 61.6972 51.9492 61.0264 50.4197C60.7312 48.5771 60.433 46.7346 60.1379 44.892C59.2643 41.0936 57.6334 34.4658 55.4987 31.8629C54.5923 30.7568 51.9507 30.2798 50.5643 29.6924C47.7021 28.476 44.8399 27.2565 41.9777 26.0401C39.6879 25.1427 37.0284 24.7223 35.0696 23.473C34.0618 19.0933 33.7339 14.1589 32.2074 10.2472C30.7942 6.79166 29.3779 3.33612 27.9617 -0.116436H21.7424C23.9397 4.84475 25.5378 10.1756 26.8765 16.2698C27.2372 19.3944 27.601 22.522 27.9617 25.6465C30.2992 27.0449 33.3672 27.4623 36.0565 28.5088C39.2794 29.7908 42.5054 31.0758 45.7284 32.3579C47.6216 33.1599 50.46 33.7174 51.5512 35.3185C53.7784 38.5892 52.5619 48.4877 52.5381 53.1835C56.3544 55.8281 60.1945 58.103 63.7902 60.8817C65.269 62.0266 66.9983 64.1971 68.9243 64.7308C70.0275 64.9574 73.5903 62.7541 74.5504 62.1637C78.6588 59.6444 82.7971 55.5299 88.0744 54.4655C90.4804 53.9796 92.8089 55.7834 94.4905 56.4393C99.8333 58.5293 105.459 60.0648 110.579 62.3605C110.176 64.5579 106.181 68.1923 104.854 70.0587C99.6902 77.3126 92.7851 81.4122 85.5073 86.5433C82.4811 88.681 79.4519 90.8217 76.4257 92.9595C75.2629 93.3649 70.1676 89.4264 69.1211 88.7138C61.9715 83.863 55.0366 78.535 48.689 72.8225C46.59 73.0938 44.664 74.7337 43.0629 75.6848C40.6271 77.0324 38.1942 78.383 35.7583 79.7306C34.8698 80.3239 33.9814 80.9143 33.0929 81.5076C32.0643 81.7193 27.6666 76.9936 26.7751 76.2751C22.6726 72.9716 20.7376 66.8625 18.4836 61.7642C16.5427 57.9479 14.6017 54.1316 12.6608 50.3153C11.7872 48.601 11.2565 45.9534 9.89694 44.6893C6.49507 44.0721 -4.43803 43.607 -6.28953 42.1222C-8.6926 37.0239 -11.0927 31.9226 -13.4958 26.8242C-14.7748 24.6656 -16.6174 23.002 -18.1349 21.0998C-21.9214 16.3533 -25.9315 12.0987 -29.1903 6.78868C-30.4127 4.79705 -32.622 2.30155 -33.1378 -0.119417H-40.344C-38.3345 10.8435 -31.5784 18.0974 -24.3543 23.8666C-21.5666 26.0938 -18.2661 28.5833 -16.1612 31.4664C-14.903 33.1897 -14.6049 35.7001 -13.8923 37.9809C-13.1201 40.4466 -9.92097 46.7286 -8.16786 47.951C-4.31876 48.4459 -0.469666 48.9379 3.37943 49.4328C3.90715 50.9474 4.43189 52.459 4.95961 53.9736C6.11941 57.286 7.18977 60.6193 8.01862 64.4356C8.28098 67.1995 8.54633 69.9633 8.8087 72.7271C9.26188 73.5768 13.1348 74.7128 14.238 75.1958C18.0513 76.8624 21.7245 79.1105 24.9981 81.4152C29.8341 84.82 34.3362 88.693 38.9157 92.3721C41.2502 94.6738 43.5877 96.9785 45.9252 99.2802L52.2429 105.598C54.5625 108.472 57.5023 110.875 59.8427 113.791C60.4659 114.566 61.2947 115.049 61.7181 116.06C60.4152 117.527 57.6096 118.198 55.7968 119.119C50.3228 121.904 44.1214 124.205 38.3254 126.62C36.8943 127.217 32.3654 128.382 31.614 129.384C30.2992 133.332 28.9814 137.282 27.6666 141.23C27.3654 142.088 26.3816 143.996 26.7781 144.882C30.6272 148.961 34.4763 153.042 38.3254 157.121C43.7546 162.845 49.1839 168.573 54.6132 174.297C57.1147 177.52 59.6131 180.746 62.1146 183.969C61.9417 185.177 60.5642 185.818 59.8457 186.536C58.4086 187.973 53.5429 193.564 52.0491 194.136C51.0623 192.326 50.0754 190.517 49.0885 188.707C47.5322 186.071 45.4332 183.916 43.5609 181.599C42.1804 180.153 40.797 178.704 39.4166 177.255C33.8412 170.302 27.3118 164.205 21.7483 157.216C19.8402 154.947 17.932 152.676 16.0239 150.407C15.2666 149.485 14.5093 148.564 13.755 147.643C13.4211 146.188 15.5349 141.602 16.0239 140.043C17.4371 135.666 18.8533 131.289 20.2695 126.916C21.1252 124.512 21.9809 122.112 22.8366 119.709C20.5021 118.329 18.1646 116.945 15.8271 115.565C14.3483 113.335 14.5212 109.009 14.5451 105.497C11.2267 102.047 6.63521 99.4144 2.79803 96.5134C-6.11659 89.7722 -14.8762 83.532 -25.8272 78.6483C-26.9572 79.4056 -27.5177 81.5881 -28.0961 82.894C-29.4765 85.461 -30.8599 88.0281 -32.2403 90.5922V90.8873C-29.0054 91.9875 -25.8391 92.3781 -22.8636 93.5528C-13.4063 97.2886 -6.86494 101.993 0.43074 107.667C4.30666 110.681 9.26488 115.213 10.4992 120.696C11.0448 123.126 9.48251 128.031 9.0174 130.171C7.80394 135.771 6.89161 140.699 5.36509 145.866C4.6078 148.728 3.8505 151.59 3.09618 154.453C2.9978 154.518 2.89941 154.584 2.80103 154.649C1.48619 152.84 0.168358 151.03 -1.14648 149.22C-0.0612183 142.607 1.02406 135.994 2.1123 129.381H2.01391C1.54283 133.508 0.171356 137.178 -1.24485 140.437C-2.0737 142.345 -3.90135 144.375 -3.91029 146.853C1.59948 153.036 6.46525 159.965 11.489 166.593C12.7562 168.266 17.3983 173.137 17.8068 174.885C16.8915 176.626 15.1443 177.741 13.9577 179.229C9.81346 183.868 5.66621 188.507 1.52196 193.146C0.326378 194.634 -3.7344 199.619 -5.18936 200.352C-6.89775 200.982 -12.7713 198.856 -14.3693 198.379C-21.668 196.193 -28.5195 194.714 -36.7752 193.146C-38.3911 192.839 -43.9784 192.016 -45.7584 192.753C-49.4435 195.91 -53.1286 199.07 -56.8137 202.228H-57.0105C-60.4988 195.943 -63.9872 189.658 -67.4725 183.376C-70.3675 184.989 -73.2625 186.602 -76.1576 188.212C-84.1837 192.258 -92.2158 196.307 -100.242 200.352C-100.275 201.763 -99.1597 203.871 -98.6618 205.287C-97.347 209.431 -96.0291 213.578 -94.7143 217.723C-91.1216 229.291 -88.486 241.789 -85.9309 254.046C-85.7997 254.112 -85.6685 254.177 -85.5373 254.243C-82.7735 251.184 -80.0096 248.122 -77.2458 245.063C-73.4951 241.378 -69.7444 237.692 -65.9937 234.007C-67.1922 234.565 -68.1404 235.79 -69.0527 236.673C-72.9972 240.477 -77.3531 243.715 -80.7997 248.023C-82.1414 249.702 -84.3507 251.324 -85.1437 253.453C-85.2421 253.485 -85.3405 253.518 -85.4389 253.551H-85.5373C-86.7537 248.155 -87.9732 242.758 -89.1896 237.365C-82.3143 234.076 -75.436 230.784 -68.5608 227.493C-63.4624 225.057 -58.3611 222.624 -53.2628 220.188C-50.5705 218.999 -48.1257 217.404 -45.168 216.438C-44.0798 217.04 -43.5193 218.065 -42.601 218.808C-38.734 221.926 -35.5289 225.957 -32.2374 229.666C-32.5057 231.336 -34.7478 232.728 -35.6929 233.912C-38.6714 237.642 -42.3058 240.793 -45.2664 244.472C-53.4923 253.652 -61.7182 262.832 -69.9442 272.012C-73.3669 275.861 -76.7867 279.711 -80.2094 283.56C-80.91 285.477 -79.4282 291.088 -79.0257 292.838C-77.1444 301.001 -75.2422 305.766 -71.6227 311.988C-70.5554 313.822 -67.067 319.901 -66.9835 322.056H-42.9975C-43.3493 318.857 -45.3052 315.682 -46.4531 312.975C-49.3809 306.055 -52.3922 299.567 -55.4363 293.038C-55.2276 290.506 -51.2026 285.939 -49.8102 283.956C-45.1263 277.287 -40.5169 270.727 -35.9911 263.918C-34.1843 261.201 -30.9613 257.952 -30.5618 254.144C-30.3978 254.079 -30.2338 254.013 -30.0668 253.948C-27.461 255.471 -23.1349 260.31 -21.182 262.731C-20.1266 264.043 -18.2721 265.224 -17.8249 267.075C-17.5118 268.524 -20.3919 272.91 -21.0836 274.183C-24.7181 280.882 -29.2738 286.878 -32.7323 293.53C-31.7126 296.228 -30.693 298.926 -29.6733 301.624C-29.3483 302.462 -29.241 304.078 -28.4896 304.487C-26.8438 302.677 -25.1981 300.867 -23.5553 299.057C-20.3711 295.11 -16.5727 291.619 -13.29 287.707C-12.4672 287.146 -11.6443 286.589 -10.8214 286.028C-9.14279 284.648 -7.46422 283.264 -5.78863 281.884C-1.32236 278.136 3.3675 271.568 7.04366 266.881C9.84029 263.458 12.6369 260.039 15.4336 256.616C17.1121 254.905 18.7907 253.193 20.4663 251.482C22.8902 248.479 25.988 245.024 29.1514 242.797C29.0351 240.927 25.1591 235.579 24.1186 233.912C19.9565 227.257 15.6214 221.089 10.8927 215.06C8.06332 211.935 5.23391 208.808 2.40448 205.683C4.64059 203.546 6.87968 201.405 9.1158 199.267H9.41096C11.3191 201.241 13.2273 203.215 15.1354 205.188C16.2535 206.306 17.3715 207.424 18.4926 208.546C21.3876 212.067 24.2826 215.588 27.1776 219.106C30.2485 223.316 32.5592 227.892 35.2723 232.529C36.9956 235.474 38.4715 238.605 39.9115 241.905C40.323 242.847 41.5394 244.395 41.2919 245.754C41.0355 247.162 39.831 248.635 39.1214 249.702C35.9551 254.466 31.7393 258.044 28.2629 262.436C22.0137 270.331 15.9016 278.584 10.3978 287.212C7.52666 291.711 3.80875 298.488 -0.0641937 301.821V302.116C4.92979 305.262 6.56067 310.724 7.83376 317.712C8.03651 318.819 8.3585 320.819 8.03053 321.958V322.056H23.9218C25.3351 318.997 26.7513 315.936 28.1674 312.877C30.7017 307.844 33.236 302.808 35.7673 297.775C36.8197 296.097 37.8722 294.418 38.9247 292.743C39.3421 291.601 37.6933 287.513 37.3445 286.228C36.2324 282.117 33.9426 272.776 35.7643 268.265C37.577 263.78 42.0314 262.752 45.7344 260.17C45.7999 260.203 45.8655 260.235 45.9311 260.268C43.9037 266.586 48.2418 275.566 50.0754 279.91C54.0825 289.403 57.6334 298.855 61.724 308.139C63.8618 312.778 66.0024 317.417 68.1402 322.056H85.8084C83.8019 318.043 81.7954 314.027 79.7888 310.014C75.5939 300.506 71.3453 291.285 67.1533 281.487C65.8385 278.13 64.5207 274.776 63.2058 271.419C62.5827 269.851 61.5422 268.145 61.5273 266.088C70.6744 257.174 79.8216 248.253 88.9688 239.338V238.745C84.9826 234.32 81.5986 229.222 78.1102 224.332C75.5432 220.811 72.9761 217.29 70.4121 213.772C68.1104 210.054 65.8057 206.336 63.504 202.618C63.8498 200.087 65.8623 198.641 67.1563 196.992C70.5462 192.681 73.9332 188.373 77.3231 184.062C77.8031 182.738 76.5241 181.128 76.0411 180.311C74.1747 177.154 72.1055 174.578 69.9201 171.823C66.5719 167.601 62.6572 163.653 58.4712 160.275C56.4319 158.302 54.3926 156.328 52.3503 154.354C47.0492 150.091 42.2878 145.171 37.4458 140.437V140.043C40.636 138.332 43.8292 136.62 47.0194 134.909C53.2477 131.274 59.8576 128.35 65.5761 124.149C68.8647 121.319 72.1562 118.49 75.4478 115.66C75.4806 115.496 75.5134 115.332 75.5462 115.166C71.1634 110.622 65.7371 106.624 60.7401 102.73C57.3502 99.7364 53.9632 96.74 50.5733 93.7466C47.4815 91.3107 44.3867 88.8778 41.2949 86.4419C42.1238 85.3895 46.7749 82.402 48.5012 82.3961C56.1516 89.2386 64.0168 95.932 72.4872 101.94C75.9189 104.373 79.3207 106.725 82.5556 109.343C83.793 110.344 84.4698 111.892 85.5163 113.093L87.7852 115.362C87.967 116.442 81.8222 121.85 80.6773 122.765C72.4156 129.366 63.9423 136.37 55.0127 142.211V142.506C59.2762 145.123 62.8838 148.588 66.7598 151.587C70.9398 154.822 76.9385 159.217 80.1824 163.236C83.7363 167.151 87.2902 171.068 90.8412 174.983C90.6653 176.817 87.8448 180.093 86.8937 181.694C84.6069 185.543 82.9104 189.801 81.0709 194.032C80.4119 195.481 79.756 196.927 79.0971 198.376C87.2604 207.222 94.7857 216.837 102.096 226.506C105.352 230.552 108.611 234.601 111.87 238.647C103.611 247.496 95.3522 256.348 87.0934 265.2C85.7279 266.89 79.2015 272.463 78.9003 274.084C81.3034 278.446 83.14 283.25 85.4149 287.805C88.6707 294.287 91.9294 300.769 95.1882 307.25C96.834 310.473 98.4797 313.699 100.123 316.922C100.978 318.634 101.834 320.345 102.69 322.056H124.207C123.894 319.844 120.098 314.4 118.876 312.385C114.699 304.686 110.519 296.985 106.339 289.287C104.848 286.786 103.617 284.066 102.093 281.49C101.661 280.76 100.933 280.125 100.811 279.12C112.227 266.091 123.646 253.059 135.062 240.033C135.095 239.902 135.128 239.771 135.161 239.639C124.797 227.928 114.431 216.211 104.067 204.5C101.074 201.309 98.0772 198.116 95.0838 194.926C95.2955 193.483 96.336 192.454 96.8608 191.274C98.6049 187.884 100.349 184.497 102.093 181.107C107.183 171.116 113.122 162.121 119.368 153.37C121.488 150.401 123.787 147.702 125.981 144.882C126.705 143.961 127.43 143.039 128.151 142.118C131.911 142.473 134.645 145.717 137.925 146.757C138.098 147.035 138.148 147.008 138.22 147.449C131.428 156.715 125.337 166.528 119.168 176.369C117.433 179.139 115.799 182.019 114.034 184.858C113.411 185.859 112.269 187.01 112.06 188.313C113.509 189.628 114.955 190.946 116.404 192.261C119.529 195.385 122.657 198.513 125.781 201.637C129.287 205.981 133.846 209.461 137.328 213.778C140.027 216.575 142.725 219.371 145.423 222.168C149.821 227.615 155.304 232.32 160.229 237.269C160.053 239.016 158.086 240.608 157.17 241.81C155.032 244.672 152.892 247.534 150.754 250.397C142.793 261.383 134.83 272.376 126.866 283.366C132.263 293.169 137.659 302.975 143.053 312.781C144.174 314.674 147.925 320.047 148.187 322.059H177.996V321.764C172.134 313.225 166.457 304.528 160.524 296.1C157.99 292.447 155.456 288.795 152.925 285.143L152.901 285.131ZM9.28276 233.408C10.4008 235.48 11.5189 237.555 12.6399 239.627C12.3418 242.096 8.94884 245.113 7.60717 246.932C4.08008 251.708 -0.252029 255.689 -3.94012 260.256C-5.74988 262.033 -7.55963 263.81 -9.36938 265.587H-9.66455C-12.8428 261.759 -17.7235 255.626 -21.8052 252.952V252.755C-15.9167 247.391 -10.0253 242.028 -4.13689 236.667C-4.37541 234.95 -6.36407 233.688 -7.29429 232.523C-8.46601 231.059 -11.5369 227.469 -13.4153 226.995C-20.1594 227.093 -26.9065 227.192 -33.6506 227.29C-36.2445 224.708 -44.849 217.472 -40.4603 211.596C-39.4615 210.257 -38.2898 210.677 -36.5128 210.015C-28.1468 210.021 -21.1284 211.265 -14.2054 212.779C-11.1165 213.456 -6.80234 213.423 -4.53343 215.048C-3.2514 216.497 -1.96637 217.943 -0.684334 219.392C2.85171 223.858 6.28638 228.349 9.28574 233.408H9.28276ZM65.9398 236.864C66.4109 237.755 68.0835 239.818 67.8152 240.811C67.2428 241.664 60.5285 243.676 59.1301 244.168C58.5368 244.377 56.8314 245.119 56.3663 244.86C53.4385 239.365 50.5107 233.87 47.5829 228.375C44.1929 222.705 40.8566 216.786 36.9241 211.596C34.3242 208.832 31.7244 206.068 29.1275 203.304C26.6409 200.162 22.1806 194.237 18.8623 192.249V191.855C21.0626 189.02 24.0232 186.763 26.0685 183.76H26.5634C30.3857 187.422 34.4077 190.946 37.6188 195.209C39.1006 197.511 40.5794 199.816 42.0612 202.117C44.3957 204.288 46.7332 206.461 49.0706 208.632C53.1493 213.784 56.2023 219.827 59.631 225.609C61.8045 229.276 63.9095 233.006 65.9488 236.861L65.9398 236.864ZM124.669 128.782C121.643 133.034 118.032 136.772 114.797 140.824C111.867 144.497 108.506 147.696 105.716 151.584C104.991 152.592 103.87 153.46 103.545 154.843C102.415 159.631 106.339 166.644 107.394 170.141C106.571 171.587 105.749 173.036 104.926 174.485L104.431 174.583C99.6276 168.299 94.8215 162.014 90.0183 155.732C89.8811 154.619 92.2186 152.989 92.7821 152.276C95.1524 149.277 97.7701 146.48 100.087 143.493C107.078 134.471 115.2 126.74 121.309 116.743C122.907 114.125 126.16 109.656 126.935 106.576V106.281C125.355 105.064 123.778 103.845 122.197 102.628C118.143 99.635 114.067 96.406 109.267 94.1401V93.7466C110.483 92.6613 111.703 91.5761 112.919 90.4878C116.476 87.6196 121.121 82.8433 123.578 78.9405C126.047 74.5309 128.512 70.1213 130.981 65.7147C132.501 62.7451 134.18 59.4893 136.705 57.5216C140.605 54.4834 146.753 53.6218 150.426 50.3153C153.494 47.5515 154.469 42.4353 157.236 39.3584C158.867 37.5456 160.99 37.483 163.455 36.3978H164.737L164.836 36.5945C164.177 37.3846 163.521 38.1747 162.862 38.9648C161.547 41.0698 160.229 43.1777 158.914 45.2826C157.829 47.1371 157.295 49.9993 155.656 51.3022C151.145 54.8949 144.752 56.1978 141.344 60.8757C136.207 67.924 132.85 76.6418 128.02 83.8749C126.255 86.5195 124.371 89.3548 121.702 91.0811V91.3763C124.195 92.5242 126.646 93.5408 128.909 94.9302C132.361 97.05 135.268 99.6529 138.879 101.74C138.485 102.596 138.089 103.451 137.695 104.307C136.213 107.807 134.949 111.099 133.154 114.179C130.247 119.17 127.916 124.22 124.666 128.788L124.669 128.782Z" fill="#0003B1"/>
<path d="M139.97 47.3484C140.531 46.9548 141.089 46.5583 141.649 46.1647C141.232 45.7056 133.42 43.222 132.469 43.2041C131.223 44.2536 129.297 45.3418 127.535 45.7712C127.97 46.5553 130.287 46.7342 131.187 47.0532C135.12 48.4485 136.452 49.829 139.97 47.3484Z" fill="#0003B1"/>
<path d="M329.488 293.718C325.111 290.79 320.734 287.862 316.361 284.935C304.065 276.363 291.581 267.782 278.854 259.765C275.136 257.362 271.418 254.962 267.7 252.559C265.643 251.271 262.706 250.248 261.185 248.414C263.585 240.454 265.988 232.49 268.392 224.527C273.991 206.814 279.235 188.993 284.679 170.929C285.765 167.047 286.85 163.165 287.938 159.28C288.266 155.792 288.597 152.303 288.925 148.818C289.187 145.89 289.453 142.962 289.715 140.035C289.119 139.063 279.271 134.805 277.476 134.015C268.21 129.93 258.657 125.813 248.851 121.973C244.245 120.458 239.638 118.946 235.032 117.432C234.933 117.334 234.835 117.235 234.737 117.137C238.52 112.006 242.304 106.871 246.087 101.737C253.884 91.2098 261.683 80.6792 269.48 70.1516C272.139 66.535 274.489 62.5995 277.178 58.8994C278.526 57.1553 279.876 55.4111 281.224 53.6669C282.586 50.8137 280.001 47.3224 279.348 45.1787C278.087 41.0463 278.385 34.6212 279.447 30.471C280.404 26.7263 281.808 22.9845 283.591 19.9106C284.414 18.4616 285.237 17.0156 286.06 15.5666C286.486 12.9995 286.915 10.4325 287.342 7.86841C287.902 5.96026 288.46 4.05212 289.02 2.14397C288.725 1.38667 288.427 0.629375 288.132 -0.12494H279.742C279.515 1.32704 279.301 3.13084 279.742 4.61263C280.037 5.5995 280.669 6.15108 280.729 7.37647C280.037 8.23215 279.345 9.08784 278.657 9.94352V10.2387C279.939 9.87793 281.224 9.51419 282.506 9.15343H282.604C283.374 11.8666 284.718 12.1796 285.565 14.1862C284.915 14.9464 283.69 15.1432 282.801 15.668C281.254 16.7532 279.709 17.8385 278.162 18.9267C273.481 22.6327 270.27 28.7447 268.29 35.1132C266.495 40.8943 267.226 49.627 265.625 55.4469C265.177 57.0748 264.93 59.7611 263.749 60.6794C261.94 60.745 260.13 60.8106 258.32 60.8762C252.989 61.6931 244.677 61.9942 240.357 60.0861C239.37 63.3568 238.314 66.7497 237.79 69.9578V70.0562C238.466 70.3782 239.465 70.1933 240.357 70.1545L240.455 70.3513C236.117 82.6261 232.596 95.0022 227.131 105.983C224.433 111.314 221.734 116.645 219.036 121.973C217.691 124.28 215.208 128.198 214.692 130.956V131.054C217.489 132.041 220.285 133.028 223.082 134.015C229.728 136.218 236.376 138.425 243.019 140.628C247.459 142.023 252.083 143.192 255.655 145.464C253.55 152.011 251.442 158.558 249.337 165.106C239.125 159.873 227.706 155.237 216.567 150.795C211.556 148.794 206.681 146.907 201.86 144.873C199.358 143.854 196.86 142.834 194.358 141.814C194.713 138.848 197.981 133.55 199.293 130.956C202.507 124.605 205.53 118.401 209.066 112.399C212.459 106.636 215.011 100.321 217.751 94.0392C219.132 91.0458 220.515 88.0494 221.895 85.056C221.863 83.5742 221.83 82.0954 221.797 80.6136C222.125 78.935 222.456 77.2564 222.784 75.5808C224.588 68.4163 227.363 62.0032 229.892 55.5423C231.075 51.9556 232.262 48.3689 233.446 44.7821C235.878 38.5866 239.883 32.7638 244.698 28.8908C246.824 27.1824 248.678 24.9583 251.409 23.8581C252.178 22.6923 251.227 21.1897 250.816 20.009C249.888 17.3436 248.308 13.8016 248.94 10.0389C249.37 7.48082 249.981 5.36695 251.111 3.52439C251.835 2.53752 252.56 1.55065 253.281 0.563782L253.875 -0.0295328C252.757 -0.0623291 251.639 -0.0951254 250.518 -0.127922C245.053 3.63173 243.52 10.99 242.226 19.0221C242.128 20.6679 242.029 22.3137 241.931 23.9565C242.232 25.4651 242.957 26.613 243.016 28.4973C239.116 32.0363 231.26 34.2784 228.308 38.369C227.596 39.3558 227.712 41.1328 227.322 42.4148C226.627 44.6957 224.412 49.5913 222.781 50.9031C221.654 51.0522 220.279 50.4619 219.03 50.3098C215.118 58.8607 212.197 68.47 209.358 77.9481C208.667 81.1383 207.975 84.3315 207.286 87.5217C205.673 91.4691 204.06 95.4196 202.45 99.3671C197.125 111.529 191.264 123.422 185.375 135.199C183.631 138.818 181.887 142.438 180.143 146.057C179.549 147.372 178.959 148.69 178.366 150.005C182.248 152.273 186.129 154.545 190.014 156.814C197.751 161.453 206.043 165.437 214.296 169.647C218.046 171.555 221.797 173.463 225.548 175.371C226.001 176.432 223.663 181.787 223.177 183.168C220.774 190.338 218.374 197.514 215.971 204.685C213.371 212.35 210.771 220.019 208.175 227.684C206.594 230.776 205.017 233.871 203.437 236.962C195.345 253.742 187.248 270.525 179.156 287.302C179.233 288.84 184.469 294.842 185.572 296.285C190.146 302.272 194.719 308.262 199.293 314.248C200.494 315.817 204.844 320.369 205.214 322.045H219.132L219.23 321.848C214.132 316.189 209.03 310.531 203.932 304.872C202.739 303.384 199.275 300.42 198.798 298.652C198.094 296.041 201.916 288.545 202.745 286.61C207.122 276.345 211.499 266.08 215.873 255.814C218.374 249.398 220.873 242.982 223.374 236.566C224.492 233.999 225.61 231.432 226.731 228.868C230.065 219.497 232.026 209.694 234.924 199.947C236.239 195.046 237.557 190.141 238.872 185.24C239.465 182.938 240.056 180.633 240.649 178.332C239.301 173.528 237.951 168.722 236.603 163.919C235.234 161.516 231.856 159.724 230.977 157.011C238.568 159.569 245.911 163.439 252.298 167.375C255.851 169.676 259.405 171.981 262.959 174.283C263.666 175.484 262.727 178.606 262.366 180.106C261.099 185.374 259.665 190.654 258.222 195.702C254.668 209.092 251.114 222.484 247.563 235.874C245.932 240.525 243.273 245.308 241.245 249.989C240.643 251.378 239.337 253.015 239.271 254.726C240.786 255.877 242.298 257.031 243.812 258.182C247.989 261.324 252.05 264.586 256.346 267.657C267.268 275.781 278.195 283.912 289.116 292.036C293.096 294.931 297.079 297.826 301.06 300.721C302.243 301.562 305.475 303.22 306.092 304.374C306.441 305.665 305.189 308.16 304.81 309.407C303.692 313.616 302.574 317.829 301.453 322.042H327.511C329.616 313.619 331.724 305.197 333.829 296.774C333.003 295.403 330.794 294.633 329.485 293.715L329.488 293.718Z" fill="#0003B1"/>
<path d="M-71.259 30.2705C-63.9037 35.1602 -57.255 40.8399 -50.9253 46.7552C-49.7476 47.8553 -43.2778 53.6066 -43.0274 54.6531C-44.8371 58.2398 -46.6469 61.8265 -48.4566 65.4133C-50.3648 69.164 -52.2729 72.9147 -54.1811 76.6654C-54.9712 78.2784 -55.7613 79.8913 -56.5514 81.5013C-56.5186 82.8162 -56.4858 84.134 -56.453 85.4488C-57.0016 88.7672 -57.0821 91.7368 -58.0332 94.432C-58.868 96.7904 -62.6604 102.354 -61.8822 104.992C-60.7165 108.94 -55.1322 109.635 -51.5186 111.113C-47.8424 112.616 -43.9218 114.044 -39.9713 115.258C-36.3846 116.31 -32.7979 117.363 -29.2112 118.415C-25.532 119.867 -21.9244 121.566 -18.451 123.153C-18.5166 125.094 -19.256 126.361 -19.733 127.89C-20.3592 130.159 -20.9823 132.431 -21.6084 134.7C-24.0771 142.792 -26.5427 150.889 -29.0114 158.981C-29.9983 162.404 -30.9852 165.824 -31.972 169.246C-29.9685 170.773 -27.2255 171.733 -25.1623 173.194C-21.8797 175.519 -19.4319 178.462 -15.7856 180.498C-15.1117 180.874 -10.3652 183.435 -9.76595 183.262C-9.40519 182.869 -9.04145 182.472 -8.68069 182.079C-5.75288 179.315 -2.82507 176.551 0.102745 173.787C-0.430939 171.718 -3.56149 168.814 -4.8316 167.076C-8.78207 161.673 -13.0784 156.256 -16.0837 150.001C-15.6246 148.85 -15.1624 147.696 -14.7033 146.545C-13.305 142.985 -12.0587 139.682 -10.559 136.28C-9.61389 134.139 -8.33186 132.094 -7.59841 129.667C-6.39389 125.687 -7.54475 120.264 -6.41477 116.045C-7.5537 114.319 -12.4165 112.664 -14.4111 111.504C-20.2906 108.084 -27.139 105.663 -34.2499 103.508C-37.6398 102.685 -41.0268 101.862 -44.4167 101.039C-45.4245 100.499 -49.0201 93.5257 -48.561 91.5638C-48.1346 90.577 -47.7053 89.5901 -47.279 88.6032C-43.4448 80.5741 -39.4377 72.9505 -34.545 66.099C-32.8575 63.7347 -31.0806 61.0692 -28.7222 59.3877V59.1909C-34.1306 51.5911 -39.2528 43.8482 -44.22 35.6998C-46.1609 32.608 -48.1019 29.5132 -50.0428 26.4214C-52.1567 25.4525 -56.933 26.5437 -59.5179 26.1263C-66.0832 25.0649 -72.0938 23.7739 -79.6549 23.8574C-80.445 23.923 -81.235 23.9886 -82.0251 24.0542L-82.1235 24.1525C-80.9071 24.7459 -79.6877 25.3362 -78.4712 25.9295C-76.0681 27.3785 -73.668 28.8245 -71.265 30.2735L-71.259 30.2705Z" fill="#0003B1"/>
</g>
</g>
</g>
<defs>
<clipPath id="clip0_173_4743">
<rect x="182" y="7.95547e-06" width="322" height="182" rx="5" transform="rotate(90 182 7.95547e-06)" fill="white"/>
</clipPath>
<clipPath id="clip1_173_4743">
<rect width="182" height="322" fill="white"/>
</clipPath>
</defs>
</svg>
