<svg width="33" height="60" viewBox="0 0 33 60" fill="none" xmlns="http://www.w3.org/2000/svg">
<g clip-path="url(#clip0_176_24169)">
<g clip-path="url(#clip1_176_24169)">
<path d="M46.9565 0H-13.0435V60H46.9565V0Z" fill="white"/>
<mask id="mask0_176_24169" style="mask-type:luminance" maskUnits="userSpaceOnUse" x="-14" y="0" width="61" height="60">
<path d="M46.9565 0H-13.0435V60H46.9565V0Z" fill="white"/>
</mask>
<g mask="url(#mask0_176_24169)">
<path d="M23.6284 4.61635C22.9739 7.05863 25.1437 9.35526 25.399 11.8709C25.7254 15.0864 22.7819 17.8251 19.6747 18.7147C17.1634 19.4339 14.3047 19.267 12.1401 17.8046C9.97545 16.3423 8.72799 13.4434 9.59881 10.9802C10.4904 8.45826 13.2283 6.92663 14.0786 4.39054C14.6511 2.68354 14.2076 0.677081 12.9689 -0.630101C12.6951 -0.918919 12.3855 -1.17065 12.0501 -1.38256C12.8936 -1.15837 13.6938 -0.804919 14.4037 -0.291101C16.1377 0.963717 17.1626 3.33126 16.414 5.33608C15.9007 6.71117 14.6759 7.72435 14.1446 9.09263C13.3799 11.0636 14.4204 13.5484 16.3614 14.386C18.3024 15.2235 20.824 14.2758 21.7333 12.3673C23.1048 9.48754 20.8799 6.04354 21.5914 2.93417C22.0234 1.04608 23.5134 -0.46101 25.2204 -1.37601C26.9276 -2.29101 28.8523 -2.70065 30.7477 -3.09992L36.3744 -3.54883C32.8769 -2.35374 29.539 -0.692283 26.4771 1.37799C25.2591 2.20163 24.0089 3.19654 23.6282 4.6169L23.6284 4.61635Z" fill="#80807F"/>
<path d="M15.9097 -2.96127C17.6799 -0.630001 18.1763 2.61136 17.1844 5.36563C16.7628 6.53618 16.0867 7.647 16.004 8.88818C15.9214 10.1296 16.7658 11.5705 18.0086 11.5132C18.7455 11.4791 19.3774 10.9156 19.6916 10.248C20.0055 9.58036 20.0565 8.82218 20.0663 8.08445C20.0947 5.98691 19.8353 3.88391 20.0308 1.79536C20.2264 -0.293183 20.9557 -2.44773 22.5754 -3.78027L15.9097 -2.96127Z" fill="#80807F"/>
<path d="M4.74263 -2.58957C6.27099 -2.42975 7.83836 -2.25875 9.21072 -1.56739C10.5831 -0.876025 11.7403 0.459793 11.7656 1.99634C11.7978 3.93543 10.1391 5.42779 8.623 6.63707C7.1069 7.84634 5.44981 9.3417 5.4869 11.2808C5.51172 12.5806 6.31463 13.7236 6.68009 14.9713C7.04554 16.2191 6.68309 17.9351 5.40809 18.1884C4.3829 18.3922 3.46299 17.4968 2.97645 16.5717C1.32154 13.4258 2.40181 9.37798 4.73118 6.69298C5.42663 5.89143 6.22381 5.17607 6.85136 4.32025C7.4789 3.46443 7.93545 2.41743 7.81163 1.36334C7.58309 -0.582298 5.51909 -1.78557 3.58954 -2.12403L4.74236 -2.58984L4.74263 -2.58957Z" fill="#80807F"/>
<path d="M-15.5221 9.0546C-14.0982 8.41642 -12.6045 7.83278 -11.0442 7.81015C-9.48393 7.78751 -7.82984 8.4306 -7.02502 9.76751C-5.17757 12.8365 -8.66712 17.1601 -6.80848 20.2225C-6.23384 21.1697 -5.17566 21.8051 -4.06948 21.8676C-2.9633 21.9301 -1.84048 21.4179 -1.16275 20.5413C-0.848023 20.1341 -0.515842 19.5969 -0.00229645 19.6315C0.369431 19.6566 0.648977 20.0016 0.753704 20.3594C1.0458 21.3568 0.289249 22.4144 -0.65766 22.8429C-1.6043 23.2713 -2.68539 23.2372 -3.72448 23.2307C-4.76357 23.2241 -5.86102 23.2697 -6.7403 23.8233C-7.61957 24.377 -8.15248 25.613 -7.60157 26.4939C-6.54339 28.1864 -3.21175 26.7988 -2.26593 28.5565C-1.74557 29.5239 -2.54439 30.8008 -3.6023 31.0961C-4.66021 31.3915 -5.7923 30.9571 -6.70484 30.3461C-9.29575 28.6119 -10.7521 25.3244 -10.2953 22.2401C-10.0553 20.6204 -9.34266 19.1068 -9.01266 17.5029C-8.68239 15.899 -8.8223 14.0351 -10.0125 12.9107C-11.4757 11.5282 -13.922 11.8626 -15.6069 12.9639L-15.5218 9.05406L-15.5221 9.0546Z" fill="#80807F"/>
<path d="M-1.30146 7.32619C-2.16874 8.23628 -3.6491 8.67592 -4.71683 8.01237C-5.39456 7.59101 -5.79274 6.81756 -6.46801 6.3921C-7.27228 5.88565 -8.29446 5.96719 -9.24492 5.9511C-10.833 5.9241 -12.4151 5.57092 -13.8638 4.91965C-15.0357 4.39274 -16.2701 3.35801 -16.0437 2.0931C-15.9128 1.36219 -15.318 0.80992 -14.7172 0.373284C-14.0493 -0.11217 -13.3298 -0.526716 -12.5757 -0.863261C-10.914 -1.29144 -9.23019 -1.62799 -7.52074 -1.59772C-5.22301 -1.55735 -2.83119 -0.759625 -1.37674 1.01965C0.077446 2.79892 0.283899 5.66256 -1.30146 7.32619Z" fill="#80807F"/>
<path d="M4.14422 4.06349C3.67076 4.61195 3.09094 5.05867 2.60494 5.59595C1.27349 7.06731 0.749853 9.08849 0.433489 11.0472C0.117126 13.0062 -0.0462389 15.023 -0.829239 16.8462C-1.37333 18.1128 -2.50733 19.3891 -3.87042 19.1849C-5.18551 18.9874 -5.93088 17.405 -5.65324 16.1044C-5.37533 14.804 -4.24542 13.9278 -3.32033 12.9727C-1.15297 10.7355 1.50394 5.21413 1.92503 3.06613C2.02376 2.5624 2.11022 2.04586 2.35185 1.5934C2.59376 1.14067 3.02767 0.75422 3.53985 0.720947C4.26258 0.674311 4.87512 1.37767 4.93213 2.09986C4.98858 2.82177 4.61767 3.51531 4.14449 4.06349H4.14422Z" fill="#80807F"/>
<path d="M48.6333 3.39746C45.966 5.26946 42.3965 5.04992 39.1745 4.56364C35.9523 4.0771 32.5525 3.41846 29.5222 4.6171C27.9052 5.25664 26.3866 6.63337 26.34 8.37173C26.3037 9.71737 27.144 10.9198 28.0312 11.9322C28.9181 12.9446 29.9204 13.9305 30.3327 15.2117C30.9008 16.9768 30.222 18.8925 29.376 20.5425C28.782 21.701 28.0923 22.8386 27.8272 24.113C27.5621 25.3877 27.8198 26.8719 28.8404 27.68C29.8882 28.5099 31.4937 28.3714 32.5702 27.5788C33.6466 26.7866 34.2425 25.4726 34.4471 24.1515C34.6516 22.8306 34.509 21.4834 34.3661 20.1544C34.0991 17.6739 33.7666 15.0336 32.1633 13.1226C31.5728 12.4187 30.8359 11.8509 30.2266 11.1634C29.6174 10.4758 29.1245 9.60719 29.1835 8.69055C29.286 7.09837 31.0426 6.04701 32.6378 6.07401C35.1747 6.11682 37.4626 8.40719 37.503 10.9444C37.5235 12.2349 37.0541 13.6065 37.6148 14.7694C38.1709 15.9233 39.552 16.4237 40.8256 16.559C44.4355 16.9425 48.1904 15.11 50.109 12.0285L48.6333 3.39746ZM44.0013 13.8735C43.7504 14.1047 43.398 14.1827 43.0628 14.2471C42.4088 14.3728 41.7278 14.4806 41.0828 14.3136C40.9336 14.2749 40.7839 14.2193 40.6699 14.1154C40.5559 14.0115 40.4839 13.8506 40.5205 13.7008C40.5513 13.5735 40.6519 13.4756 40.7553 13.3948C41.073 13.1464 42.3775 12.6473 43.596 12.7605C43.7806 12.7776 43.9726 12.8322 44.1038 12.9634C44.3452 13.2045 44.2522 13.6422 44.0013 13.8735Z" fill="#80807F"/>
<path d="M46.3302 -1.37305C43.9553 -0.564956 41.3886 -0.624956 38.8812 -0.55541C36.3737 -0.485592 33.7626 -0.244229 31.6225 1.06486C31.4234 1.1865 31.2053 1.36623 31.2323 1.59804C31.2527 1.77368 31.4098 1.89832 31.5612 1.98941C32.4707 2.53677 33.5946 2.59732 34.6501 2.48332C35.7055 2.36932 36.7416 2.09659 37.8014 2.03223C38.9856 1.96023 40.1679 2.15032 41.3442 2.30441C42.5204 2.4585 43.7207 2.57686 44.888 2.36359C46.0553 2.15032 47.201 1.56423 47.8487 0.570135L46.3304 -1.37305H46.3302Z" fill="#80807F"/>
<path d="M50.0142 19.7712C48.3415 19.3367 46.5939 18.8998 44.9052 19.2664C43.2165 19.6329 41.6254 21.0732 41.7061 22.7993C41.753 23.8048 42.3383 24.833 41.9595 25.7657C41.5741 26.7146 40.2702 27.0361 39.3454 26.5967C38.4203 26.1571 37.8625 25.1687 37.6392 24.1692C37.4158 23.1696 37.469 22.1327 37.4338 21.1092C37.3157 17.6592 35.1489 10.8012 35.1489 10.8012C34.826 10.0155 34.3471 9.23492 33.5835 8.8632C32.8195 8.4912 31.7295 8.70583 31.3894 9.48447C31.1065 10.1322 31.4284 10.9018 31.9174 11.4121C32.4064 11.9224 33.0443 12.2616 33.5859 12.716C35.0423 13.9378 35.6835 15.8908 35.8831 17.7811C36.0827 19.6716 35.9106 21.5848 36.0789 23.4784C36.2472 25.3719 36.8183 27.335 38.2125 28.6272C39.6066 29.9197 41.9845 30.2682 43.3907 28.9888C44.921 27.5968 44.7268 25.0515 46.0296 23.4446C46.9885 22.2623 48.7435 21.8036 50.1582 22.3659L50.0145 19.7709L50.0142 19.7712Z" fill="#80807F"/>
<path d="M4.56768 47.0198C-0.871869 47.6364 -6.23942 48.8206 -11.5077 50.3083C-12.2282 50.5121 -12.9711 50.7251 -13.7146 50.6353C-14.4583 50.5459 -15.2105 50.0702 -15.3777 49.3402C-15.5525 48.5771 -15.0283 47.7924 -14.3454 47.409C-13.6628 47.0258 -12.8555 46.9513 -12.0758 46.8815C-7.96496 46.5142 -3.8626 46.0541 0.227493 45.5021C1.40704 45.3428 2.79958 45.0122 3.21031 43.8949C3.65186 42.6935 2.53558 41.3962 1.2944 41.0828C0.0532207 40.7692 -1.24414 41.1106 -2.51123 41.2931C-4.18796 41.5347 -5.90505 41.4943 -7.56842 41.1736C-8.43351 41.007 -9.3076 40.7536 -10.0041 40.2147C-10.7007 39.6758 -11.1905 38.799 -11.0629 37.9273C-10.8927 36.7655 -9.75842 36.0196 -8.69396 35.5238C-6.98423 34.728 -5.16132 34.1754 -3.29723 33.8885C-2.0806 33.7012 -0.836961 33.6242 0.334949 33.2471C1.50686 32.8699 2.63458 32.1319 3.13013 31.0047C3.62568 29.8778 3.27495 28.3434 2.16795 27.8042C1.3814 27.4213 0.446766 27.5975 -0.415871 27.4527C-1.27878 27.3076 -2.20005 26.4979 -1.85914 25.692C-1.60523 25.092 -0.819235 24.9352 -0.172325 25.0121C0.11022 25.0456 0.394676 25.1072 0.67804 25.1517C1.58649 25.2946 2.49768 24.8572 2.93349 24.0477C3.09686 23.7442 3.1814 23.4144 3.14704 23.0956C3.09413 22.6074 2.85413 22.1615 2.71859 21.6897C2.58304 21.2179 2.57513 20.6512 2.9174 20.2991C3.21904 19.989 3.72631 19.9429 4.12367 20.1142C4.52077 20.2854 4.8164 20.6381 5.01277 21.0234C5.58304 22.1411 5.34795 23.6152 4.45831 24.4999C3.4694 25.4833 1.9634 25.6513 0.594584 25.9192C0.330584 25.9707 0.023221 26.0662 -0.0572338 26.3231C-0.172597 26.6915 0.277403 26.9817 0.656767 27.054C1.50877 27.216 2.40413 26.9945 3.25122 27.1794C5.90868 27.7595 5.53804 30.4178 4.52731 31.7686C3.75604 32.7992 2.6564 33.5487 1.4354 33.9575C0.214675 34.3661 -1.07342 34.5212 -2.33887 34.7566C-4.0036 35.0662 -5.64187 35.5181 -7.22996 36.1055C-7.99196 36.3875 -8.84205 36.8132 -9.01278 37.608C-9.16005 38.2942 -8.69614 38.9983 -8.08223 39.3387C-7.46832 39.6788 -6.73905 39.7301 -6.03705 39.7352C-4.1776 39.7489 -2.32605 39.4922 -0.467144 39.4432C1.39204 39.3943 3.30577 39.5675 4.97649 40.3843C6.64722 41.2009 8.15786 42.1764 8.15786 44.0362C8.15786 46.0211 6.77049 46.7702 4.56768 47.0198Z" fill="#80807F"/>
<path d="M25.3586 21.0091C23.6459 23.5378 20.4915 25.0122 17.4528 24.7043C15.9105 24.548 14.2305 23.9987 12.8991 24.7929C11.5177 25.6168 11.2387 27.6353 11.9511 29.0774C12.6632 30.5196 14.101 31.4633 15.5688 32.1211C17.0364 32.7789 18.6037 33.2262 19.99 34.0416C20.8575 34.5522 21.6681 35.2348 22.0807 36.1525C22.4936 37.0705 22.4216 38.2555 21.709 38.966C21.0594 39.6137 20.0257 39.74 19.1361 39.5166C18.2462 39.2935 17.4637 38.7751 16.7009 38.2654C15.145 37.226 13.5891 36.1866 12.0332 35.1473C10.0758 33.8395 7.99218 32.3714 7.25254 30.1364C6.51454 27.9055 7.32754 25.4322 8.59573 23.4538C9.32391 22.3182 10.2776 21.2264 11.5695 20.8373C13.2105 20.3434 14.9347 21.089 16.6311 21.3342C18.1717 21.557 20.4236 22.5006 23.7403 18.7604C24.0427 18.4195 24.5058 18.1825 24.9599 18.2221C25.5275 18.2714 25.9295 18.8641 25.9436 19.4335C25.9578 20.003 25.678 20.5375 25.3586 21.0091Z" fill="#80807F"/>
<path d="M48.1703 37.4006C47.0494 37.8436 45.7845 37.5506 44.6306 37.2029C43.4764 36.8549 42.2723 36.4518 41.0914 36.6918C39.157 37.0854 37.9766 39.0204 36.304 40.0685C34.0973 41.4515 30.9378 41.0476 29.1498 39.154C27.2609 37.1533 26.9153 33.9087 24.6831 32.2996C22.432 30.6771 19.2577 31.4146 16.6458 30.4777C15.9544 30.2298 15.2385 29.776 15.094 29.056C14.9192 28.1863 15.7024 27.3697 16.5569 27.1316C17.4113 26.8938 18.3176 27.0597 19.2023 27.1267C19.8269 27.1742 20.4553 27.1704 21.0793 27.1167C21.5718 27.0744 22.0564 26.9707 22.5302 26.8284C22.8708 26.7261 23.2234 26.6574 23.5758 26.6268C24.7892 26.521 25.9982 26.8641 26.7002 27.8296C27.4221 28.8217 27.4022 30.148 27.6795 31.3436C27.9569 32.539 28.8719 33.8309 30.0885 33.6711C30.8713 33.568 31.4489 32.8867 31.8173 32.1886C32.1861 31.4904 32.4375 30.7145 32.9612 30.1235C33.4845 29.5322 34.4143 29.1858 35.0718 29.6227C35.797 30.1047 35.755 31.2157 35.3492 31.9859C34.9433 32.7561 34.2746 33.3714 33.9206 34.1667C33.5666 34.9619 33.6888 36.1033 34.4947 36.4327C35.2624 36.7464 36.0664 36.1505 36.7521 35.6838C39.6146 33.7366 43.3131 33.6725 46.7751 33.6771C47.7067 33.6785 48.7813 33.748 49.3354 34.4969C50.0524 35.4656 49.2915 36.9575 48.1706 37.4004L48.1703 37.4006Z" fill="#80807F"/>
<path d="M20.35 45.8218C20.0612 46.6253 19.239 47.1424 18.399 47.2992C17.5595 47.4563 16.6958 47.3134 15.8561 47.1565C14.4556 46.8955 12.921 46.5045 12.1292 45.32C11.3681 44.1819 11.5369 42.6601 11.0211 41.3919C10.1694 39.2965 7.69469 38.3835 5.44578 38.1402C3.19714 37.8966 0.835324 38.0663 -1.2284 37.1404C-1.46459 37.0345 -1.72968 36.86 -1.72149 36.6009C-1.71168 36.2816 -1.3154 36.1474 -0.998768 36.1007C-0.744859 36.0634 -0.490949 36.0282 -0.236495 35.9944C4.91314 35.3139 10.137 36.7872 14.1046 40.1393C14.703 40.6452 15.3632 41.0761 16.0712 41.4137C17.0972 41.903 18.2217 42.2126 19.1389 42.884C20.0563 43.5552 20.7346 44.7522 20.35 45.8218Z" fill="#80807F"/>
<path d="M17.5912 61.8106C19.5142 61.4662 21.4677 61.1119 23.2148 60.2381C24.9619 59.364 26.5058 57.8817 26.9833 55.9876C27.5435 53.7665 26.6127 51.2258 27.7284 49.2256C28.4866 47.8661 30.1753 47.097 31.6988 47.4174C33.222 47.7379 34.458 49.122 34.6042 50.6719C34.7446 52.1591 33.9813 53.679 34.3843 55.1173C34.8736 56.8631 36.8285 57.7104 38.5909 58.1367C42.7072 59.1322 47.0659 59.1098 51.1718 58.0721L51.1598 57.1593C47.4401 57.4443 43.5777 57.7102 40.0912 56.3833C38.9899 55.9642 37.8777 55.3192 37.3914 54.2457C36.5337 52.3524 37.9794 50.1739 37.7329 48.1102C37.5188 46.3192 36.0425 44.907 34.4176 44.124C32.5857 43.2412 30.4333 42.972 28.4814 43.5423C26.5295 44.1125 24.8165 45.5594 24.0783 47.4543C23.0187 50.1739 23.9992 53.3806 22.8758 56.0746C21.6832 58.9344 18.5214 60.3663 15.5918 61.3751L17.5914 61.8109L17.5912 61.8106Z" fill="#80807F"/>
<path d="M26.1636 61.4918C27.8823 60.4666 29.0046 58.5098 29.0215 56.5085C29.0288 55.6429 28.8448 54.7862 28.8188 53.9211C28.7929 53.056 28.9528 52.1318 29.5372 51.4936C30.1402 50.8355 31.1638 50.6037 31.9915 50.938C32.8189 51.2721 33.3947 52.15 33.3715 53.0421C33.3469 53.9877 32.7355 54.798 32.2658 55.6189C31.7962 56.4398 31.461 57.501 31.9713 58.2973C32.3908 58.9516 33.2414 59.1829 34.0184 59.2041C34.8298 59.2262 35.6365 59.0787 36.4481 59.0585C37.2595 59.038 38.1158 59.1627 38.7595 59.6571C39.4034 60.1516 39.7489 61.0977 39.3625 61.8114L26.1636 61.492V61.4918Z" fill="#80807F"/>
<path d="M-14.6478 52.0773C-11.4561 53.0747 -7.98069 52.4455 -4.80096 51.4102C-1.62124 50.375 1.44204 48.9391 4.72158 48.2848C5.64013 48.1015 6.59686 47.9821 7.50749 48.2013C8.41813 48.4206 9.28049 49.0389 9.56331 49.9318C9.94295 51.1302 9.18558 52.4234 8.19504 53.1974C7.20449 53.9712 5.99086 54.4026 4.93677 55.0872C3.8824 55.7717 2.93549 56.8615 2.99249 58.1174C3.01895 58.6986 3.2584 59.2479 3.3574 59.8209C3.45667 60.3942 3.37295 61.0681 2.90495 61.4139C2.52176 61.697 1.96758 61.6702 1.55467 61.433C1.14177 61.1957 0.8554 60.7814 0.671038 60.3423C0.0672188 58.9032 0.484491 57.182 1.41995 55.9326C2.3554 54.6832 3.73649 53.8416 5.15876 53.1991C5.72904 52.9416 6.33013 52.6981 6.75722 52.241C7.18431 51.7839 7.37849 51.0366 7.01358 50.5285C6.5764 49.9201 5.63904 49.985 4.95504 50.2904C2.29895 51.4771 1.14176 55.0484 -1.67251 55.7856C-3.21505 56.1895 -4.81869 55.6056 -6.35224 55.1687C-10.2271 54.0652 -14.3617 53.8855 -18.3179 54.6486L-14.647 52.0773H-14.6478Z" fill="#80807F"/>
<path d="M8.67801 62.0028C7.83528 61.0995 6.99256 60.1962 6.14983 59.2927C5.9281 59.0551 5.69492 58.7931 5.6611 58.4699C5.60165 57.9034 6.16074 57.4804 6.67292 57.2314C7.64301 56.7599 8.68865 56.4566 9.65137 55.9706C10.6141 55.4843 11.5234 54.7668 11.9158 53.7621C12.2259 52.9681 12.1926 52.0493 12.6301 51.3176C13.0185 50.6677 13.715 50.2731 14.3968 49.9439C15.1588 49.5757 15.9596 49.2479 16.8034 49.1876C17.6472 49.1273 18.5488 49.3709 19.1186 49.9965C19.8626 50.8139 19.8732 52.1031 19.4295 53.1154C18.9857 54.1278 18.1703 54.9231 17.3606 55.6752C16.5508 56.4274 15.7106 57.1853 15.1918 58.1614C14.6246 59.2291 14.4541 60.5344 13.6092 61.3992C12.8892 62.1361 11.7936 62.4045 10.7652 62.3423C9.73674 62.2801 8.7511 61.9272 7.7821 61.5779L8.67801 62.0028Z" fill="#80807F"/>
<path d="M30.0885 42.0717C29.8005 42.3629 29.3244 42.2822 28.9177 42.2337C28.1713 42.1442 27.4035 42.2397 26.7015 42.5088C25.8335 42.8416 25.0745 43.4309 24.1854 43.7034C23.2965 43.9758 22.1448 43.8018 21.7308 42.9692C21.4074 42.3179 21.6624 41.5167 22.084 40.924C22.5054 40.3314 23.0795 39.8596 23.4959 39.2637C23.983 38.5666 24.2298 37.708 24.2034 36.859C24.1824 36.1862 24.9185 35.7458 25.4833 36.1118C25.4969 36.1208 25.5105 36.13 25.5239 36.1396C26.176 36.6068 26.1373 37.5624 26.3552 38.3342C26.6216 39.2789 27.3894 40.066 28.327 40.3562C28.8073 40.5048 29.3345 40.5351 29.761 40.801C30.1875 41.0669 30.4417 41.7141 30.0885 42.0717Z" fill="#80807F"/>
</g>
</g>
</g>
<defs>
<clipPath id="clip0_176_24169">
<rect width="33" height="60" rx="4" fill="white"/>
</clipPath>
<clipPath id="clip1_176_24169">
<rect width="33.913" height="60" fill="white"/>
</clipPath>
</defs>
</svg>
