<svg width="182" height="322" viewBox="0 0 182 322" fill="none" xmlns="http://www.w3.org/2000/svg">
<g clip-path="url(#clip0_172_4634)">
<rect x="182" y="7.95547e-06" width="322" height="182" rx="5" transform="rotate(90 182 7.95547e-06)" fill="#C0BABA"/>
<g clip-path="url(#clip1_172_4634)">
<mask id="mask0_172_4634" style="mask-type:luminance" maskUnits="userSpaceOnUse" x="-208" y="0" width="574" height="322">
<path d="M365.232 7.95547e-06H-207.212V322H365.232V7.95547e-06Z" fill="white"/>
</mask>
<g mask="url(#mask0_172_4634)">
<path d="M365.232 7.95547e-06H-207.212V322H365.232V7.95547e-06Z" fill="#904A01"/>
<path d="M-13.9412 16.3535C-12.9662 17.6564 -11.2877 21.0642 -9.99371 21.7828C-7.39386 21.9467 -4.794 22.1107 -2.19713 22.2777C-0.760057 24.8746 -0.527506 31.893 0.0717716 35.4052C0.202957 36.9853 0.334145 38.5625 0.46533 40.1427C1.15703 40.9388 3.53626 40.4409 4.80935 40.6377C9.08479 41.0312 13.3632 41.4277 17.6416 41.8213C18.8909 44.8803 20.1431 47.9423 21.3923 51.0013C23.4406 55.709 25.9838 60.2677 28.5002 64.5253C29.9134 66.9164 31.0106 70.9772 33.3362 72.4232C36.3117 70.7506 38.843 69.3791 42.6145 68.1776C41.8602 65.9296 33.7506 62.5843 31.9557 60.2797C29.818 55.0173 27.6773 49.7491 25.5396 44.4867C24.8777 42.9215 24.2218 40.0086 22.7758 39.2542C18.5599 37.0569 11.6459 38.5119 7.57616 36.1952C6.55351 35.5393 7.19156 27.4029 6.88447 25.4351C6.00791 19.8001 5.23272 15.2772 3.42892 10.8258C2.95487 9.65708 2.59113 7.38519 1.55358 6.77995H-1.70518C-4.21261 6.4013 -9.09331 6.74119 -10.9836 5.69469C-12.3968 3.81934 -13.813 1.94399 -15.2292 0.0686335C-15.8374 -0.468033 -23.1301 -0.151996 -24.606 -0.128144C-23.5207 1.68162 -22.4354 3.49137 -21.3472 5.30113C-18.9441 9.14426 -16.5887 12.8174 -13.9442 16.3565L-13.9412 16.3535Z" fill="#B15A00"/>
<path d="M13.4973 19.3173C14.4782 23.4735 13.7776 28.7925 14.6809 33.1365C15.7573 33.7924 17.4358 33.7685 18.8252 34.1233C22.075 34.9522 27.6862 36.1388 29.9789 37.9724C31.7708 39.4035 33.184 47.5668 34.6181 50.113C34.6509 50.2114 34.6837 50.3098 34.7165 50.4082C39.0516 49.0546 40.1756 43.3063 44.785 42.2151C45.2739 41.4041 45.2143 38.7148 44.8834 37.5759C44.1589 36.2163 40.915 35.4561 39.4541 34.8121C35.4738 33.056 31.255 31.5265 27.0183 29.7793C24.8806 28.8252 22.7399 27.8712 20.6022 26.9171C19.6123 25.2415 20.0446 17.6507 19.5169 15.1701C18.7268 11.4551 17.6356 7.934 16.2582 4.70804C15.5337 3.09506 14.8092 1.48208 14.0876 -0.127922H5.89453C6.94699 1.87862 7.99945 3.88515 9.05191 5.89169C10.8945 10.0747 12.3405 14.4366 13.4943 19.3143L13.4973 19.3173Z" fill="#B15A00"/>
<path d="M75.6823 79.0334C74.6388 79.7132 73.6281 80.703 72.3251 81.1055C72.2923 81.1711 72.2595 81.2367 72.2267 81.3023C72.4742 81.8926 76.1593 84.6684 76.8659 84.8562C80.3095 83.0554 83.4341 80.6225 86.5379 78.4401C89.1049 76.6363 92.3249 74.9667 94.2361 72.5189C95.1573 71.2696 96.0786 70.0174 96.9999 68.7681C98.1507 67.3877 99.3046 66.0043 100.455 64.6239C99.6176 63.5893 90.9773 60.7092 89.1049 59.9847C84.6893 63.795 78.8367 65.4438 72.9185 67.8826C70.8135 68.8367 68.7056 69.7908 66.6007 70.7449C63.7057 68.476 60.8107 66.2041 57.9156 63.9352C54.1172 61.1773 49.7941 59.2185 45.7751 56.6305C44.8866 56.0581 44.654 54.5018 43.8013 54.0635C42.6564 55.6586 40.7274 57.2358 39.1621 58.4075V58.6043C40.0118 59.6806 41.8425 60.1278 43.1096 60.7748C45.1817 61.9912 47.2568 63.2107 49.329 64.4271C53.3927 67.2804 56.8483 70.7359 60.6795 73.8039C62.6115 75.3513 64.1916 77.4741 66.4039 78.7382C69.4599 76.4395 79.278 69.108 83.5802 69.0663C84.5671 69.9876 85.554 70.9089 86.5408 71.8301V72.1253C83.3536 74.8712 79.2571 76.7078 75.6823 79.0334Z" fill="#B15A00"/>
<path d="M90.1932 10.4325C91.353 11.3628 93.6249 11.0229 95.1276 11.6162C97.9659 12.7372 100.545 14.8451 102.924 16.5505C109.26 21.0943 114.218 27.421 119.212 33.3303C120.655 32.9904 121.991 31.3894 122.963 30.4681V30.3697C118.192 25.4175 113.234 20.0657 107.665 15.9572C104.54 13.7867 101.413 11.6132 98.288 9.44269C96.9314 7.47491 96.8121 4.401 96.019 1.94128L95.6255 2.03967C95.0918 4.07006 94.26 5.8977 92.96 7.17378H92.5665C91.2516 5.38191 89.9219 2.37657 89.5075 -0.130851H86.5469C87.003 2.69559 88.452 9.02826 90.1992 10.4296L90.1932 10.4325Z" fill="#B15A00"/>
<path d="M38.9653 15.5666C39.4364 17.3138 39.6361 20.9423 40.939 21.8844C42.6176 22.3793 44.2962 22.8713 45.9718 23.3662C49.2007 24.3739 52.4684 25.5874 55.4469 26.8217C56.8273 27.3942 59.1619 27.7669 59.8893 28.9923C62.352 33.1425 63.971 38.5449 65.6138 43.205C66.2936 45.131 67.2119 48.4822 69.1677 49.0278C72.2744 46.4637 75.5958 44.2694 78.941 41.92C80.2707 40.9868 81.8718 39.6093 83.6786 39.2545C85.4734 38.9027 86.2665 40.62 87.7244 40.8347C90.0589 39.0249 92.3964 37.2152 94.7339 35.4054C96.4095 34.1413 98.2133 32.3733 100.262 31.5563C100.127 30.5128 96.3797 26.7174 95.4256 26.4222C92.8466 27.9756 90.208 32.7936 86.839 33.2319C82.8885 29.3977 78.6906 25.015 75.4884 20.498C73.9739 18.0621 72.4622 15.6293 70.9477 13.1934C68.801 10.2536 65.2262 8.38426 64.8267 3.71824L64.6299 3.61985C64.4987 4.40994 64.3675 5.20004 64.2363 5.99013C63.169 6.61326 57.7844 5.98417 56.6365 5.4952C56.5054 3.61985 56.3742 1.7445 56.243 -0.130851H52.1971C52.7845 4.32945 52.6354 6.8488 53.8757 10.3312C56.2996 11.7116 61.2906 10.2328 64.0425 11.2196C66.8034 12.2095 68.4372 15.2566 69.9638 17.5374C72.5636 21.0257 75.1635 24.5141 77.7603 27.9994C79.0126 29.6571 81.1831 31.9231 81.4127 34.4156C78.0227 36.8842 74.5135 39.7584 70.3573 41.3237C70.1605 41.2909 69.9638 41.2581 69.764 41.2253C68.7264 37.4269 63.4224 24.3531 60.9806 22.6685C59.2364 22.4718 57.4922 22.275 55.7481 22.0752C52.2269 21.0884 48.7058 20.1015 45.1876 19.1146C43.6313 18.3931 43.2706 15.832 42.719 14.0819C41.5204 10.2566 39.1591 4.16248 38.9683 -0.130851H34.7227V-0.029481C35.149 1.84587 35.5783 3.72122 36.0047 5.59658C36.9916 8.91795 37.9784 12.2423 38.9653 15.5666Z" fill="#B15A00"/>
<path d="M109.343 12.999C113.813 16.1862 117.456 20.25 121.681 23.6578C123.058 24.7699 125.551 28.0644 127.208 28.4938C128.657 28.1986 130.103 27.9004 131.552 27.6053C133.556 26.9613 134.271 24.3018 135.106 22.4712C137.023 18.2613 139.048 13.9173 140.929 9.44209C141.26 8.65796 143.601 4.788 143.198 3.81603C143.168 3.7415 137.676 0.0772562 137.277 -0.131448H128.69V-0.0300771C130.169 1.49346 135.008 4.43618 137.178 5.10403C137.977 6.55303 136.102 9.2632 135.5 10.5333C134.254 13.157 133.195 15.7121 131.651 18.0347C130.238 19.8117 128.821 21.5886 127.405 23.3656H127.012C122.077 19.9339 118.055 15.3007 113.094 11.8183C110.297 9.97577 107.501 8.13322 104.704 6.29066C103.646 4.7224 104.287 1.93174 103.52 0.0712932C103.002 -0.405744 100.783 -0.158281 99.8682 -0.125485C100.527 2.60555 101.183 5.33659 101.842 8.06763C104.343 9.7134 106.842 11.3592 109.343 13.002V12.999Z" fill="#B15A00"/>
<path d="M62.6532 17.737C63.9174 18.2767 64.776 20.2624 65.5154 21.3894C68.0408 25.2325 69.8684 29.6153 72.2268 33.7267H72.6203C73.7384 32.7071 74.8564 31.6874 75.9775 30.6677V30.3726C71.9644 25.1103 67.9483 19.842 63.9353 14.5797C61.2937 13.3543 52.8233 15.006 51.2997 13.0979C49.5675 10.9273 49.0189 7.02458 48.3391 3.91788C48.1096 2.63584 47.877 1.35083 47.6474 0.0687879C47.1048 -0.429119 44.7494 -0.160786 43.7983 -0.12799C44.815 6.43127 46.3505 12.2362 48.8311 17.2451C53.4375 17.4091 58.0439 17.5731 62.6502 17.74L62.6532 17.737Z" fill="#B15A00"/>
<path d="M80.223 21.6846C81.4066 22.3107 82.5933 22.9338 83.7769 23.5599C84.6266 24.1861 84.895 25.5218 85.849 26.0286C86.8896 26.288 90.2586 23.226 91.5735 22.7699C91.6391 22.6715 91.7047 22.5731 91.7703 22.4747C89.5997 21.5206 87.4262 20.5665 85.2557 19.6125C82.6529 17.7073 81.016 14.6602 79.1347 12.0127C76.6184 8.47067 73.1092 5.86187 73.0138 -0.127922H67.5845V-0.0295328C69.7311 5.16719 72.6918 9.52313 75.3811 14.0848C76.8778 16.622 77.9183 19.9732 80.217 21.6846H80.223Z" fill="#B15A00"/>
<path d="M160.174 13.888C161.087 13.5243 161.942 12.0634 162.545 11.321C164.715 9.31443 166.889 7.30789 169.059 5.30136C168.314 4.38902 166.567 4.3115 165.604 3.62278C166.328 2.40634 167.053 1.18691 167.774 -0.0295328C165.207 -0.0623291 162.64 -0.0951254 160.076 -0.127922C160.306 0.465393 160.538 1.05573 160.768 1.64904C159.023 5.62932 157.279 9.61258 155.535 13.5929C156.37 13.9804 159.14 14.3024 160.174 13.888Z" fill="#B15A00"/>
<path d="M113.684 8.36036C117.796 11.321 121.91 14.2816 126.022 17.2452C127.25 16.3269 131.555 8.55713 131.648 6.68476C129.185 4.92569 123.067 2.68063 122.074 -0.12494H115.855C117.375 3.88217 123.642 5.70088 126.615 8.65851C126.442 9.90477 125.553 10.507 125.133 11.5207C124.903 11.5863 124.671 11.6519 124.441 11.7175C120.625 9.01926 116.809 6.32102 112.992 3.62278C112.331 2.79691 111.868 1.21076 111.809 -0.127922H107.665V-0.0295328C108.025 1.61625 108.389 3.26202 108.75 4.90482C109.561 6.4701 112.232 7.39436 113.684 8.36036Z" fill="#B15A00"/>
<path d="M-52.438 13.2947C-51.2215 14.2159 -50.0021 15.1372 -48.7856 16.0585C-46.6151 17.901 -44.4416 19.7436 -42.2711 21.5862C-40.6492 22.8473 -38.586 24.1234 -37.5335 25.9302C-36.9402 27.3792 -36.3499 28.8252 -35.7566 30.2742C-33.75 34.3201 -31.7435 38.3689 -29.737 42.4148C-25.0948 50.3694 -19.8235 57.7247 -15.3245 65.6107C-14.1617 67.6501 -15.6793 72.3787 -14.5344 74.099C-13.8069 75.1902 -11.9286 75.7806 -10.7837 76.4693C-7.92146 78.2462 -5.05923 80.0232 -2.19701 81.8002C3.918 85.8729 9.53214 90.521 15.3729 94.8292C17.4062 96.3289 21.5773 98.8334 22.8743 100.849C24.4366 103.276 25.3012 106.63 25.9333 109.832C26.0644 111.314 26.1956 112.793 26.3268 114.274C27.0692 115.795 29.842 115.515 32.0513 115.163C37.3821 114.769 42.713 114.373 48.0409 113.979C47.7339 113.046 46.7291 112.521 46.1656 111.809C43.8162 108.83 41.0255 106.245 38.6642 103.321C33.2945 96.6658 26.3179 90.6492 18.9238 86.0458C15.4683 84.1704 12.0127 82.2951 8.56017 80.4197C4.87506 78.446 1.18995 76.4723 -2.49516 74.4985C-3.19581 73.2731 -2.66213 70.6226 -2.59356 69.0692C-2.43852 65.5093 -3.50588 57.2208 -5.35738 56.1386C-7.06875 56.1713 -8.78013 56.2041 -10.4915 56.2369C-13.4044 52.0241 -17.6649 48.2197 -19.7699 43.4046C-21.5647 39.3021 -22.2713 32.8323 -24.8026 29.4871C-26.5378 27.1973 -29.7161 25.4174 -32.0088 23.6643C-37.5991 19.3888 -43.3593 14.5976 -47.605 8.9566C-49.4088 6.55949 -52.0265 3.83143 -52.2442 -0.0266031C-53.5262 -0.0593995 -54.8112 -0.0921957 -56.0933 -0.124992C-55.1392 3.23216 -54.1851 6.58632 -53.231 9.94347C-52.9687 11.0615 -52.7033 12.1796 -52.4409 13.3006L-52.438 13.2947Z" fill="#B15A00"/>
<path d="M185.642 16.0585C184.393 17.7043 183.141 19.3501 181.892 20.9929C181.629 21.2881 181.364 21.5862 181.102 21.8814C187.929 21.4312 194.98 21.5683 202.127 21.5862C203.409 20.0388 204.694 18.4944 205.976 16.947L206.173 16.5535C200.711 16.8486 195.249 17.1468 189.787 17.4419L189.688 17.0484C191.301 14.6125 192.914 12.1796 194.524 9.74376C195.708 7.60604 196.894 5.46534 198.078 3.32762C198.746 2.24236 199.894 1.21374 200.249 -0.127922H191.859C192.252 0.817208 193.054 1.47313 193.734 2.14099C193.749 3.56912 192.169 5.48323 191.465 6.68178C189.53 9.96439 187.795 13.0472 185.642 16.0585Z" fill="#B15A00"/>
<path d="M46.5653 311.386C45.5784 311.776 42.1348 320.306 41.4312 321.848C42.8444 322.62 49.2725 322.068 51.4012 322.045C51.276 320.903 50.6022 320.256 50.2176 319.379C49.0011 316.714 47.7817 314.048 46.5653 311.383V311.386Z" fill="#B15A00"/>
<path d="M152.771 285.131C153.117 282.758 156.289 278.98 157.509 276.938C161.03 271.017 164.551 265.092 168.069 259.171C176.095 245.781 184.128 232.388 192.154 218.999C194.029 213.405 195.904 207.812 197.78 202.219C200.016 196.265 202.255 190.308 204.491 184.354C200.97 182.577 197.449 180.8 193.931 179.023C185.797 174.208 178.027 169.327 170.538 164.02C167.479 161.882 164.417 159.742 161.358 157.604H161.063C159.155 160.994 157.247 164.381 155.338 167.771C153.535 170.827 151.462 174.032 150.106 177.443L157.41 184.747C161.313 189.586 165.952 193.745 170.046 198.37C174.047 202.893 178.806 206.921 182.583 211.596C185.216 214.359 187.848 217.123 190.481 219.887C190.311 221.423 189.008 222.699 188.311 223.835C185.744 228.244 183.176 232.654 180.612 237.06C180.448 237.093 180.284 237.126 180.117 237.159C163.472 218.933 146.82 200.701 130.172 182.475C138.365 169.151 146.558 155.824 154.748 142.5C153.287 140.827 150.371 139.924 148.43 138.749C145.508 136.978 142.285 135.601 139.25 133.815C137.903 133.057 136.552 132.3 135.204 131.546C134.373 130.365 138.985 121.289 140.04 119.602C144.161 113.022 147.05 105.577 151.096 99.0715C153.746 94.808 156.164 90.4818 162.446 89.8915H162.545C163.066 91.2213 159.39 96.8026 158.696 98.3798C155.899 104.334 153.102 110.291 150.306 116.245C149.235 118.678 147.497 121.248 146.948 124.041C149.316 125.061 151.686 126.081 154.056 127.1C157.464 128.839 160.514 131.146 163.63 133.32C165.103 134.348 168.43 137.553 170.341 137.664C179.029 123.245 187.613 107.259 194.229 91.0752C194.524 89.0358 194.822 86.9965 195.117 84.9542C195.743 82.4199 196.367 79.8857 196.993 77.3544C198.934 71.4988 200.875 65.6401 202.815 59.7845V59.6861C199.661 58.8125 188.015 57.611 184.554 58.6993H183.862V58.4041C185.624 56.0875 188.844 54.5729 190.18 51.8895C192.049 48.1359 191.006 43.0644 193.734 39.8473C196.158 36.9881 207.538 33.9172 211.995 32.5427C214.246 24.3496 216.942 17.8231 220.779 11.4189C221.951 9.46604 224.041 5.60205 225.812 4.40945L226.307 3.81614V3.71775C222.064 4.54064 217.818 5.36353 213.573 6.18642C210.973 6.64556 208.373 7.10769 205.776 7.56684C206.146 4.66288 209.02 2.65634 209.625 -0.131343H204.491C202.845 3.15723 201.199 6.44879 199.557 9.74034C198.963 10.6944 198.373 11.6485 197.78 12.6026C203.603 12.0092 209.428 11.4189 215.251 10.8256C215.418 13.023 211.492 18.0378 210.317 19.8088C208.737 22.2447 207.16 24.6776 205.579 27.1134C204.798 28.4521 204.411 30.6375 203.209 31.5558C198.442 35.2082 191.241 36.2725 186.528 39.9457C182.977 42.7125 184.113 48.4907 182.184 52.9748C179.834 58.4399 174.471 62.0803 171.722 67.1875V67.2859C176.987 67.3157 181.492 68.2042 185.442 69.358C186.134 70.5506 185.341 72.8494 185.049 74.0956C184.521 76.3317 183.996 78.5708 183.469 80.8069C183.009 82.089 182.547 83.374 182.088 84.656C182.875 85.1062 184.22 85.5386 184.655 86.3346C184.995 87.7627 181.584 94.0298 180.905 95.613C178.493 101.233 176.009 106.674 173.007 111.799C171.415 114.522 169.14 117.461 168.171 120.583C166.814 120.359 159.08 116.88 158.499 116.042C160.8 111.468 163.105 106.895 165.407 102.321C167.413 97.8789 169.42 93.4365 171.426 88.9971C172.443 87.3722 173.797 85.4461 175.276 84.2595C176.465 83.3024 178.367 82.0264 179.026 80.6072L179.125 80.1123C176.844 78.1385 169.557 75.3687 165.502 75.3747C165.469 75.4403 165.437 75.5059 165.404 75.5715C167.559 79.0061 170.124 82.5332 173.892 84.3549V84.6501C172.05 87.0591 169.694 89.498 168.859 92.8432C168.728 92.876 168.597 92.9088 168.466 92.9416C163.445 90.2374 161.856 87.6912 158.594 83.368C157.312 81.6567 156.027 79.9453 154.745 78.2339C155.601 77.0503 156.456 75.8636 157.312 74.68C159.351 71.3735 161.072 67.9597 163.433 65.0081C167.184 61.4213 170.935 57.8346 174.685 54.2479C177.354 50.6343 176.698 43.9499 179.423 40.4287C184.062 34.433 194.205 35.241 197.881 27.6948V27.1015C194.593 26.9047 191.301 26.708 188.009 26.5082C182.911 26.3114 177.81 26.1146 172.711 25.9149L172.613 25.5213C174.083 22.9781 176.453 21.0402 178.239 18.81C181.531 14.6985 184.974 10.9926 187.419 5.97771C187.267 4.34684 183.46 1.06423 182.285 0.0564901C181.701 -0.462288 174.995 -0.16414 173.6 -0.140288V-0.0299729C174.718 1.02249 175.836 2.07495 176.957 3.12742C178.57 4.87158 180.183 6.61575 181.793 8.35992C181.826 8.5239 181.859 8.68788 181.891 8.85484C180.344 10.6974 178.8 12.54 177.252 14.3825C175.705 15.9627 174.16 17.5399 172.613 19.1201C171.438 20.578 169.718 22.9572 168.072 23.8577C163.713 26.2399 152.276 26.0669 145.962 25.2381L145.863 24.9429C146.385 23.634 146.853 22.4057 147.443 21.2906C152.411 21.4546 157.381 21.6186 162.348 21.7855C165.663 21.0551 173.355 14.8566 174.685 12.1136C175.073 10.9031 173.43 8.92342 173.007 7.86797C172.843 7.83518 172.679 7.80238 172.512 7.76958C171.48 9.40642 164.262 16.7349 162.64 17.4415C160.753 18.2674 156.504 17.8559 154.349 17.5399C152.572 17.4415 150.795 17.3431 149.018 17.2447L148.722 17.1463C148.937 14.8267 150.473 12.6413 151.29 10.7302C152.437 8.04686 153.153 4.39753 154.942 2.24192C154.703 1.15666 153.32 0.617009 152.673 -0.128362H145.565V-0.0299729C146.716 0.989694 147.87 2.00936 149.021 3.02903C148.362 4.7404 147.706 6.45177 147.047 8.16314C145.07 13.1989 143.105 18.0676 141.027 22.8708C140.44 24.2303 138.934 28.8218 137.968 29.4837C136.621 29.9429 135.27 30.405 133.922 30.8641C131.627 31.7616 129.483 32.8766 127.506 34.1229C125.369 35.4705 121.588 39.6148 119.412 40.1425C117.578 38.3626 116.171 36.1384 114.576 34.1229C110.667 29.1796 104.907 22.7694 99.9663 18.9233C98.079 17.4534 95.9741 15.7122 93.7469 14.6777C92.4977 14.2185 91.2455 13.7564 89.9962 13.2972C86.5496 11.1655 82.5992 5.33669 82.4948 -0.12538H78.0524C79.0363 5.89721 81.9552 9.14106 84.9605 13.0021C86.1322 14.5077 87.5842 16.5351 89.2061 17.5429C90.193 17.7397 91.1799 17.9364 92.1667 18.1362C93.4756 18.5387 94.707 19.5256 95.7207 20.3067C101.967 25.1307 107.876 32.9303 112.009 39.9487C112.799 41.2963 113.589 42.647 114.379 43.9946C115.187 44.4597 121.376 45.4018 122.572 44.8831C124.939 43.2045 127.309 41.5259 129.68 39.8503C132.903 38.0406 136.129 36.2308 139.352 34.421C140.866 33.0734 142.378 31.7228 143.892 30.3752C148.466 30.6047 153.04 30.8373 157.613 31.0669C158.764 30.9685 159.918 30.8701 161.069 30.7717C163.502 30.2112 166.304 28.7294 169.655 29.2899C175.672 30.2977 181.617 31.7109 188.114 31.7586L188.212 31.9554C186.698 32.5815 185.186 33.2046 183.671 33.8307C179.754 35.5302 175.487 37.9511 173.013 41.1353C171.862 42.6171 170.759 44.3732 170.15 46.3678C169.223 49.409 169.62 52.781 167.387 54.4626C164.656 56.1739 161.924 57.8853 159.193 59.5967C158.114 60.2556 156.68 60.7833 155.935 61.7672C154.706 63.3861 153.931 65.1899 152.876 66.9997C150.947 70.3032 149.322 73.7468 147.742 77.4617C147.318 78.4545 145.878 80.0198 146.26 81.5076C147.148 84.978 150.335 88.0549 152.381 90.5892C153.066 91.4419 154.515 92.0173 154.849 93.1562C152.95 95.61 150.16 97.8968 149.125 101.153L148.928 101.251C145.309 98.1592 141.689 95.0644 138.07 91.9726C136.934 91.0811 134.874 90.136 134.221 88.8152C133.651 86.916 138.201 80.0765 139.155 78.4516C141.391 74.0092 143.63 69.5667 145.866 65.1273C146.793 63.5293 147.44 61.5138 148.827 60.3898C151.781 57.9956 159.185 55.7357 161.164 53.0851C162.315 50.1901 163.469 47.2951 164.62 44.4001C166.334 40.5033 171.31 36.0966 175.38 34.6268L175.478 34.43V34.3316C171.814 33.5445 166.805 32.6769 162.548 33.5415C160.18 34.1348 157.81 34.7252 155.44 35.3185C151.919 35.2857 148.398 35.2529 144.879 35.2201C142.375 36.1533 140.854 38.9708 138.07 39.8593L137.873 40.1544C139.331 41.2695 148.245 41.9702 151 41.833C151.292 42.7781 149.361 44.567 148.731 45.3869C146.206 48.6785 143.195 50.1663 139.059 51.9015C138.04 52.3308 136.385 53.5771 134.915 53.2819C132.81 52.5902 130.702 51.8985 128.597 51.2098C125.899 50.5181 123.201 49.8264 120.503 49.1376C116.982 48.4131 113.46 47.6886 109.942 46.9671C108.994 46.5199 104.605 38.7919 104.218 37.3936H103.923C102.188 38.6249 99.9693 39.5313 98.1983 40.8491C99.0212 42.0984 99.8441 43.3506 100.667 44.5998C101.523 46.344 102.378 48.0882 103.234 49.8323C104.424 50.8401 109.376 51.2336 111.23 51.7077C117.557 53.3236 123.821 55.19 129.689 56.8418C129.912 57.5573 128.594 58.7022 128.109 59.4088C126.496 61.7761 124.883 64.1464 123.273 66.5167C119.713 72.1905 116.087 79.0807 110.935 83.1981C106.066 87.3095 101.195 91.424 96.3259 95.5355C97.7063 96.4567 99.0897 97.378 100.47 98.2993C103.932 100.732 107.083 103.52 110.342 106.096C111.588 107.083 113.177 108.049 114.093 109.355C113.729 112.285 108.139 117.78 106.394 120.013C101.26 126.579 94.6265 131.954 88.7261 137.78C85.6015 140.937 82.474 144.098 79.3494 147.255C76.4215 145.544 73.4937 143.832 70.5659 142.121C70.5003 141.957 70.4347 141.793 70.3691 141.626C71.2248 140.902 72.0805 140.177 72.9362 139.456C75.4227 137.458 77.6917 135.222 80.2408 133.236C82.0178 131.591 83.7948 129.945 85.5717 128.302C89.3642 125.252 93.2758 121.623 96.3319 117.84C98.2728 115.768 100.214 113.693 102.155 111.621C100.575 110.437 98.9973 109.25 97.4171 108.067C93.738 105.198 88.1924 99.8526 83.7947 98.1949L83.4996 97.8014C84.8532 95.5861 88.261 93.8599 90.3093 92.2737C94.9157 88.523 99.5221 84.7723 104.128 81.0216C110.792 75.7056 115.097 66.9311 119.921 59.7994C118.961 58.9616 117.184 58.7678 115.875 58.3176C110.381 56.6063 104.886 54.8949 99.3909 53.1835C98.5561 52.6677 97.0951 48.3565 96.4303 47.2623C95.7386 46.3082 95.0468 45.3541 94.3581 44.4001H94.1614C92.8048 45.4197 90.6343 48.6248 89.0272 48.9409C87.6468 47.8884 86.2634 46.8359 84.883 45.7835C84.2122 45.5748 81.3947 48.0673 80.8371 48.4489C76.6809 51.2754 72.7424 54.6593 68.2016 57.0356C66.7228 56.7941 66.201 55.4405 65.241 54.6653C63.9619 53.6337 61.5678 51.9492 60.897 50.4197C60.6018 48.5771 60.3036 46.7346 60.0085 44.892C59.1349 41.0936 57.504 34.4658 55.3693 31.8629C54.4629 30.7568 51.8213 30.2798 50.435 29.6924C47.5727 28.476 44.7105 27.2565 41.8483 26.0401C39.5585 25.1427 36.899 24.7223 34.9402 23.473C33.9324 19.0933 33.6045 14.1589 32.078 10.2472C30.6648 6.79166 29.2485 3.33612 27.8323 -0.116436H21.613C23.8103 4.84475 25.4084 10.1756 26.7471 16.2698C27.1078 19.3944 27.4716 22.522 27.8323 25.6465C30.1698 27.0449 33.2378 27.4623 35.9271 28.5088C39.1501 29.7908 42.376 31.0758 45.599 32.3579C47.4922 33.1599 50.3306 33.7174 51.4218 35.3185C53.649 38.5892 52.4325 48.4877 52.4087 53.1835C56.225 55.8281 60.0651 58.103 63.6608 60.8817C65.1396 62.0266 66.8689 64.1971 68.7949 64.7308C69.8981 64.9574 73.4609 62.7541 74.421 62.1637C78.5294 59.6444 82.6677 55.5299 87.945 54.4655C90.351 53.9796 92.6796 55.7834 94.3611 56.4393C99.7039 58.5293 105.33 60.0648 110.449 62.3605C110.047 64.5579 106.051 68.1923 104.725 70.0587C99.5608 77.3126 92.6557 81.4122 85.3779 86.5433C82.3517 88.681 79.3225 90.8217 76.2963 92.9595C75.1335 93.3649 70.0382 89.4264 68.9917 88.7138C61.8421 83.863 54.9072 78.535 48.5596 72.8225C46.4606 73.0938 44.5346 74.7337 42.9335 75.6848C40.4977 77.0324 38.0648 78.383 35.6289 79.7306C34.7404 80.3239 33.852 80.9143 32.9635 81.5076C31.9349 81.7193 27.5372 76.9936 26.6457 76.2751C22.5432 72.9716 20.6082 66.8625 18.3542 61.7642C16.4133 57.9479 14.4723 54.1316 12.5314 50.3153C11.6578 48.601 11.1271 45.9534 9.76755 44.6893C6.36568 44.0721 -4.56742 43.607 -6.41892 42.1222C-8.822 37.0239 -11.2221 31.9226 -13.6252 26.8242C-14.9042 24.6656 -16.7468 23.002 -18.2643 21.0998C-22.0508 16.3533 -26.0609 12.0987 -29.3197 6.78868C-30.5421 4.79705 -32.7514 2.30155 -33.2672 -0.119417H-40.4734C-38.4639 10.8435 -31.7078 18.0974 -24.4837 23.8666C-21.696 26.0938 -18.3955 28.5833 -16.2906 31.4664C-15.0324 33.1897 -14.7343 35.7001 -14.0217 37.9809C-13.2495 40.4466 -10.0504 46.7286 -8.29726 47.951C-4.44816 48.4459 -0.59906 48.9379 3.25004 49.4328C3.77776 50.9474 4.3025 52.459 4.83022 53.9736C5.99001 57.286 7.06037 60.6193 7.88922 64.4356C8.15159 67.1995 8.41693 69.9633 8.67931 72.7271C9.13248 73.5768 13.0054 74.7128 14.1086 75.1958C17.9219 76.8624 21.5951 79.1105 24.8687 81.4152C29.7047 84.82 34.2068 88.693 38.7863 92.3721C41.1208 94.6738 43.4583 96.9785 45.7958 99.2802L52.1135 105.598C54.4331 108.472 57.3729 110.875 59.7133 113.791C60.3365 114.566 61.1653 115.049 61.5887 116.06C60.2858 117.527 57.4802 118.198 55.6674 119.119C50.1935 121.904 43.992 124.205 38.196 126.62C36.7649 127.217 32.236 128.382 31.4846 129.384C30.1698 133.332 28.852 137.282 27.5372 141.23C27.236 142.088 26.2522 143.996 26.6487 144.882C30.4978 148.961 34.3469 153.042 38.196 157.121C43.6252 162.845 49.0545 168.573 54.4838 174.297C56.9853 177.52 59.4837 180.746 61.9852 183.969C61.8123 185.177 60.4348 185.818 59.7163 186.536C58.2792 187.973 53.4135 193.564 51.9197 194.136C50.9329 192.326 49.946 190.517 48.9591 188.707C47.4028 186.071 45.3038 183.916 43.4315 181.599C42.051 180.153 40.6676 178.704 39.2872 177.255C33.7118 170.302 27.1824 164.205 21.6189 157.216C19.7108 154.947 17.8026 152.676 15.8945 150.407C15.1372 149.485 14.3799 148.564 13.6256 147.643C13.2917 146.188 15.4055 141.602 15.8945 140.043C17.3077 135.666 18.7239 131.289 20.1401 126.916C20.9958 124.512 21.8515 122.112 22.7072 119.709C20.3727 118.329 18.0352 116.945 15.6977 115.565C14.2189 113.335 14.3918 109.009 14.4157 105.497C11.0973 102.047 6.50581 99.4144 2.66864 96.5134C-6.24599 89.7722 -15.0056 83.532 -25.9566 78.6483C-27.0865 79.4056 -27.6471 81.5881 -28.2255 82.894C-29.6059 85.461 -30.9893 88.0281 -32.3697 90.5922V90.8873C-29.1348 91.9875 -25.9685 92.3781 -22.993 93.5528C-13.5357 97.2886 -6.99434 101.993 0.301346 107.667C4.17727 110.681 9.13548 115.213 10.3698 120.696C10.9154 123.126 9.35312 128.031 8.88801 130.171C7.67455 135.771 6.76221 140.699 5.23569 145.866C4.4784 148.728 3.72111 151.59 2.96679 154.453C2.8684 154.518 2.77002 154.584 2.67163 154.649C1.3568 152.84 0.0389633 151.03 -1.27587 149.22C-0.190613 142.607 0.894669 135.994 1.98291 129.381H1.88451C1.41344 133.508 0.0419617 137.178 -1.37424 140.437C-2.20309 142.345 -4.03075 144.375 -4.03969 146.853C1.47009 153.036 6.33585 159.965 11.3596 166.593C12.6268 168.266 17.269 173.137 17.6774 174.885C16.7621 176.626 15.015 177.741 13.8283 179.229C9.68407 183.868 5.53682 188.507 1.39256 193.146C0.196983 194.634 -3.86379 199.619 -5.31876 200.352C-7.02715 200.982 -12.9007 198.856 -14.4987 198.379C-21.7974 196.193 -28.6488 194.714 -36.9046 193.146C-38.5205 192.839 -44.1078 192.016 -45.8878 192.753C-49.5729 195.91 -53.258 199.07 -56.9431 202.228H-57.1399C-60.6282 195.943 -64.1165 189.658 -67.6019 183.376C-70.4969 184.989 -73.3919 186.602 -76.287 188.212C-84.3131 192.258 -92.3452 196.307 -100.371 200.352C-100.404 201.763 -99.2891 203.871 -98.7912 205.287C-97.4763 209.431 -96.1585 213.578 -94.8437 217.723C-91.251 229.291 -88.6154 241.789 -86.0603 254.046C-85.9291 254.112 -85.7979 254.177 -85.6667 254.243C-82.9029 251.184 -80.139 248.122 -77.3752 245.063C-73.6245 241.378 -69.8738 237.692 -66.1231 234.007C-67.3216 234.565 -68.2698 235.79 -69.1821 236.673C-73.1266 240.477 -77.4825 243.715 -80.9291 248.023C-82.2708 249.702 -84.4801 251.324 -85.2731 253.453C-85.3715 253.485 -85.4699 253.518 -85.5683 253.551H-85.6667C-86.8831 248.155 -88.1026 242.758 -89.319 237.365C-82.4437 234.076 -75.5654 230.784 -68.6901 227.493C-63.5918 225.057 -58.4905 222.624 -53.3922 220.188C-50.6999 218.999 -48.2551 217.404 -45.2974 216.438C-44.2092 217.04 -43.6487 218.065 -42.7304 218.808C-38.8634 221.926 -35.6583 225.957 -32.3668 229.666C-32.6351 231.336 -34.8772 232.728 -35.8223 233.912C-38.8008 237.642 -42.4352 240.793 -45.3958 244.472C-53.6217 253.652 -61.8476 262.832 -70.0735 272.012C-73.4963 275.861 -76.916 279.711 -80.3388 283.56C-81.0394 285.477 -79.5576 291.088 -79.1551 292.838C-77.2738 301.001 -75.3716 305.766 -71.7521 311.988C-70.6848 313.822 -67.1964 319.901 -67.1129 322.056H-43.1269C-43.4787 318.857 -45.4346 315.682 -46.5825 312.975C-49.5103 306.055 -52.5216 299.567 -55.5657 293.038C-55.357 290.506 -51.332 285.939 -49.9396 283.956C-45.2557 277.287 -40.6463 270.727 -36.1204 263.918C-34.3137 261.201 -31.0907 257.952 -30.6912 254.144C-30.5272 254.079 -30.3632 254.013 -30.1962 253.948C-27.5904 255.471 -23.2643 260.31 -21.3114 262.731C-20.256 264.043 -18.4015 265.224 -17.9543 267.075C-17.6412 268.524 -20.5213 272.91 -21.213 274.183C-24.8475 280.882 -29.4031 286.878 -32.8617 293.53C-31.842 296.228 -30.8223 298.926 -29.8027 301.624C-29.4777 302.462 -29.3704 304.078 -28.619 304.487C-26.9732 302.677 -25.3275 300.867 -23.6847 299.057C-20.5005 295.11 -16.702 291.619 -13.4194 287.707C-12.5965 287.146 -11.7737 286.589 -10.9508 286.028C-9.27219 284.648 -7.59361 283.264 -5.91802 281.884C-1.45176 278.136 3.23811 271.568 6.91427 266.881C9.7109 263.458 12.5075 260.039 15.3042 256.616C16.9827 254.905 18.6613 253.193 20.3369 251.482C22.7608 248.479 25.8586 245.024 29.022 242.797C28.9057 240.927 25.0298 235.579 23.9892 233.912C19.8271 227.257 15.492 221.089 10.7634 215.06C7.93393 211.935 5.10452 208.808 2.27509 205.683C4.5112 203.546 6.75029 201.405 8.9864 199.267H9.28157C11.1897 201.241 13.0979 203.215 15.006 205.188C16.1241 206.306 17.2421 207.424 18.3632 208.546C21.2582 212.067 24.1532 215.588 27.0482 219.106C30.1191 223.316 32.4298 227.892 35.1429 232.529C36.8662 235.474 38.3421 238.605 39.7821 241.905C40.1936 242.847 41.41 244.395 41.1626 245.754C40.9061 247.162 39.7016 248.635 38.992 249.702C35.8257 254.466 31.6099 258.044 28.1335 262.436C21.8843 270.331 15.7723 278.584 10.2684 287.212C7.39727 291.711 3.67935 298.488 -0.193588 301.821V302.116C4.80039 305.262 6.43127 310.724 7.70437 317.712C7.90711 318.819 8.2291 320.819 7.90114 321.958V322.056H23.7924C25.2057 318.997 26.6219 315.936 28.0381 312.877C30.5723 307.844 33.1066 302.808 35.6379 297.775C36.6903 296.097 37.7428 294.418 38.7953 292.743C39.2127 291.601 37.5639 287.513 37.2151 286.228C36.103 282.117 33.8132 272.776 35.6349 268.265C37.4476 263.78 41.902 262.752 45.605 260.17C45.6705 260.203 45.7361 260.235 45.8017 260.268C43.7743 266.586 48.1124 275.566 49.946 279.91C53.9531 289.403 57.504 298.855 61.5946 308.139C63.7324 312.778 65.873 317.417 68.0108 322.056H85.679C83.6725 318.043 81.666 314.027 79.6594 310.014C75.4645 300.506 71.2159 291.285 67.0239 281.487C65.7091 278.13 64.3913 274.776 63.0764 271.419C62.4533 269.851 61.4128 268.145 61.3979 266.088C70.545 257.174 79.6922 248.253 88.8394 239.338V238.745C84.8532 234.32 81.4692 229.222 77.9809 224.332C75.4138 220.811 72.8467 217.29 70.2827 213.772C67.981 210.054 65.6763 206.336 63.3746 202.618C63.7204 200.087 65.7329 198.641 67.0269 196.992C70.4168 192.681 73.8038 188.373 77.1937 184.062C77.6738 182.738 76.3947 181.128 75.9117 180.311C74.0453 177.154 71.9762 174.578 69.7907 171.823C66.4425 167.601 62.5278 163.653 58.3418 160.275C56.3025 158.302 54.2632 156.328 52.2209 154.354C46.9198 150.091 42.1584 145.171 37.3164 140.437V140.043C40.5066 138.332 43.6998 136.62 46.89 134.909C53.1183 131.274 59.7282 128.35 65.4467 124.149C68.7353 121.319 72.0268 118.49 75.3184 115.66C75.3512 115.496 75.384 115.332 75.4168 115.166C71.034 110.622 65.6077 106.624 60.6107 102.73C57.2208 99.7364 53.8338 96.74 50.4439 93.7466C47.3521 91.3107 44.2573 88.8778 41.1655 86.4419C41.9944 85.3895 46.6455 82.402 48.3718 82.3961C56.0222 89.2386 63.8874 95.932 72.3578 101.94C75.7895 104.373 79.1913 106.725 82.4263 109.343C83.6636 110.344 84.3404 111.892 85.3869 113.093L87.6558 115.362C87.8376 116.442 81.6928 121.85 80.5479 122.765C72.2862 129.366 63.8129 136.37 54.8833 142.211V142.506C59.1468 145.123 62.7544 148.588 66.6304 151.587C70.8104 154.822 76.8091 159.217 80.053 163.236C83.6069 167.151 87.1608 171.068 90.7118 174.983C90.5359 176.817 87.7154 180.093 86.7643 181.694C84.4775 185.543 82.781 189.801 80.9415 194.032C80.2825 195.481 79.6266 196.927 78.9677 198.376C87.131 207.222 94.6563 216.837 101.967 226.506C105.223 230.552 108.481 234.601 111.74 238.647C103.481 247.496 95.2228 256.348 86.9641 265.2C85.5985 266.89 79.0721 272.463 78.771 274.084C81.174 278.446 83.0106 283.25 85.2855 287.805C88.5413 294.287 91.8 300.769 95.0588 307.25C96.7046 310.473 98.3503 313.699 99.9931 316.922C100.849 318.634 101.704 320.345 102.56 322.056H124.078C123.764 319.844 119.969 314.4 118.747 312.385C114.57 304.686 110.39 296.985 106.21 289.287C104.719 286.786 103.487 284.066 101.964 281.49C101.532 280.76 100.804 280.125 100.682 279.12C112.098 266.091 123.517 253.059 134.933 240.033C134.966 239.902 134.999 239.771 135.032 239.639C124.668 227.928 114.301 216.211 103.938 204.5C100.944 201.309 97.9478 198.116 94.9544 194.926C95.1661 193.483 96.2066 192.454 96.7314 191.274C98.4756 187.884 100.22 184.497 101.964 181.107C107.053 171.116 112.992 162.121 119.239 153.37C121.358 150.401 123.657 147.702 125.852 144.882C126.576 143.961 127.301 143.039 128.022 142.118C131.782 142.473 134.516 145.717 137.795 146.757C137.968 147.035 138.019 147.008 138.091 147.449C131.299 156.715 125.208 166.528 119.039 176.369C117.304 179.139 115.67 182.019 113.905 184.858C113.282 185.859 112.14 187.01 111.931 188.313C113.38 189.628 114.826 190.946 116.275 192.261C119.4 195.385 122.527 198.513 125.652 201.637C129.158 205.981 133.717 209.461 137.199 213.778C139.897 216.575 142.596 219.371 145.294 222.168C149.691 227.615 155.174 232.32 160.1 237.269C159.924 239.016 157.956 240.608 157.041 241.81C154.903 244.672 152.762 247.534 150.625 250.397C142.664 261.383 134.701 272.376 126.737 283.366C132.133 293.169 137.53 302.975 142.923 312.781C144.045 314.674 147.795 320.047 148.058 322.059H177.866V321.764C172.005 313.225 166.328 304.528 160.395 296.1C157.861 292.447 155.326 288.795 152.795 285.143L152.771 285.131ZM9.15337 233.408C10.2714 235.48 11.3895 237.555 12.5105 239.627C12.2124 242.096 8.81944 245.113 7.47778 246.932C3.95068 251.708 -0.381424 255.689 -4.06952 260.256C-5.87927 262.033 -7.68903 263.81 -9.49878 265.587H-9.79395C-12.9722 261.759 -17.8529 255.626 -21.9345 252.952V252.755C-16.0461 247.391 -10.1547 242.028 -4.26629 236.667C-4.50481 234.95 -6.49346 233.688 -7.42368 232.523C-8.59541 231.059 -11.6663 227.469 -13.5447 226.995C-20.2888 227.093 -27.0359 227.192 -33.78 227.29C-36.3739 224.708 -44.9784 217.472 -40.5897 211.596C-39.5909 210.257 -38.4192 210.677 -36.6422 210.015C-28.2762 210.021 -21.2578 211.265 -14.3348 212.779C-11.2459 213.456 -6.93173 213.423 -4.66283 215.048C-3.38079 216.497 -2.09576 217.943 -0.813728 219.392C2.72231 223.858 6.15698 228.349 9.15635 233.408H9.15337ZM65.8104 236.864C66.2815 237.755 67.9541 239.818 67.6858 240.811C67.1134 241.664 60.3991 243.676 59.0007 244.168C58.4074 244.377 56.702 245.119 56.2369 244.86C53.3091 239.365 50.3813 233.87 47.4535 228.375C44.0635 222.705 40.7272 216.786 36.7947 211.596C34.1948 208.832 31.595 206.068 28.9981 203.304C26.5116 200.162 22.0513 194.237 18.7329 192.249V191.855C20.9332 189.02 23.8938 186.763 25.9391 183.76H26.434C30.2563 187.422 34.2783 190.946 37.4894 195.209C38.9712 197.511 40.45 199.816 41.9318 202.117C44.2663 204.288 46.6038 206.461 48.9412 208.632C53.0199 213.784 56.0729 219.827 59.5016 225.609C61.6751 229.276 63.7801 233.006 65.8194 236.861L65.8104 236.864ZM124.54 128.782C121.513 133.034 117.903 136.772 114.668 140.824C111.737 144.497 108.377 147.696 105.586 151.584C104.862 152.592 103.741 153.46 103.416 154.843C102.286 159.631 106.21 166.644 107.265 170.141C106.442 171.587 105.619 173.036 104.796 174.485L104.301 174.583C99.4982 168.299 94.6921 162.014 89.8889 155.732C89.7517 154.619 92.0892 152.989 92.6527 152.276C95.023 149.277 97.6407 146.48 99.9574 143.493C106.949 134.471 115.07 126.74 121.18 116.743C122.778 114.125 126.03 109.656 126.806 106.576V106.281C125.225 105.064 123.648 103.845 122.068 102.628C118.013 99.635 113.938 96.406 109.137 94.1401V93.7466C110.354 92.6613 111.573 91.5761 112.79 90.4878C116.347 87.6196 120.992 82.8433 123.448 78.9405C125.917 74.5309 128.383 70.1213 130.851 65.7147C132.372 62.7451 134.051 59.4893 136.576 57.5216C140.476 54.4834 146.624 53.6218 150.297 50.3153C153.365 47.5515 154.34 42.4353 157.106 39.3584C158.737 37.5456 160.86 37.483 163.326 36.3978H164.608L164.706 36.5945C164.047 37.3846 163.391 38.1747 162.732 38.9648C161.418 41.0698 160.1 43.1777 158.785 45.2826C157.7 47.1371 157.166 49.9993 155.526 51.3022C151.015 54.8949 144.623 56.1978 141.215 60.8757C136.078 67.924 132.721 76.6418 127.891 83.8749C126.126 86.5195 124.242 89.3548 121.573 91.0811V91.3763C124.066 92.5242 126.516 93.5408 128.779 94.9302C132.232 97.05 135.139 99.6529 138.749 101.74C138.356 102.596 137.959 103.451 137.566 104.307C136.084 107.807 134.82 111.099 133.025 114.179C130.118 119.17 127.786 124.22 124.537 128.788L124.54 128.782Z" fill="#B15A00"/>
<path d="M139.841 47.3484C140.402 46.9548 140.959 46.5583 141.52 46.1647C141.102 45.7056 133.291 43.222 132.34 43.2041C131.093 44.2536 129.167 45.3418 127.405 45.7712C127.841 46.5553 130.157 46.7342 131.058 47.0532C134.99 48.4485 136.323 49.829 139.841 47.3484Z" fill="#B15A00"/>
<path d="M329.359 293.718C324.982 290.79 320.605 287.862 316.231 284.935C303.936 276.363 291.452 267.782 278.724 259.765C275.006 257.362 271.288 254.962 267.57 252.559C265.513 251.271 262.576 250.248 261.056 248.414C263.456 240.454 265.859 232.49 268.262 224.527C273.861 206.814 279.106 188.993 284.55 170.929C285.635 167.047 286.72 163.165 287.809 159.28C288.137 155.792 288.468 152.303 288.796 148.818C289.058 145.89 289.323 142.962 289.586 140.035C288.989 139.063 279.142 134.805 277.347 134.015C268.08 129.93 258.528 125.813 248.722 121.973C244.115 120.458 239.509 118.946 234.902 117.432C234.804 117.334 234.706 117.235 234.607 117.137C238.391 112.006 242.174 106.871 245.958 101.737C253.754 91.2098 261.554 80.6792 269.35 70.1516C272.01 66.535 274.359 62.5995 277.049 58.8994C278.396 57.1553 279.747 55.4111 281.094 53.6669C282.457 50.8137 279.872 47.3224 279.219 45.1787C277.958 41.0463 278.256 34.6212 279.317 30.471C280.275 26.7263 281.679 22.9845 283.462 19.9106C284.285 18.4616 285.108 17.0156 285.93 15.5666C286.357 12.9995 286.786 10.4325 287.212 7.86841C287.773 5.96026 288.33 4.05212 288.891 2.14397C288.596 1.38667 288.298 0.629375 288.003 -0.12494H279.613C279.386 1.32704 279.171 3.13084 279.613 4.61263C279.908 5.5995 280.54 6.15108 280.6 7.37647C279.908 8.23215 279.216 9.08784 278.527 9.94352V10.2387C279.809 9.87793 281.094 9.51419 282.376 9.15343H282.475C283.244 11.8666 284.589 12.1796 285.435 14.1862C284.786 14.9464 283.56 15.1432 282.672 15.668C281.124 16.7532 279.58 17.8385 278.032 18.9267C273.352 22.6327 270.14 28.7447 268.161 35.1132C266.366 40.8943 267.096 49.627 265.495 55.4469C265.048 57.0748 264.801 59.7611 263.62 60.6794C261.81 60.745 260 60.8106 258.191 60.8762C252.86 61.6931 244.547 61.9942 240.227 60.0861C239.24 63.3568 238.185 66.7497 237.66 69.9578V70.0562C238.337 70.3782 239.336 70.1933 240.227 70.1545L240.326 70.3513C235.988 82.6261 232.466 95.0022 227.001 105.983C224.303 111.314 221.605 116.645 218.907 121.973C217.562 124.28 215.078 128.198 214.563 130.956V131.054C217.359 132.041 220.156 133.028 222.953 134.015C229.598 136.218 236.247 138.425 242.89 140.628C247.329 142.023 251.953 143.192 255.525 145.464C253.42 152.011 251.312 158.558 249.207 165.106C238.996 159.873 227.577 155.237 216.438 150.795C211.426 148.794 206.551 146.907 201.73 144.873C199.229 143.854 196.73 142.834 194.229 141.814C194.584 138.848 197.851 133.55 199.163 130.956C202.377 124.605 205.401 118.401 208.937 112.399C212.33 106.636 214.882 100.321 217.622 94.0392C219.002 91.0458 220.386 88.0494 221.766 85.056C221.733 83.5742 221.7 82.0954 221.668 80.6136C221.996 78.935 222.326 77.2564 222.654 75.5808C224.458 68.4163 227.234 62.0032 229.762 55.5423C230.946 51.9556 232.133 48.3689 233.316 44.7821C235.749 38.5866 239.753 32.7638 244.568 28.8908C246.694 27.1824 248.549 24.9583 251.28 23.8581C252.049 22.6923 251.098 21.1897 250.686 20.009C249.759 17.3436 248.179 13.8016 248.811 10.0389C249.24 7.48082 249.852 5.36695 250.981 3.52439C251.706 2.53752 252.43 1.55065 253.152 0.563782L253.745 -0.0295328C252.627 -0.0623291 251.509 -0.0951254 250.388 -0.127922C244.923 3.63173 243.391 10.99 242.097 19.0221C241.998 20.6679 241.9 22.3137 241.801 23.9565C242.103 25.4651 242.827 26.613 242.887 28.4973C238.987 32.0363 231.131 34.2784 228.179 38.369C227.467 39.3558 227.583 41.1328 227.192 42.4148C226.498 44.6957 224.282 49.5913 222.651 50.9031C221.524 51.0522 220.15 50.4619 218.901 50.3098C214.989 58.8607 212.067 68.47 209.229 77.9481C208.537 81.1383 207.845 84.3315 207.157 87.5217C205.544 91.4691 203.931 95.4196 202.321 99.3671C196.996 111.529 191.134 123.422 185.246 135.199C183.502 138.818 181.757 142.438 180.013 146.057C179.42 147.372 178.83 148.69 178.236 150.005C182.118 152.273 186 154.545 189.885 156.814C197.622 161.453 205.913 165.437 214.166 169.647C217.917 171.555 221.668 173.463 225.418 175.371C225.871 176.432 223.534 181.787 223.048 183.168C220.645 190.338 218.245 197.514 215.842 204.685C213.242 212.35 210.642 220.019 208.045 227.684C206.465 230.776 204.888 233.871 203.308 236.962C195.216 253.742 187.118 270.525 179.026 287.302C179.104 288.84 184.339 294.842 185.443 296.285C190.016 302.272 194.59 308.262 199.163 314.248C200.365 315.817 204.715 320.369 205.085 322.045H219.002L219.1 321.848C214.002 316.189 208.901 310.531 203.803 304.872C202.61 303.384 199.145 300.42 198.668 298.652C197.965 296.041 201.787 288.545 202.616 286.61C206.993 276.345 211.37 266.08 215.743 255.814C218.245 249.398 220.743 242.982 223.245 236.566C224.363 233.999 225.481 231.432 226.602 228.868C229.935 219.497 231.897 209.694 234.795 199.947C236.11 195.046 237.428 190.141 238.742 185.24C239.336 182.938 239.926 180.633 240.519 178.332C239.172 173.528 237.821 168.722 236.474 163.919C235.105 161.516 231.727 159.724 230.848 157.011C238.438 159.569 245.782 163.439 252.168 167.375C255.722 169.676 259.276 171.981 262.83 174.283C263.537 175.484 262.597 178.606 262.237 180.106C260.969 185.374 259.535 190.654 258.092 195.702C254.538 209.092 250.984 222.484 247.434 235.874C245.803 240.525 243.143 245.308 241.116 249.989C240.513 251.378 239.208 253.015 239.142 254.726C240.657 255.877 242.168 257.031 243.683 258.182C247.86 261.324 251.921 264.586 256.217 267.657C267.138 275.781 278.065 283.912 288.986 292.036C292.967 294.931 296.95 297.826 300.93 300.721C302.114 301.562 305.346 303.22 305.963 304.374C306.312 305.665 305.06 308.16 304.681 309.407C303.563 313.616 302.445 317.829 301.324 322.042H327.382C329.487 313.619 331.595 305.197 333.7 296.774C332.874 295.403 330.665 294.633 329.356 293.715L329.359 293.718Z" fill="#B15A00"/>
</g>
</g>
</g>
<defs>
<clipPath id="clip0_172_4634">
<rect x="182" y="7.95547e-06" width="322" height="182" rx="5" transform="rotate(90 182 7.95547e-06)" fill="white"/>
</clipPath>
<clipPath id="clip1_172_4634">
<rect width="182" height="322" fill="white"/>
</clipPath>
</defs>
</svg>
