<svg width="56" height="56" viewBox="0 0 56 56" fill="none" xmlns="http://www.w3.org/2000/svg">
<path d="M0 28C0 12.536 12.536 0 28 0C43.464 0 56 12.536 56 28C56 43.464 43.464 56 28 56C12.536 56 0 43.464 0 28Z" fill="#FFE400"/>
<path d="M43.0165 36.0211C37.5966 33.3974 36.7327 29.3465 36.6943 29.046C36.6478 28.6821 36.595 28.3959 36.9965 28.0257C37.3837 27.668 39.1016 26.6048 39.5782 26.2721C40.366 25.7213 40.713 25.1713 40.4572 24.4953C40.2784 24.0276 39.8429 23.8514 39.3841 23.8514C39.2394 23.8519 39.0952 23.8681 38.954 23.8997C38.0884 24.0875 37.2478 24.5212 36.7613 24.6383C36.7029 24.6534 36.6429 24.6615 36.5825 24.6625C36.3232 24.6625 36.2248 24.5471 36.2498 24.235C36.3106 23.2889 36.4394 21.4423 36.2901 19.7174C36.0853 17.344 35.3198 16.1681 34.4122 15.1281C33.9731 14.6238 31.9342 12.457 27.9996 12.457C24.0649 12.457 22.0288 14.6238 21.5924 15.1219C20.682 16.1619 19.9175 17.3378 19.7145 19.7111C19.5651 21.4361 19.6993 23.2818 19.7547 24.2288C19.7726 24.5257 19.6814 24.6562 19.4221 24.6562C19.3617 24.6552 19.3017 24.6471 19.2432 24.6321C18.7576 24.5149 17.9171 24.0812 17.0514 23.8934C16.9102 23.8618 16.766 23.8456 16.6213 23.8452C16.1608 23.8452 15.7271 24.024 15.5482 24.489C15.2925 25.1651 15.6376 25.715 16.4281 26.2659C16.9048 26.5985 18.6226 27.6609 19.0098 28.0195C19.4104 28.3897 19.3586 28.6758 19.3121 29.0398C19.2736 29.3447 18.4089 33.3956 12.9898 36.0148C12.6723 36.1687 12.1322 36.4942 13.0846 37.02C14.5798 37.8462 15.575 37.7577 16.3486 38.2558C17.0049 38.6788 16.6168 39.5909 17.0944 39.92C17.681 40.3251 19.4149 39.8914 21.655 40.6309C23.5329 41.2497 24.6739 42.998 28.0041 42.998C31.3342 42.998 32.5083 41.2417 34.3532 40.6309C36.5887 39.8914 38.3263 40.3251 38.9138 39.92C39.3904 39.5909 39.0032 38.6788 39.6596 38.2558C40.4331 37.7577 41.4275 37.8462 42.9235 37.02C43.8741 36.5004 43.334 36.1749 43.0165 36.0211Z" fill="white"/>
<path d="M45.3749 35.7122C45.1316 35.0504 44.6684 34.6963 44.1408 34.403C44.0416 34.3449 43.9504 34.2984 43.8726 34.2626C43.7152 34.1812 43.5542 34.1025 43.3941 34.0194C41.7496 33.1475 40.4655 32.0476 39.5748 30.7438C39.3219 30.3767 39.1025 29.9876 38.9194 29.5813C38.8434 29.364 38.8469 29.2406 38.9015 29.1279C38.9556 29.0411 39.0272 28.9665 39.1116 28.9088C39.3942 28.7219 39.6857 28.5323 39.8834 28.4044C40.2357 28.1764 40.5147 27.9958 40.6944 27.8679C41.3696 27.3957 41.8417 26.8941 42.1368 26.3334C42.3427 25.946 42.4628 25.5188 42.4889 25.0809C42.515 24.643 42.4464 24.2046 42.288 23.7955C41.8408 22.6187 40.7293 21.8881 39.3826 21.8881C39.0985 21.8879 38.8152 21.9178 38.5375 21.9775C38.4633 21.9936 38.3891 22.0106 38.3167 22.0294C38.3292 21.2246 38.3113 20.3751 38.2397 19.539C37.9858 16.5996 36.9565 15.0588 35.8834 13.8301C35.1963 13.0602 34.3868 12.4088 33.4878 11.9022C31.8594 10.9722 30.0128 10.5 27.9998 10.5C25.9869 10.5 24.1492 10.9722 22.519 11.9022C21.6177 12.409 20.8067 13.0617 20.1189 13.8337C19.0458 15.0624 18.0165 16.6059 17.7626 19.5425C17.691 20.3787 17.6732 21.2326 17.6848 22.033C17.6124 22.0142 17.539 21.9972 17.4648 21.9811C17.1871 21.9214 16.9038 21.8914 16.6197 21.8917C15.2721 21.8917 14.1588 22.6223 13.7135 23.7991C13.5543 24.2084 13.4851 24.6471 13.5105 25.0854C13.536 25.5238 13.6555 25.9516 13.861 26.3396C14.157 26.9003 14.6292 27.402 15.3043 27.8742C15.4832 27.9994 15.7631 28.18 16.1154 28.4107C16.3059 28.5341 16.584 28.7147 16.8567 28.8954C16.9521 28.9571 17.0333 29.0385 17.0946 29.1341C17.1518 29.2513 17.1536 29.3774 17.0687 29.6099C16.888 30.0077 16.6722 30.3887 16.4239 30.7482C15.5529 32.0225 14.3064 33.1028 12.7146 33.9675C11.8713 34.4146 10.995 34.7133 10.6248 35.7193C10.3458 36.4785 10.5282 37.3424 11.2373 38.0703C11.4976 38.3419 11.7994 38.5705 12.1316 38.7472C12.8226 39.127 13.5575 39.421 14.3198 39.6227C14.4771 39.6632 14.6264 39.73 14.7615 39.8203C15.02 40.0465 14.9833 40.3872 15.3276 40.8862C15.5004 41.1441 15.72 41.3673 15.975 41.5444C16.6975 42.0434 17.5095 42.0747 18.3698 42.1077C19.1469 42.1373 20.0277 42.1712 21.0337 42.503C21.4504 42.6407 21.8832 42.9072 22.3849 43.2184C23.5894 43.9588 25.2384 44.972 27.998 44.972C30.7577 44.972 32.4183 43.9535 33.6317 43.2103C34.1298 42.9045 34.56 42.6407 34.965 42.5066C35.9711 42.1739 36.8519 42.1408 37.629 42.1113C38.4892 42.0782 39.3012 42.0469 40.0238 41.548C40.3258 41.3374 40.5774 41.0625 40.7606 40.7431C41.0083 40.322 41.002 40.0277 41.2346 39.8221C41.3613 39.7361 41.5015 39.6721 41.6495 39.6325C42.4222 39.4302 43.167 39.1334 43.8672 38.749C44.22 38.5597 44.5377 38.311 44.8061 38.0139L44.8151 38.0032C45.4804 37.2914 45.6476 36.4526 45.3749 35.7122ZM42.922 37.0303C41.4259 37.8565 40.4315 37.768 39.658 38.2661C39.0007 38.6891 39.3897 39.6012 38.9122 39.9303C38.3256 40.3354 36.5917 39.9017 34.3516 40.6412C32.5041 41.252 31.3255 43.0082 28.0025 43.0082C24.6795 43.0082 23.5286 41.2555 21.6507 40.6367C19.4151 39.8972 17.6776 40.3309 17.0901 39.9258C16.6135 39.5967 17.0007 38.6846 16.3443 38.2616C15.5699 37.7635 14.5755 37.8521 13.0804 37.0303C12.128 36.5045 12.6681 36.1789 12.9856 36.0251C18.4046 33.4014 19.2694 29.3505 19.3078 29.0501C19.3543 28.6861 19.4062 28.4 19.0056 28.0298C18.6184 27.6721 16.9005 26.6088 16.4239 26.2762C15.6352 25.7253 15.2882 25.1753 15.544 24.4993C15.7228 24.0316 16.1592 23.8555 16.6171 23.8555C16.7618 23.8559 16.906 23.8721 17.0472 23.9037C17.9128 24.0915 18.7534 24.5252 19.239 24.6424C19.2974 24.6574 19.3575 24.6655 19.4178 24.6665C19.6771 24.6665 19.7684 24.536 19.7505 24.2391C19.695 23.2921 19.5609 21.4464 19.7102 19.7214C19.915 17.3481 20.6796 16.1722 21.5881 15.1322C22.0245 14.6323 24.075 12.4655 27.9962 12.4655C31.9175 12.4655 33.9733 14.6233 34.4097 15.1214C35.3192 16.1614 36.0846 17.3373 36.2876 19.7107C36.437 21.4356 36.3082 23.2822 36.2474 24.2283C36.2268 24.5404 36.3207 24.6558 36.58 24.6558C36.6404 24.6548 36.7004 24.6467 36.7589 24.6316C37.2454 24.5145 38.0859 24.0808 38.9516 23.893C39.0928 23.8614 39.237 23.8452 39.3817 23.8447C39.8422 23.8447 40.2759 24.0236 40.4548 24.4886C40.7105 25.1646 40.3654 25.7146 39.5757 26.2654C39.0991 26.5981 37.3813 27.6604 36.9941 28.019C36.5926 28.3892 36.6453 28.6754 36.6918 29.0394C36.7303 29.3443 37.5941 33.3952 43.0141 36.0144C43.3342 36.1745 43.8743 36.5 42.922 37.0303Z" fill="black"/>
</svg>
