<svg width="56" height="56" viewBox="0 0 56 56" fill="none" xmlns="http://www.w3.org/2000/svg">
<path d="M28 56C43.464 56 56 43.464 56 28C56 12.536 43.464 0 28 0C12.536 0 0 12.536 0 28C0 43.464 12.536 56 28 56Z" fill="#25D366"/>
<path d="M28.9224 10.2666C33.3763 10.2685 37.5572 12.0023 40.7007 15.1494C43.8441 18.2964 45.5745 22.48 45.5728 26.9287C45.5689 36.1063 38.1028 43.5741 28.9233 43.5781H28.9155C26.1292 43.5771 23.3912 42.8781 20.9595 41.5518L12.1333 43.8662L14.4956 35.2393C13.0386 32.7142 12.2717 29.8495 12.2729 26.915C12.2767 17.7353 19.7455 10.2668 28.9224 10.2666ZM28.9282 13.0791C21.295 13.0792 15.0876 19.2862 15.0845 26.916C15.0834 29.5309 15.8144 32.078 17.1997 34.2812L17.5288 34.8047L16.1313 39.9111L21.3687 38.5371L21.8735 38.8369C23.9982 40.0978 26.4343 40.7647 28.9175 40.7656H28.9233C36.5504 40.7654 42.758 34.558 42.7612 26.9277C42.7627 23.23 41.3242 19.7525 38.7114 17.1367C36.0987 14.5212 32.6243 13.0804 28.9282 13.0791ZM23.0278 19.2266C23.3051 19.2266 23.5833 19.229 23.8257 19.2412C24.081 19.254 24.4236 19.1443 24.7612 19.9551C25.1079 20.788 25.9403 22.8353 26.0444 23.0439C26.1485 23.2522 26.2173 23.4957 26.0786 23.7734C25.9401 24.0507 25.8705 24.2241 25.6626 24.4668C25.4546 24.7096 25.2257 25.0098 25.0386 25.1963C24.8304 25.4036 24.6136 25.6287 24.856 26.0449C25.0986 26.4614 25.9338 27.8236 27.1704 28.9268C28.759 30.3437 30.0997 30.7829 30.5161 30.9912C30.9319 31.1995 31.1748 31.1652 31.4175 30.8877C31.6601 30.6101 32.4574 29.6734 32.7349 29.2568C33.012 28.8407 33.2894 28.9092 33.6704 29.0479C34.0517 29.1868 36.0962 30.1927 36.5132 30.4014C36.9292 30.6097 37.2071 30.7142 37.311 30.8877C37.4149 31.0615 37.4143 31.8946 37.0679 32.8662C36.7208 33.8378 35.0595 34.7243 34.2603 34.8438C33.5436 34.9509 32.6367 34.9954 31.6401 34.6787C31.0359 34.487 30.2606 34.2314 29.2681 33.8027C25.0966 32.0014 22.3716 27.8024 22.1616 27.5215C21.9536 27.2439 20.4625 25.2654 20.4624 23.2178C20.4624 21.1706 21.537 20.1637 21.9185 19.7471C22.2996 19.3307 22.7505 19.2266 23.0278 19.2266Z" fill="#FDFDFD"/>
</svg>
