<svg width="56" height="56" viewBox="0 0 56 56" fill="none" xmlns="http://www.w3.org/2000/svg">
<g clip-path="url(#clip0_184_594)">
<path d="M26.1597 0H29.8376L29.8893 0.0121752C30.2023 0.0837085 30.5723 0.109494 30.8948 0.137254C32.2686 0.255482 33.5893 0.515648 34.9238 0.860005C41.8161 2.62922 47.7803 6.94805 51.6118 12.9443C53.5651 16.0126 54.9073 19.4294 55.5647 23.0069C55.6462 23.4548 55.9098 26.1306 55.9885 26.2848C55.9923 26.2929 55.9962 26.301 56 26.3091V29.74C55.9951 29.7537 55.9902 29.7673 55.9852 29.7808C55.7714 31.7984 55.5034 33.6358 54.9527 35.6015C52.8082 43.1634 47.5938 49.481 40.5757 53.0202C38.8592 53.8923 37.4425 54.3492 35.7042 54.9456C35.0481 55.1709 29.689 56.1876 29.9318 56H26.209C25.9649 55.9409 25.5064 55.9163 25.2336 55.8868C20.6879 55.3941 16.4852 53.9552 12.6286 51.4199C6.92016 47.6608 2.77399 41.9535 0.963501 35.3627C0.571085 33.8799 0.317854 32.4189 0.128731 30.9004C0.0896498 30.5866 0.0749164 30.2342 0.0101442 29.9318L0 29.8857V25.9906C0.0473368 25.8221 0.109739 25.2518 0.139941 25.0493C0.251436 24.3018 0.333846 23.5627 0.476154 22.8185C1.04148 19.7849 2.10943 16.867 3.63594 14.1853C7.30034 7.686 13.4183 2.92785 20.6199 0.976473C22.0838 0.578413 23.5808 0.288019 25.0905 0.13777C25.4352 0.103468 25.8332 0.101156 26.1597 0Z" fill="black"/>
<path d="M15.2693 15.001L22.89 15C23.1696 15.5228 24.094 16.7979 24.4746 17.3507L27.7577 22.1266C28.24 22.8275 29.0175 23.8731 29.431 24.5787C29.8617 23.9704 31.0143 22.7005 31.5381 22.0919L35.7309 17.2258C36.1929 16.6896 37.2339 15.543 37.601 15L39.8733 15.0003C37.9239 17.3951 35.662 19.9126 33.6296 22.2788L31.623 24.6195C31.317 24.9761 30.7405 25.6799 30.4044 25.9664C31.855 28.15 33.4248 30.3754 34.9154 32.5405L40.7262 41.0046L39.7667 41L33.1048 40.9989C32.808 40.4484 31.7282 38.9501 31.3152 38.3488L27.8294 33.2747C27.5007 32.8008 26.4034 31.279 26.2128 30.8866C25.5161 31.7589 24.6509 32.7168 23.9161 33.5696L19.814 38.339C19.206 39.0461 18.0551 40.295 17.5367 41.0009L15.2661 40.9993C16.1745 39.9979 17.1048 38.8718 17.9896 37.8415L22.5485 32.5495L24.1239 30.7052C24.3963 30.3857 24.9112 29.7536 25.2234 29.5135C24.8031 28.8093 24.0823 27.8216 23.6026 27.1258L20.8506 23.1199L17.1006 17.6652C16.5038 16.7965 15.8866 15.8473 15.2693 15.001Z" fill="#FEFEFE"/>
<path d="M18.3555 16.6677C19.4666 16.642 20.6503 16.6611 21.7669 16.6613L33.3908 33.2923L36.3506 37.5206C36.5842 37.854 37.5147 39.1451 37.6215 39.3792C36.4676 39.3892 35.3135 39.3898 34.1596 39.3809C33.9677 39.0087 33.3373 38.156 33.0772 37.7855L31.0021 34.822L22.1088 22.0956L19.6914 18.6472C19.3383 18.146 18.6118 17.167 18.3555 16.6677Z" fill="black"/>
</g>
<defs>
<clipPath id="clip0_184_594">
<rect width="56" height="56" fill="white"/>
</clipPath>
</defs>
</svg>
