<svg width="16" height="16" viewBox="0 0 16 16" fill="none" xmlns="http://www.w3.org/2000/svg">
<path d="M7.33333 1.3335C4.81918 1.3335 3.5621 1.3335 2.78105 2.08599C2 2.83848 2 4.04961 2 6.47185V11.9874C2 13.5246 2 14.2932 2.51523 14.5683C3.51298 15.1011 5.38453 13.3236 6.27334 12.7884C6.7888 12.478 7.04654 12.3229 7.33333 12.3229C7.62013 12.3229 7.87786 12.478 8.39333 12.7884C9.28214 13.3236 11.1537 15.1011 12.1514 14.5683C12.6667 14.2932 12.6667 13.5246 12.6667 11.9874V8.00016" stroke="#141B34" stroke-width="1.5" stroke-linecap="round" stroke-linejoin="round"/>
<path d="M14.0002 1.3335L9.3335 5.99986M14.0002 6.00016L9.3335 1.3338" stroke="#141B34" stroke-width="1.5" stroke-linecap="round" stroke-linejoin="round"/>
</svg>
