<svg width="24" height="24" viewBox="0 0 24 24" fill="none" xmlns="http://www.w3.org/2000/svg">
<path d="M5.6001 16.7847V10.166C5.6001 7.25933 5.6001 5.80599 6.53736 4.90299C7.47461 4 8.98311 4 12.0001 4C15.0171 4 16.5256 4 17.4628 4.90299C18.4001 5.80599 18.4001 7.25933 18.4001 10.166V16.7847C18.4001 18.6293 18.4001 19.5517 17.7818 19.8818C16.5845 20.5212 14.3387 18.3882 13.2721 17.7459C12.6535 17.3735 12.3443 17.1872 12.0001 17.1872C11.6559 17.1872 11.3467 17.3735 10.7281 17.7459C9.66154 18.3882 7.41567 20.5212 6.21838 19.8818C5.6001 19.5517 5.6001 18.6293 5.6001 16.7847Z" fill="#FF3131"/>
</svg>
