<svg width="72" height="72" viewBox="0 0 72 72" fill="none" xmlns="http://www.w3.org/2000/svg">
<path d="M61.5 50.7857V30C61.5 18.6863 61.5 13.0294 57.9853 9.51472C54.4706 6 48.8137 6 37.5 6H34.5C23.1863 6 17.5294 6 14.0147 9.51472C10.5 13.0294 10.5 18.6863 10.5 30V58.5" stroke="#141B34" stroke-width="3.5" stroke-linecap="round"/>
<path d="M24 9L24 20.0701C24 22.2904 24 23.4006 24.7143 23.8311C24.7451 23.8497 24.7765 23.8671 24.8085 23.8834C25.5527 24.2624 26.5237 23.6912 28.4658 22.5489C29.9176 21.6949 30.6435 21.2679 31.4446 21.2534C31.4815 21.2527 31.5185 21.2527 31.5554 21.2534C32.3565 21.2679 33.0824 21.6949 34.5342 22.5489C36.4763 23.6912 37.4473 24.2624 38.1915 23.8834C38.2235 23.8671 38.2549 23.8497 38.2857 23.8311C39 23.4006 39 22.2904 39 20.0701V9" stroke="#D5D5D5" stroke-width="3.5" stroke-linecap="round" stroke-linejoin="round"/>
<path d="M61.5 51H18C13.8579 51 10.5 54.3579 10.5 58.5C10.5 62.6421 13.8579 66 18 66H61.5" stroke="#141B34" stroke-width="3.5" stroke-linecap="round"/>
<path d="M61.5 51C57.3579 51 54 54.3579 54 58.5C54 62.6421 57.3579 66 61.5 66" stroke="#141B34" stroke-width="3.5" stroke-linecap="round"/>
</svg>
